<?xml version="1.0" encoding="UTF-8"?>
<svg xmlns="http://www.w3.org/2000/svg" viewBox="0 0 45.37 89.99">
  <defs>
    <style>
      .cls-1 {
        fill: #fff;
      }

      .cls-2 {
        mix-blend-mode: multiply;
      }

      .cls-2, .cls-3 {
        fill: #ffc52f;
      }

      .cls-4 {
        fill: none;
        isolation: isolate;
      }

      .cls-3 {
        stroke: #221f1f;
        stroke-linecap: round;
        stroke-linejoin: round;
        stroke-width: 1.35px;
      }
    </style>
  </defs>
  <g class="cls-4">
    <g id="Layer_2" data-name="Layer 2">
      <g id="Layer_1-2" data-name="Layer 1">
        <g>
          <path class="cls-3" d="m35.28.67c-2.52,0-4.25.43-5.28,1.33-.84.73-2.56,2.57-5.24,5.64-2.55,2.91-5.51,5.57-8.81,7.92-3.29,2.34-7.77,4.62-13.31,6.75-.25.1-.46.27-.59.5-1.7,2.78-1.81,5.36-.35,7.87,2.1,3.62,6.07,4.6,9.91,3.77,1.86-.4,3.61-1.17,5.29-2.04.82-.43,6.31-3.03,6.31-3.76v50.15c0,3.41,1.01,6.05,2.99,7.85,1.95,1.77,4.53,2.67,7.69,2.67,4.94,0,10.82-2.21,10.82-12.76V10.73c0-3.06-.87-5.53-2.58-7.32-1.73-1.81-4.03-2.73-6.84-2.73Z"/>
          <path class="cls-2" d="m28.23,21.36c-6.35,4.49-17.28,12.11-23.6,7.2-2.46-1.91-2.72-4.16-1.84-6.31-.05.02-.1.04-.15.06-.25.1-.46.27-.59.5-1.7,2.78-1.81,5.36-.35,7.87,2.1,3.62,6.07,4.6,9.91,3.77,1.86-.4,3.61-1.17,5.29-2.04.49-.26,4.66-2.38,6.31-3.32,1.27-2.38,3.54-5.46,5.03-7.72Z"/>
          <path class="cls-2" d="m42.12,3.4c-1.73-1.81-4.03-2.73-6.84-2.73-2.52,0-4.25.43-5.28,1.33-.62.53-1.72,1.69-3.34,3.49,4.73-1.18,9.32-.1,11.35,6.3,2.09,6.62,1.18,13.53,1.19,20.36.01,7.63.23,15.25.23,22.88,0,7.16.43,14.99-.94,22.05-.63,3.25-1.54,7.59-4.49,9.61-1.9,1.3-3.84,1.65-5.69,1.37,1.59.81,3.43,1.25,5.56,1.25,4.94,0,10.82-2.21,10.82-12.76V10.73c0-3.06-.87-5.53-2.58-7.32Z"/>
          <path class="cls-1" d="m26.88,10.16c-2.31,1.73-4.25,3.93-6.58,5.67-2.43,1.81-4.94,3.77-7.52,5.35-.27.16-.22.59.14.49,2.9-.77,5.57-2.83,7.99-4.53,2.38-1.67,5.23-3.69,6.73-6.21.33-.55-.17-1.21-.76-.77Z"/>
          <path class="cls-1" d="m9.85,22.21c-.58.13-1.1.31-1.61.62-.38.23-.43.86.11.86.13,0,.24-.04.36-.07.37-.02.72-.17,1.13-.34.47-.19.74-1.25,0-1.08Z"/>
          <path class="cls-1" d="m26.58,36c-.06-.2-.32.03-.32.16-.07,10.33-.88,20.55-.12,30.9.04.6.94.21.97-.23.45-6.3.32-12.68.38-19,.04-3.85.27-8.13-.91-11.83Z"/>
        </g>
      </g>
    </g>
  </g>
</svg>