<?xml version="1.0" encoding="UTF-8"?>
<svg xmlns="http://www.w3.org/2000/svg" viewBox="0 0 129.42 90.93">
  <defs>
    <style>
      .cls-1 {
        fill: #fff;
      }

      .cls-2 {
        fill: #662d73;
        mix-blend-mode: multiply;
        opacity: .5;
      }

      .cls-3 {
        fill: #8a52a1;
        stroke: #221f1f;
        stroke-linecap: round;
        stroke-linejoin: round;
        stroke-width: 1.35px;
      }

      .cls-4 {
        fill: none;
        isolation: isolate;
      }
    </style>
  </defs>
  <g class="cls-4">
    <g id="Layer_2" data-name="Layer 2">
      <g id="Layer_1-2" data-name="Layer 1">
        <g>
          <g>
            <path class="cls-3" d="m35.28,1.61c-2.52,0-4.25.43-5.27,1.33-.84.72-2.56,2.57-5.25,5.64-2.55,2.91-5.51,5.57-8.81,7.92-3.29,2.34-7.77,4.62-13.31,6.75-.24.1-.46.27-.59.5-1.7,2.78-1.81,5.35-.35,7.87,2.1,3.62,6.07,4.6,9.91,3.77,1.86-.4,3.61-1.17,5.29-2.04.82-.43,6.31-3.03,6.31-3.75v50.15c0,3.41,1.01,6.05,2.99,7.85,1.95,1.77,4.54,2.67,7.69,2.67,4.93,0,10.82-2.21,10.82-12.76V11.67c0-3.06-.87-5.53-2.58-7.33-1.73-1.81-4.03-2.73-6.84-2.73Z"/>
            <path class="cls-2" d="m28.23,22.3c-6.35,4.49-17.28,12.11-23.6,7.2-2.46-1.91-2.72-4.16-1.84-6.31-.05.02-.1.04-.16.06-.24.1-.46.27-.59.5-1.7,2.78-1.81,5.35-.35,7.87,2.1,3.62,6.07,4.6,9.91,3.77,1.86-.4,3.61-1.17,5.29-2.04.49-.26,4.66-2.38,6.31-3.32,1.27-2.38,3.54-5.47,5.03-7.72Z"/>
            <path class="cls-2" d="m42.12,4.34c-1.73-1.81-4.03-2.73-6.84-2.73-2.52,0-4.25.43-5.27,1.33-.62.54-1.73,1.69-3.34,3.48,4.73-1.18,9.32-.1,11.35,6.3,2.1,6.62,1.18,13.53,1.19,20.36.01,7.63.23,15.26.23,22.88,0,7.16.43,14.98-.94,22.04-.62,3.25-1.54,7.59-4.49,9.62-1.9,1.3-3.84,1.65-5.69,1.37,1.59.81,3.43,1.25,5.56,1.25,4.93,0,10.82-2.21,10.82-12.76V11.67c0-3.06-.87-5.53-2.58-7.33Z"/>
            <path class="cls-1" d="m26.88,11.1c-2.31,1.73-4.25,3.93-6.58,5.67-2.42,1.81-4.93,3.77-7.52,5.35-.27.17-.22.59.14.5,2.9-.77,5.56-2.83,7.99-4.53,2.39-1.67,5.24-3.69,6.74-6.21.32-.55-.17-1.21-.76-.77Z"/>
            <path class="cls-1" d="m9.86,23.15c-.58.13-1.1.31-1.61.62-.38.23-.43.86.11.86.13,0,.24-.04.36-.07.37-.02.72-.17,1.13-.34.47-.19.74-1.25,0-1.08Z"/>
            <path class="cls-1" d="m26.58,36.94c-.06-.2-.33.03-.33.16-.07,10.33-.88,20.55-.12,30.9.04.6.94.21.97-.23.45-6.3.32-12.69.39-19,.04-3.85.27-8.13-.91-11.83Z"/>
          </g>
          <g>
            <path class="cls-3" d="m123.26,18.02c-2.12-3.75-4.75-6.94-7.82-9.5-3.08-2.56-6.7-4.53-10.75-5.85-4.05-1.32-8.59-1.99-13.5-1.99-7.46,0-14,1.51-19.43,4.49-5.46,3.01-9.68,7.42-12.54,13.16-1.63,3.43-2.85,7.57-3.61,12.28-.75,4.67-1.14,9.99-1.14,15.83,0,4.53.35,8.81,1.04,12.71.69,3.92,1.8,7.57,3.3,10.87,2.94,6.01,7.39,10.79,13.21,14.19,5.8,3.39,12.45,5.11,19.74,5.11,6.33,0,12.18-1.28,17.37-3.8,5.21-2.53,9.52-6.18,12.82-10.87,2.61-3.8,4.42-8.08,5.38-12.74.95-4.58,1.43-10.11,1.43-16.45,0-11.73-1.85-20.96-5.49-27.44Zm-22.19,39.29c-2.22,1.23-5.41,1.86-9.46,1.86s-7.04-.6-9.27-1.79c-2.21-1.18-3.75-2.88-4.69-5.2-.98-2.41-1.48-5.56-1.48-9.39,0-5.57,1.14-9.72,3.38-12.33,2.16-2.51,6.17-3.78,11.91-3.78,4.07,0,7.26.59,9.49,1.73,2.21,1.14,3.74,2.78,4.68,5.03.98,2.34,1.48,5.41,1.48,9.11,0,3.93-.48,7.13-1.41,9.53-.9,2.3-2.42,4.01-4.64,5.24Z"/>
            <path class="cls-2" d="m88.77,21.78c-3.69.73-7.67,2.43-9.71,5.83-.6,1-1.5,3.97-1.66,6.72.54-1.53,1.25-2.83,2.15-3.88,2.16-2.51,6.17-3.78,11.91-3.78,4.07,0,7.26.59,9.49,1.73,2.21,1.14,3.74,2.78,4.68,5.03.98,2.34,1.48,5.41,1.48,9.11,0,3.93-.48,7.13-1.41,9.53-.64,1.62-1.6,2.94-2.88,4.01,7.56-4.57,9.47-20.95,3.43-27.97-4.13-4.8-11.13-7.58-17.48-6.32Z"/>
            <path class="cls-2" d="m58.8,70.02c2.94,6.01,7.39,10.79,13.21,14.19,5.8,3.39,12.45,5.11,19.74,5.11,6.33,0,12.18-1.28,17.37-3.8,5.21-2.53,9.52-6.18,12.82-10.87,2.61-3.8,4.42-8.08,5.38-12.74.95-4.58,1.43-10.11,1.43-16.45,0-11.73-1.85-20.96-5.49-27.44-2.12-3.75-4.75-6.94-7.82-9.5-3.08-2.56-6.7-4.53-10.75-5.85-4.05-1.32-8.59-1.99-13.5-1.99-7.46,0-14,1.51-19.43,4.49-.97.53-1.85,1.16-2.73,1.78,2.31-1.1,4.67-1.95,6.88-2.51,8.87-2.24,18.42-2.29,27.04.97,18.16,6.86,18.76,30.7,16.04,46.76-1.65,9.79-3.99,18.38-12.69,24.12-6.72,4.43-16.7,5.99-24.57,4.94-12.88-1.72-21.47-11.18-26.3-22.55.02.15.04.31.07.46.69,3.92,1.8,7.57,3.3,10.87"/>
            <path class="cls-1" d="m84.76,6.05c-20.71,4.2-29.36,23.29-26.69,43.09.13.99,1.48.32,1.57-.38,1.19-9.3.14-18.97,4.84-27.49,4.17-7.56,12.26-12.31,20.27-14.76.23-.07.32-.53,0-.47Z"/>
            <path class="cls-1" d="m60.07,58.43c-.03-.28-.05-.56-.08-.82-.11-1.05.22-2.38-.31-3.32-.35-.61-1.12-.15-1.33.32-.51,1.17-.28,2.7-.15,3.95.12,1.08.27,2.17.99,3.02.57.69,1.77-.33,1.63-1.04-.15-.74-.49-1.42-.75-2.13Z"/>
          </g>
        </g>
      </g>
    </g>
  </g>
</svg>