<?xml version="1.0" encoding="UTF-8"?>
<svg xmlns="http://www.w3.org/2000/svg" viewBox="0 0 75.63 89.88">
  <defs>
    <style>
      .cls-1 {
        fill: #be272e;
        mix-blend-mode: multiply;
      }

      .cls-2 {
        fill: #fff;
      }

      .cls-3 {
        fill: #ed1e24;
        stroke: #221f1f;
        stroke-linecap: round;
        stroke-linejoin: round;
        stroke-width: 1.35px;
      }

      .cls-4 {
        fill: none;
        isolation: isolate;
      }
    </style>
  </defs>
  <g class="cls-4">
    <g id="Layer_2" data-name="Layer 2">
      <g id="Layer_1-2" data-name="Layer 1">
        <g>
          <path class="cls-3" d="m66.97,45.11c-2.13-1.76-4.69-3.38-7.62-4.81,3.07-2.29,5.53-4.67,7.33-7.08,2.18-2.94,3.29-6.5,3.29-10.57,0-3.11-.76-6.05-2.26-8.75-1.49-2.68-3.71-5.06-6.61-7.08-2.87-1.99-6.28-3.53-10.13-4.57-3.83-1.04-8.12-1.57-12.74-1.57-5.28,0-10.14.63-14.44,1.86-4.31,1.23-7.99,2.91-10.92,4.97-2.94,2.07-5.21,4.29-6.76,6.61-1.6,2.4-2.42,4.74-2.42,6.96,0,2.45.94,4.44,2.81,5.91,1.78,1.42,3.77,2.13,5.91,2.13,1.73,0,3.29-.26,4.64-.77,2.6-.99,3.56-3.25,4.83-5.53,4.26-7.62,16.21-9.44,22.34-3.04,2.87,2.99,2.44,7-.32,9.78-4.09,4.11-9.86,3.93-15.16,4.85-4.21.73-8.63,2.41-8.63,7.41,0,9.28,12.51,7.8,18.76,8.08,2.45.11,4.59.77,6.76,1.96,8.01,4.39,5.63,16.06-2.17,18.92-2.35.86-6.01,1.66-8.5,1.26-2.7-.44-6.03-1.7-8.25-3.31-4.25-3.08-6.64-8.71-11.3-11.15-1.38-.72-2.84-1.09-4.35-1.09-2.88,0-5.34.77-7.3,2.29-2.06,1.59-3.1,3.72-3.1,6.32,0,1.95.77,4.29,2.36,7.14,1.54,2.76,3.82,5.45,6.79,8,2.98,2.56,6.79,4.71,11.35,6.4,4.56,1.69,9.78,2.55,15.51,2.55s10.83-.74,15.49-2.21c4.67-1.47,8.78-3.55,12.2-6.17,3.44-2.64,6.1-5.71,7.88-9.11,1.79-3.41,2.7-7.01,2.7-10.68,0-3.09-.68-6.01-2.02-8.67-1.33-2.65-3.34-5.09-5.96-7.26Z"/>
          <path class="cls-1" d="m20.12,41.83c0,9.28,12.51,7.8,18.76,8.08,2.45.11,4.59.77,6.76,1.96.41.23.78.48,1.14.74-.97-1.57-2.36-2.93-4.18-3.81-3.78-1.82-7.05-1.58-11.02-2.17-2.97-.44-7.52-1.62-8.05-5.31-.34-2.37,0-4.17.79-5.61-2.39,1.1-4.19,2.94-4.19,6.12Z"/>
          <path class="cls-1" d="m72.93,52.36c-1.33-2.65-3.34-5.09-5.96-7.26-2.13-1.76-4.69-3.38-7.62-4.81,3.07-2.29,5.53-4.67,7.33-7.08,2.18-2.94,3.29-6.5,3.29-10.57,0-3.11-.76-6.05-2.26-8.75-1.49-2.68-3.71-5.06-6.61-7.08-2.81-1.95-6.15-3.46-9.9-4.5,5.03,2.61,9.13,6.51,10.9,11.96,3.84,11.78-3.4,20.35-13.26,24.28,9.42,5.11,22.52,9.87,21.3,22.35-1.26,12.89-13.02,21.33-25.15,23.21-11.52,1.78-28.32-.53-34.52-12.06-2.58-4.8-2.52-10.16,1.35-14.22.45-.47.91-.81,1.37-1.07-.69-.17-1.4-.26-2.12-.26-2.88,0-5.34.77-7.3,2.29-2.06,1.59-3.1,3.72-3.1,6.32,0,1.95.77,4.29,2.36,7.14,1.54,2.76,3.82,5.45,6.79,8,2.98,2.56,6.79,4.71,11.35,6.4,4.56,1.69,9.78,2.55,15.51,2.55s10.83-.74,15.49-2.21c4.67-1.47,8.78-3.55,12.2-6.17,3.44-2.64,6.1-5.71,7.88-9.11,1.79-3.41,2.7-7.01,2.7-10.68,0-3.09-.68-6.01-2.02-8.67Z"/>
          <path class="cls-2" d="m29.94,3.95c-7,1.02-12.95,3.62-18.3,8.29-2.45,2.14-7.18,7.76-3.4,10.89.24.19.68-.14.52-.41-2.71-4.82,4.63-9.73,7.94-11.88,4.17-2.71,8.54-3.88,13.22-5.43.68-.22,1-1.59.01-1.45Z"/>
          <path class="cls-2" d="m36.7,3.45c-.73,0-1.44-.05-2.11.27-.34.16-.86,1.04-.15,1.09.69.05,1.39-.06,2.09-.06.74,0,1.1-1.3.18-1.3Z"/>
          <path class="cls-2" d="m42.84,34.63c-4.1.54-8.24,1.14-12.34,1.81-1.82.3-4.63,1.43-4,3.74.1.38.52.18.65-.08,1.15-2.31,5.25-2.06,7.44-2.41,2.8-.45,5.94-.64,8.36-2.22.31-.21.44-.9-.11-.83Z"/>
          <path class="cls-2" d="m53.5,57.29c-.15-.25-.57,0-.5.25,2.47,9.78-5.21,18.7-15.29,17.61-.27-.03-.5.46-.19.48,5.18.43,10.41.13,14.12-3.87,3.35-3.62,4.4-10.18,1.86-14.47Z"/>
          <path class="cls-2" d="m52.49,53.6c-.29-.34-.57-.69-.89-1-.3-.29-.9.2-.7.55.3.53.64,1.04,1.03,1.51.35.42,1.07-.26.87-.69-.07-.16-.19-.27-.31-.37Z"/>
        </g>
      </g>
    </g>
  </g>
</svg>