<?xml version="1.0" encoding="UTF-8"?>
<svg xmlns="http://www.w3.org/2000/svg" viewBox="0 0 84.82 90.56">
  <defs>
    <style>
      .cls-1 {
        fill: #fff;
      }

      .cls-2 {
        mix-blend-mode: multiply;
      }

      .cls-2, .cls-3 {
        fill: #0090d0;
      }

      .cls-3 {
        stroke: #221f1f;
        stroke-linecap: round;
        stroke-linejoin: round;
        stroke-width: 1.35px;
      }

      .cls-4 {
        fill: none;
        isolation: isolate;
      }
    </style>
  </defs>
  <g class="cls-4">
    <g id="Layer_2" data-name="Layer 2">
      <g id="Layer_1-2" data-name="Layer 1">
        <g>
          <path class="cls-3" d="m80.1,56.46c-2.3-.85-5.36-1.28-9.09-1.28h-1.81V11.88c0-7.33-4.11-11.21-11.87-11.21-2.46,0-4.61.69-6.38,2.06-1.62,1.24-3.69,3.26-6.16,5.98L7.59,49.46c-1.03,1.12-1.9,2.06-2.6,2.82-.72.79-1.42,1.6-2.09,2.45-.72.91-1.27,1.79-1.63,2.62-.4.89-.59,1.8-.59,2.7,0,3.22,1.28,5.81,3.82,7.69,2.45,1.82,5.96,2.71,10.72,2.71h34.03v9.49c0,3.21.94,5.71,2.81,7.41,1.84,1.68,4.25,2.53,7.16,2.53s5.38-.83,7.2-2.46c1.85-1.67,2.78-4.19,2.78-7.47v-9.49h3.08c3.81,0,6.63-.55,8.6-1.68,2.14-1.22,3.28-3.26,3.28-5.9,0-4.06-2.2-5.73-4.05-6.42Zm-51.72-1.28l17.85-22.23-.2,22.23h-17.65Z"/>
          <path class="cls-2" d="m49.51,58.23c-.59-8.03.47-16,.04-24.03,0,0-.18-6.01-1.23-4.78-1.02,1.19-1.81,2.53-2.44,3.96l.35-.43-.2,22.23-17.08-1.65c-1.68.97-4.33,3.95-5.52,5.5,8.32.57,17.68-.43,26.08-.8Z"/>
          <path class="cls-2" d="m80.1,56.46c-2.3-.85-5.36-1.28-9.09-1.28h-1.81V11.88c0-7.33-4.11-11.21-11.87-11.21-2.46,0-4.61.69-6.38,2.06-.51.39-1.07.88-1.66,1.41.71-.11,1.42-.16,2.14-.11,5.2.39,8,2.34,10.09,6.96,2.76,6.11,1.14,15.39,1.23,21.78.12,8.33.02,16.66,0,25,3.84.11,10.7-.9,14.03,1.43,2.21,1.54,2.12,4.53-.2,5.96-3.01,1.85-9.22.88-12.53.7.82,6.84,1.1,18.6-6.76,19.7-4.8.67-7.17-3.93-8.03-8.44v2.83c0,3.21.94,5.71,2.81,7.41,1.84,1.68,4.25,2.53,7.16,2.53s5.38-.83,7.2-2.46c1.85-1.67,2.78-4.19,2.78-7.47v-9.49h3.08c3.81,0,6.63-.55,8.6-1.68,2.14-1.22,3.28-3.26,3.28-5.9,0-4.06-2.2-5.73-4.05-6.42Z"/>
          <path class="cls-1" d="m45.04,13.32c-9.21,9.05-17.83,18.67-26.9,27.86-4.94,5-16.89,14.53-13.47,22.66.45,1.07,2.02-.16,1.72-1.09-2.15-6.64,6.02-13.02,9.94-17.24,3.42-3.67,7.02-7.19,10.34-10.96,6.19-7.03,12.79-13.71,18.48-21.16.06-.07-.04-.13-.11-.07Z"/>
          <path class="cls-1" d="m8.96,65.61c-.13-.02-.27-.07-.41-.11-.13-.06-.25-.11-.38-.17-.35-.41-.97.25-.83.66,0,0,0,0,0,0-.03.12-.04.25.02.38.23.46.55.57,1.05.64,0-.01,0-.02,0-.03.8.06,1.42-1.22.53-1.36Z"/>
          <path class="cls-1" d="m53.33,74.82c-.05-1.19-.02-2.3-.4-3.45-.12-.37-.69.02-.65.32.32,2.46-.38,4.96.11,7.44.13.65.97.22,1.04-.25.21-1.34-.04-2.71-.1-4.06Z"/>
        </g>
      </g>
    </g>
  </g>
</svg>