<?xml version="1.0" encoding="UTF-8"?>
<svg xmlns="http://www.w3.org/2000/svg" viewBox="0 0 76.05 88.78">
  <defs>
    <style>
      .cls-1 {
        fill: #fff;
      }

      .cls-2 {
        fill: #f5c33a;
        mix-blend-mode: multiply;
      }

      .cls-3 {
        fill: #fff32a;
        stroke: #221f1f;
        stroke-linecap: round;
        stroke-linejoin: round;
        stroke-width: 1.35px;
      }

      .cls-4 {
        fill: none;
        isolation: isolate;
      }
    </style>
  </defs>
  <g class="cls-4">
    <g id="Layer_2" data-name="Layer 2">
      <g id="Layer_1-2" data-name="Layer 1">
        <g>
          <path class="cls-3" d="m72.72,45.54c-1.75-3.47-4.2-6.51-7.26-9.04-3.04-2.51-6.62-4.5-10.65-5.92-8.47-3-18.4-3.07-29.73,1.43l3.31-15.42h32.37c3.75,0,6.54-.67,8.55-2.05,2.11-1.46,3.19-3.42,3.19-5.82,0-3.67-2.11-8.04-12.16-8.04H23.28c-4.36,0-7.46.82-9.47,2.52-1.99,1.67-3.35,4.32-4.05,7.86l-5.9,27.54c-.8,3.74-.8,3.97-.8,4.16,0,2.11,1.06,3.99,3.14,5.58,1.98,1.52,4.28,2.29,6.84,2.29,10.12,0,23.38-9.78,31.72.59,1.61,2,2.74,5.68,2.27,8.26-1.26,6.95-8.32,12.91-15.6,12.43-3.48-.23-7.15-1.65-9.65-4.18-1.74-1.76-3.07-4.52-4.76-6.75-1.91-1.74-4.29-2.64-7.14-2.64-2.59,0-4.78.78-6.52,2.31-1.78,1.58-2.69,3.31-2.69,5.16,0,2.72,1.14,5.75,3.47,9.26,2.28,3.44,6.17,6.51,11.56,9.13,5.36,2.6,12.4,3.91,20.91,3.91,7.63,0,14.48-1.39,20.34-4.13,5.91-2.77,10.5-6.56,13.65-11.29,3.16-4.74,4.76-10.07,4.76-15.84,0-4.01-.89-7.81-2.66-11.3Z"/>
          <path class="cls-2" d="m66.21,2.92c1.79,2.56-.3,6.54-2.66,7.9-4.9,2.82-10.65,2.11-16.1,2.3-7.98.26-15.97.3-23.96.3-.38,4.26-1.69,8.41-2.4,12.67-.61,3.64-1.21,7.27-1.95,10.88,1.68-2.06,3.73-3.83,6.02-5.27l3.24-15.1h32.37c3.75,0,6.54-.67,8.55-2.05,2.11-1.46,3.19-3.42,3.19-5.82,0-3.14-1.56-6.79-8.32-7.78.75.53,1.44,1.15,2.03,1.99Z"/>
          <path class="cls-2" d="m72.72,45.54c-1.75-3.47-4.2-6.51-7.26-9.04-3.04-2.51-6.62-4.5-10.65-5.92-2.7-.96-5.56-1.57-8.56-1.87,10.11,2.29,18.54,8.89,21.07,20.48,2.81,12.92-3.5,24.89-15.25,30.81-10.56,5.32-25.04,7.34-35.63.9-6.51-3.96-12.24-9.84-12.2-17.9,0-1.47.49-2.7,1.24-3.71-.76.36-1.47.79-2.11,1.35-1.78,1.58-2.69,3.31-2.69,5.16,0,2.72,1.14,5.75,3.47,9.26,2.28,3.44,6.17,6.51,11.56,9.13,5.36,2.6,12.4,3.91,20.91,3.91,7.63,0,14.48-1.39,20.34-4.13,5.91-2.77,10.5-6.56,13.65-11.29,3.16-4.74,4.76-10.07,4.76-15.84,0-4.01-.89-7.81-2.66-11.3Z"/>
          <path class="cls-1" d="m20.35,4.05c-4.12,2.59-5.67,4.72-6.89,9.54-1.53,6.1-3.56,12.52-4.01,18.8-.09,1.17,1.28.7,1.63.02,1.68-3.31,2.07-7.37,2.93-10.99.79-3.32,1.59-6.62,2.46-9.91.83-3.16,2.21-4.51,4.32-6.81.35-.38.06-.96-.44-.65Z"/>
          <path class="cls-1" d="m10.36,36.26c.1-.63-.34-.82-.81-.75,0,0-.01,0-.02,0-.4.07-.81.33-.92.72-.14.46-.24.91-.23,1.39.02,1.05,1.68.49,1.81-.44h.02c.06-.31.11-.62.15-.93Z"/>
          <path class="cls-1" d="m32.78,42.11c-.22.03-.35.41-.06.4,9.26-.33,16.18,5.21,17.12,14.38,1.03,10.07-6.47,16.2-15.38,18.44-.68.17-.92,1.5,0,1.37,9.64-1.28,17.02-8.64,17.7-18.36.8-11.53-8.7-18.03-19.38-16.24Z"/>
        </g>
      </g>
    </g>
  </g>
</svg>