<?xml version="1.0" encoding="UTF-8"?>
<svg xmlns="http://www.w3.org/2000/svg" viewBox="0 0 63.72 88.67">
  <defs>
    <style>
      .cls-1 {
        fill: #fff;
      }

      .cls-2 {
        fill: none;
        isolation: isolate;
      }

      .cls-3 {
        fill: #00b5bd;
        mix-blend-mode: multiply;
      }

      .cls-4 {
        fill: #16aab4;
        stroke: #221f1f;
        stroke-linecap: round;
        stroke-linejoin: round;
        stroke-width: 1.35px;
      }
    </style>
  </defs>
  <g class="cls-2">
    <g id="Layer_2" data-name="Layer 2">
      <g id="Layer_1-2" data-name="Layer 1">
        <g>
          <path class="cls-4" d="m59.43,2.56c-2.22-1.27-5.61-1.88-10.35-1.88H6.37c-.39.12-.81.21-1.18.37-.51.22-.99.51-1.5.88-.43.32-.82.7-1.16,1.1-.02.02-.04.03-.04.05C.4,5.53-.09,9.22,2.1,12.1c3.45,4.55,9.84,4.4,14.92,4.47,5.37.08,10.74,0,16.12.02.5,0,3.56.41,3.95,0-5.11,5.49-9.63,11.06-13.46,16.6-4.3,6.22-7.93,12.36-10.8,18.27-2.88,5.93-4.98,11.09-6.25,15.33-1.29,4.31-1.95,7.79-1.95,10.35,0,3.51,1,6.24,2.98,8.09,1.95,1.84,4.54,2.77,7.7,2.77s5.95-.86,7.97-2.55c2.02-1.7,3.51-4.57,4.57-8.76.43-1.71.92-4.13,1.49-7.38.56-3.15,1.07-5.74,1.53-7.7.45-1.92,1.24-4.41,2.33-7.37,2.62-6.75,5.55-12.53,8.69-17.19,3.15-4.67,6.25-8.63,9.21-11.78,2.99-3.17,5.72-6.13,8.1-8.79,2.59-2.9,3.85-5.25,3.85-7.19,0-3.09-1.22-5.36-3.62-6.74Z"/>
          <path class="cls-3" d="m59.43,2.56c-1.24-.7-2.87-1.19-4.86-1.5,1.02.85,1.83,1.88,2.15,3.22,1,4.21-.48,8.31-3.08,11.68-4.97,6.45-10.86,11.88-15.35,18.77-4.48,6.88-8.48,14.11-10.61,22.08-2.51,9.38-4.03,27.4-16.42,28.96-1.21.15-2.24.07-3.14-.17,1.89,1.56,4.29,2.38,7.2,2.38,3.27,0,5.95-.86,7.97-2.55,2.02-1.7,3.51-4.57,4.57-8.76.43-1.71.92-4.13,1.49-7.38.56-3.15,1.07-5.74,1.53-7.7.45-1.92,1.24-4.41,2.33-7.37,2.62-6.75,5.55-12.53,8.69-17.19,3.15-4.67,6.25-8.63,9.21-11.78,2.99-3.17,5.72-6.13,8.1-8.79,2.59-2.9,3.85-5.25,3.85-7.19,0-3.09-1.22-5.36-3.62-6.74Z"/>
          <path class="cls-3" d="m33.14,16.59c.5,0,3.56.41,3.95,0-.19.2-.36.41-.55.61.99-.55.79-1.3,1.86-1.82.59-2.39,5.11-2.86-.65-2.87-.74-.01-1.48-.04-2.22-.08-2.33-.1-4.65-.18-6.98-.24-4.83-.12-9.71-.51-14.54-.31-3.82.17-11.95.33-12.28-5.43-.05-.9.05-1.76.21-2.6-1.59,2.41-1.8,5.65.17,8.25,3.45,4.55,9.84,4.4,14.92,4.47,5.37.08,10.74,0,16.12.02Z"/>
          <path class="cls-1" d="m34.18,25.89c-7.6,6.57-13.13,14.71-17.78,23.54-4.13,7.84-9.02,18.12-8.29,27.21.1,1.23,1.8.37,1.92-.47,2.95-19.34,12.84-34.79,24.51-50.02.21-.28-.15-.45-.36-.26Z"/>
          <path class="cls-1" d="m43.62,3.45c-8.38-.45-16.74-.46-25.12-.35-5.69.08-10.46-1.24-14.35,3.28-.18.21.03.44.25.25,4.29-4.01,12.08-2.05,17.62-2.2,7.1-.2,14.17.39,21.27.32.62,0,1.13-1.26.34-1.3Z"/>
        </g>
      </g>
    </g>
  </g>
</svg>