<?xml version="1.0" encoding="UTF-8"?>
<svg xmlns="http://www.w3.org/2000/svg" viewBox="0 0 76.75 90">
  <defs>
    <style>
      .cls-1 {
        fill: #fff;
      }

      .cls-2 {
        stroke: #221f1f;
        stroke-linecap: round;
        stroke-linejoin: round;
        stroke-width: 1.35px;
      }

      .cls-2, .cls-3 {
        fill: #f5a6c3;
      }

      .cls-4 {
        fill: none;
        isolation: isolate;
      }

      .cls-3 {
        mix-blend-mode: multiply;
      }
    </style>
  </defs>
  <g class="cls-4">
    <g id="Layer_2" data-name="Layer 2">
      <g id="Layer_1-2" data-name="Layer 1">
        <g>
          <path class="cls-2" d="m67.69,45.34c-2.06-1.61-4.55-3-7.42-4.15,3.51-1.75,6.29-3.89,8.28-6.37,2.53-3.16,3.81-6.8,3.81-10.81,0-3.13-.73-6.14-2.17-8.92-1.43-2.77-3.65-5.29-6.6-7.48-2.91-2.17-6.58-3.89-10.92-5.11-4.32-1.22-9.36-1.83-15-1.83-6.72,0-12.69,1.06-17.76,3.14-5.12,2.11-9.07,4.98-11.74,8.52-2.7,3.59-4.07,7.48-4.07,11.56,0,7.61,4.14,13.42,12.32,17.32C5.97,45.42.67,52.58.67,62.53c0,5.07,1.49,9.7,4.44,13.79,2.93,4.06,7.31,7.28,13.02,9.58,5.64,2.27,12.5,3.43,20.38,3.43s14.32-1.15,19.97-3.43c5.71-2.3,10.11-5.54,13.08-9.63,2.99-4.12,4.51-8.77,4.51-13.84,0-3.46-.71-6.67-2.12-9.53-1.42-2.86-3.52-5.39-6.27-7.54Zm-20.63-16.28c-.44.87-1.07,1.63-1.87,2.27-.82.66-1.83,1.17-3,1.54-1.18.38-2.52.57-3.98.57-2.86,0-5.21-.71-7-2.11-1.74-1.37-2.59-3.03-2.59-5.07,0-2.24.83-4.03,2.54-5.45,1.73-1.44,4.07-2.18,6.96-2.18,1.91,0,3.62.34,5.09,1.02,1.43.66,2.56,1.58,3.34,2.71.78,1.13,1.16,2.38,1.16,3.81,0,1.05-.22,2.03-.65,2.88Zm-17.77,27.5c2.33-1.65,5.28-2.49,8.76-2.49,2.48,0,4.75.39,6.73,1.15,1.97.76,3.44,1.8,4.52,3.2,1.06,1.37,1.59,3.02,1.59,4.88s-.54,3.54-1.59,4.97c-1.07,1.43-2.56,2.57-4.43,3.36-1.91.81-4.08,1.22-6.48,1.22s-4.53-.4-6.43-1.2c-1.88-.78-3.37-1.89-4.46-3.32-1.09-1.43-1.62-3.05-1.62-4.95,0-2.96,1.12-5.19,3.42-6.82Z"/>
          <path class="cls-3" d="m73.95,52.89c-1.42-2.86-3.52-5.39-6.27-7.54-2.06-1.61-4.55-3-7.42-4.15,3.51-1.75,6.29-3.89,8.28-6.37,2.53-3.16,3.81-6.8,3.81-10.81,0-3.13-.73-6.14-2.17-8.92-1.43-2.77-3.65-5.29-6.6-7.48-2.72-2.02-6.12-3.64-10.09-4.84,2.79,1.67,5.29,3.85,7.33,6.72,5.6,7.88,4.04,18.23-2.89,24.79-3.75,3.55-8.83,5.26-13.99,6.44,9.13,1.47,18.43,4.93,21.95,13.05,4.97,11.47-1.46,23.37-12.2,28.53-11.99,5.76-28.49,7.1-39.84-.97-6.47-4.6-11.93-12.95-13.01-21.26-.08.81-.17,1.6-.17,2.45,0,5.07,1.49,9.7,4.44,13.79,2.93,4.06,7.31,7.28,13.02,9.58,5.64,2.27,12.5,3.43,20.38,3.43s14.32-1.15,19.97-3.43c5.71-2.3,10.11-5.54,13.08-9.63,2.99-4.12,4.51-8.77,4.51-13.84,0-3.46-.71-6.67-2.12-9.53Z"/>
          <path class="cls-3" d="m37.06,51.8c-2.3.43-4.73.96-6.8,2.09-1.24.59-2.32,1.4-3.25,2.44-.08,1.04-.05,1.9.04,2.66.56-.92,1.27-1.74,2.25-2.43,2.33-1.65,5.28-2.49,8.76-2.49,2.48,0,4.75.39,6.73,1.15,1.97.76,3.44,1.8,4.52,3.2,1.06,1.37,1.59,3.02,1.59,4.88s-.54,3.54-1.59,4.97c-1.07,1.43-2.56,2.57-4.43,3.36-.89.38-1.85.66-2.85.86,1.5.16,3.02.09,4.48-.32,6.18-1.72,9.93-9.03,5.65-14.77-3.43-4.6-9.46-6.66-15.08-5.6Z"/>
          <path class="cls-3" d="m31.16,20.81c1.73-1.44,4.07-2.18,6.96-2.18,1.91,0,3.62.34,5.09,1.02,1.43.66,2.56,1.58,3.34,2.71.78,1.13,1.16,2.38,1.16,3.81,0,1.05-.22,2.03-.65,2.88-.44.87-1.07,1.63-1.87,2.27-.69.55-3.84,2.13-4.78,2.48,4.26.33,10.58-2.43,11.66-7.27,1.56-7.06-5.97-11.04-11.95-10.62-2.67.19-5.65.72-7.88,2.33-.97.61-1.81,1.37-2.53,2.27-1.27,1.32-1.47,2.46-.69,3.42.4-1.2,1.08-2.25,2.15-3.14Z"/>
          <path class="cls-1" d="m22.55,36.12c-5.72-3.33-11.42-5.72-11.14-13.53.23-6.5,5.74-12.17,10.75-15.54.17-.12.15-.4-.1-.33-15.76,4.22-19.28,29-.27,30.87.7.07,1.55-1,.75-1.46Z"/>
          <path class="cls-1" d="m23.44,42.93c-11.64,2.87-24.43,13.09-18.11,26.2.35.73,1.51-.02,1.38-.69-1.42-6.77-.6-11.96,4.2-17.2,3.41-3.72,8.13-5.97,12.56-8.2.07-.03.05-.13-.03-.11Z"/>
          <path class="cls-1" d="m8.23,71.89c-.3-.4-.61-.79-1.01-1.1-.33-.27-.89.18-.71.56.28.61.35,1.11.96,1.45.5.29,1.07-.49.76-.91Z"/>
        </g>
      </g>
    </g>
  </g>
</svg>