<?xml version="1.0" encoding="UTF-8"?>
<svg xmlns="http://www.w3.org/2000/svg" viewBox="0 0 77.17 89.88">
  <defs>
    <style>
      .cls-1 {
        fill: #fff;
      }

      .cls-2 {
        mix-blend-mode: multiply;
      }

      .cls-2, .cls-3 {
        fill: #ee4736;
      }

      .cls-4 {
        fill: none;
        isolation: isolate;
      }

      .cls-3 {
        stroke: #221f1f;
        stroke-linecap: round;
        stroke-linejoin: round;
        stroke-width: 1.35px;
      }
    </style>
  </defs>
  <g class="cls-4">
    <g id="Layer_2" data-name="Layer 2">
      <g id="Layer_1-2" data-name="Layer 1">
        <g>
          <path class="cls-3" d="m66.14,11.6c-3.34-3.55-7.51-6.29-12.38-8.15-4.84-1.85-10.42-2.78-16.57-2.78-5.35,0-10.31.76-14.74,2.25-4.45,1.49-8.35,3.61-11.59,6.3-3.26,2.71-5.8,5.96-7.54,9.64-1.75,3.69-2.64,7.64-2.64,11.76,0,3.83.79,7.54,2.35,11.04,1.56,3.49,3.82,6.59,6.71,9.2,2.88,2.6,6.35,4.65,10.29,6.1,3.93,1.44,8.22,2.17,12.73,2.17,4.76,0,9.17-.79,13.11-2.35,3.04-1.21,5.88-2.88,8.48-4.99.21,1.71-.86,5.53-1.15,6.65-.59,2.25-1.42,4.43-2.53,6.47-2.25,4.14-5.77,7.91-10.56,8.88-3.63.74-7.65.31-10.98-1.35-3.86-1.92-5.69-6.21-9.4-8.34-1.81-1.04-3.88-1.57-6.14-1.57-2.53,0-4.66.74-6.34,2.19-1.72,1.5-2.59,3.25-2.59,5.22,0,2.89,1.27,5.88,3.78,8.91,2.45,2.95,6.06,5.45,10.71,7.41,4.62,1.95,10.11,2.94,16.33,2.94s12.01-.97,17-2.87c5.02-1.92,9.39-4.88,12.98-8.82,3.59-3.93,6.36-8.84,8.23-14.58,1.86-5.72,2.8-12.39,2.8-19.83,0-6.68-.89-12.77-2.66-18.09-1.78-5.36-4.37-9.87-7.7-13.41Zm-30.86,6.68c2.2,0,4.26.33,6.11,1,1.85.66,3.46,1.58,4.8,2.73,1.33,1.15,2.38,2.54,3.11,4.12.74,1.59,1.12,3.36,1.12,5.25,0,2.29-.7,4.29-2.09,5.97-1.4,1.7-3.25,3.01-5.49,3.9-2.27.9-4.68,1.36-7.16,1.36-4.08,0-7.34-1.06-9.99-3.25-2.64-2.18-3.92-5.05-3.92-8.77s1.28-6.69,3.93-8.94c2.64-2.26,5.78-3.35,9.59-3.35Z"/>
          <path class="cls-2" d="m31.34,15.32c-3.05.76-6.57,1.93-8.67,4.49-1.46,1.79-2.9,4.08-2.96,6.5-.33,2.51.41,4.57,2.22,6.18-.09-.62-.17-1.24-.17-1.91,0-3.76,1.28-6.69,3.93-8.94,2.64-2.26,5.78-3.35,9.59-3.35,2.2,0,4.26.33,6.11,1,1.85.66,3.46,1.58,4.8,2.73,1.33,1.15,2.38,2.54,3.11,4.12.74,1.59,1.12,3.36,1.12,5.25,0,2.29-.7,4.29-2.09,5.97-1.4,1.7-3.25,3.01-5.49,3.9-2.27.9-4.68,1.36-7.16,1.36-.02,0-.04,0-.06,0,4.4.65,9.26-.05,12.41-2.1,5.73-3.72,7.78-12.43,3.64-18.21-4.7-6.56-12.58-8.88-20.31-6.96Z"/>
          <path class="cls-2" d="m73.84,25.01c-1.78-5.36-4.37-9.87-7.7-13.41-3.34-3.55-7.51-6.29-12.38-8.15-4.84-1.85-10.42-2.78-16.57-2.78-5.35,0-10.31.76-14.74,2.25-4.45,1.49-8.35,3.61-11.59,6.3-3.26,2.71-5.8,5.96-7.54,9.64-1,2.1-1.69,4.3-2.12,6.56C6.93,9.37,24.56-.45,42.38,3.76c20.68,4.88,30.4,24.05,28.22,44.42-1.06,9.87-4.23,18.96-11.35,26.07-6.81,6.8-17.12,11.02-26.7,11.39-7.94.31-18.14-3.13-23.11-10.65-2.44-3.7-3.21-7.64-1.51-10.75-.22.16-.46.3-.67.48-1.72,1.5-2.59,3.25-2.59,5.22,0,2.89,1.27,5.88,3.78,8.91,2.45,2.95,6.06,5.45,10.71,7.41,4.62,1.95,10.11,2.94,16.33,2.94s12.01-.97,17-2.87c5.02-1.92,9.39-4.88,12.98-8.82,3.59-3.93,6.36-8.84,8.23-14.58,1.86-5.72,2.8-12.39,2.8-19.83,0-6.68-.89-12.77-2.66-18.09Z"/>
          <path class="cls-1" d="m19.1,9.09c-6.22,1.35-10.02,7.09-12.51,12.51-3.46,7.55-1.14,15.22,3.32,21.64.22.32.73-.19.61-.49-4.88-12.26-3.79-26.2,8.61-33.33.13-.07.17-.38-.04-.33Z"/>
          <path class="cls-1" d="m15.44,48.11c-.5-.52-.98-.82-1.38-1.44-.35-.54-1.04-.07-1.15.42-.23,1.09,1.06,1.42,1.77,1.92.43.3,1.19-.58.75-.9Z"/>
          <path class="cls-1" d="m37.23,77.27c-4.3-.32-8.58-1.04-12.01-3.81-2.42-1.96-3.74-4.85-6.19-6.79-2.69-2.13-6.83-2.2-9.03.45-.24.29-.06.72.33.48,5.58-3.53,11.11,4.97,14.85,7.83,3.19,2.44,8.1,3.13,11.91,2.42.23-.05.54-.55.15-.58Z"/>
        </g>
      </g>
    </g>
  </g>
</svg>