<?xml version="1.0" encoding="UTF-8"?>
<svg id="Layer_2" data-name="Layer 2" xmlns="http://www.w3.org/2000/svg" viewBox="0 0 195.81 203.27">
  <defs>
    <style>
      .cls-1 {
        fill: #f96767;
      }
    </style>
  </defs>
  <g id="Layer_1-2" data-name="Layer 1">
    <path class="cls-1" d="m195.81,146.15H55.21c-17.01,0-30.69-6.84-41.04-20.52C4.92,113.24.21,98.26.02,80.7c-.19-7.95.83-16.08,3.05-24.4,2.22-8.32,5.55-16.82,9.98-25.51,3.88-7.4,7.86-11.46,11.92-12.2,1.48,0,2.73.65,3.74,1.94,1.02,1.29,1.53,2.96,1.53,4.99,0,.74-.23,1.94-.69,3.61-.46,1.66-1.16,4.07-2.08,7.21,0,.37-.18,1.2-.55,2.5v3.33c0,4.99,1.71,9.71,5.13,14.14,3.42,4.44,7.53,6.66,12.34,6.66h125.07c-.74-3.33-3.33-8.41-7.76-15.25-1.48-2.03-3.33-4.71-5.55-8.04-1.48-2.03-4.16-5.36-8.04-9.98L182.77,0c7.03,18.3,11.09,33.65,12.2,46.03v7.76c.18,4.62.46,9.61.83,14.98v77.37h0Zm-90.13,12.85l23.11,21.17-21.17,23.11-23.53-21.54,21.58-22.74h0Z"/>
  </g>
</svg>