<?xml version="1.0" encoding="UTF-8"?>
<svg id="Layer_2" data-name="Layer 2" xmlns="http://www.w3.org/2000/svg" viewBox="0 0 104.63 160.3">
  <defs>
    <style>
      .cls-1 {
        fill: #ba154f;
      }
    </style>
  </defs>
  <g id="Layer_1-2" data-name="Layer 1">
    <path class="cls-1" d="m99,153.08c-5.55,4.99-18.67,7.4-39.38,7.21H18.86c-4.44,0-8.27-1.48-11.51-4.44-3.24-3-5.04-6.7-5.41-11.14l-1.39-18.35-.55-21.45v-23.66c0-3.33.92-4.99,2.77-4.99,0,0,1.39.46,4.16,1.39l3.33,1.11c4.07,1.29,8.78,2.4,14.14,3.33,3.51.55,8.5.83,14.97.83,5.73,0,12.48-.55,20.24-1.66,4.99-.74,9.34-1.76,13.03-3.05-.92-4.99-3.61-12.29-8.04-21.91-5.18-11.28-9.34-16.92-12.48-16.92l-.83.55c-1.66,1.66-3.14,2.87-4.44,3.61-.18,0-.51.09-.97.28-.46.18-.97.32-1.53.42-.55.09-1.02.23-1.39.42-2.4-.18-3.61-1.66-3.61-4.44,0-.92.28-2.13.83-3.6l4.16-10.82c1.48-3.88,2.96-7.26,4.44-10.12,1.48-2.87,3.6-5.96,6.38-9.29,3.33-4.25,6.56-6.38,9.71-6.38,2.59,0,5.36,1.66,8.32,4.99,8.5,9.8,15.53,21.91,21.08,36.33,4.44,11.65,7.58,23.94,9.43,36.88v7.21c0,3.51.09,5.82.28,6.93l.55,24.96c.37,13.5-.46,23.48-2.5,29.95-.74,2.4-1.76,4.34-3.05,5.82h0Z"/>
  </g>
</svg>