<?xml version="1.0" encoding="UTF-8"?>
<svg id="Layer_2" data-name="Layer 2" xmlns="http://www.w3.org/2000/svg" viewBox="0 0 198.84 208.54">
  <defs>
    <style>
      .cls-1 {
        fill: #490b3e;
      }
    </style>
  </defs>
  <g id="Layer_1-2" data-name="Layer 1">
    <path class="cls-1" d="m150.31,0l22.79,21.12-20.61,22.88-23.34-20.89L150.31,0h0ZM55.46,208.54c-15.53,0-28.66-6.1-39.38-18.3S0,162.23,0,142.82c0-8.13,1.02-16.18,3.05-24.13,6.1-23.85,13.5-36.42,22.19-37.72,1.29,0,2.45.69,3.47,2.08,1.02,1.39,1.52,3,1.52,4.85,0,1.11-.28,2.5-.83,4.16-1.66,4.25-2.59,8.41-2.77,12.48-.19,4.81,1.52,9.48,5.13,14,3.61,4.53,7.72,6.79,12.34,6.79h100.11c-10.72-8.87-16.08-16.92-16.08-24.13l.28-2.77c.37-1.11.79-2.31,1.25-3.61.46-1.29,1.71-3.79,3.74-7.49.92-1.29,2.59-3.51,4.99-6.66l9.43-11.92c1.85-2.22,4.62-4.99,8.32-8.32,2.4-1.66,5.08-2.68,8.04-3.05,13.68,0,23.94,13.59,30.78,40.77,2.59,10.17,3.88,19.23,3.88,27.18v83.19H55.46Zm121.19-84.3c-2.4-21.45-7.49-32.54-15.25-33.28l-1.39.28-1.66.83c-2.96,1.48-4.44,4.62-4.44,9.43,0,9.98,7.58,17.56,22.74,22.74h0Z"/>
  </g>
</svg>