<?xml version="1.0" encoding="UTF-8"?>
<svg id="Layer_2" data-name="Layer 2" xmlns="http://www.w3.org/2000/svg" viewBox="0 0 100.94 261.79">
  <defs>
    <style>
      .cls-1 {
        fill: #c54d57;
      }
    </style>
  </defs>
  <g id="Layer_1-2" data-name="Layer 1">
    <path class="cls-1" d="m52.14,0l22.97,21.31-21.49,23.16-23.16-21.08L52.14,0h0Zm-4.44,261.79c-15.16.18-27.18-5.55-36.05-17.19-7.77-10.54-11.65-23.66-11.65-39.38,0-14.05,3.14-27.08,9.43-39.1,6.66-12.76,15.9-22.28,27.73-28.56-5.73-3.51-11.09-8.04-16.08-13.59-5.92-6.66-8.97-13.22-9.15-19.69,0-1.48.05-2.54.14-3.19.09-.65.51-1.71,1.25-3.19,5.55-11.28,12.76-19.78,21.63-25.51,7.76-4.99,15.9-7.49,24.4-7.49,5.55,0,10.12.97,13.73,2.91,3.6,1.94,5.96,4.58,7.07,7.9l8.04,23.02v.83l.28,1.11c0,1.11-.55,1.85-1.66,2.22-.55,0-1.57-.55-3.05-1.66-.18-.19-.83-.55-1.94-1.11-3.33-1.11-7.3-1.76-11.92-1.94-9.61-.37-17.29,2.03-23.02,7.21.92,3.88,3.24,7.49,6.93,10.82,3.7,3.33,7.58,4.99,11.65,4.99l2.22-.28,10.82-4.16c1.29-.55,3.51-1.29,6.66-2.22,1.66-.55,3.97-1.29,6.93-2.22l2.5,7.76c.19,2.03.46,4.71.83,8.04.19,2.03.28,4.62.28,7.76v3.88c0,1.29-.55,2.77-1.66,4.44-12.2,0-22.65,1.94-31.34,5.82-11.46,5.18-17.19,13.13-17.19,23.85,0,6.66,2.4,12.66,7.21,18.03,4.25,4.62,10.91,7.86,19.97,9.71l2.77.55h2.77c6.84,0,12.11-1.02,15.81-3.05l3.05-1.66c1.11-.55,2.03-.83,2.77-.83.55,0,.92.37,1.11,1.11,0,0-.37,1.11-1.11,3.33l-3.33,5.82-9.71,20.24c-10.91,22.92-23.94,34.48-39.1,34.66h0Z"/>
  </g>
</svg>