<?xml version="1.0" encoding="UTF-8"?>
<svg xmlns="http://www.w3.org/2000/svg" viewBox="0 0 154 75.85">
  <defs>
    <style>
      .cls-1 {
        fill: #c4c6c8;
      }

      .cls-2, .cls-3, .cls-4 {
        fill: #d8d9da;
      }

      .cls-2, .cls-5 {
        mix-blend-mode: multiply;
      }

      .cls-6 {
        fill: #0065b2;
      }

      .cls-7 {
        fill: #add137;
      }

      .cls-4 {
        mix-blend-mode: screen;
      }

      .cls-8, .cls-5 {
        fill: #8f7c80;
      }

      .cls-9 {
        fill: none;
        isolation: isolate;
      }
    </style>
  </defs>
  <g class="cls-9">
    <g id="Layer_2" data-name="Layer 2">
      <g id="Layer_1-2" data-name="Layer 1">
        <g>
          <g>
            <g>
              <path class="cls-3" d="m116.88,6.55c-.56.69-1.09,1.41-1.64,2.13-1.04,1.35-2.2,2.62-3.42,3.8-2.84,2.74-5.96,5.21-9.14,7.56-3.31,2.45-6.84,4.83-10.77,6.16-3.92,1.33-8.18,1.86-12.27,2.39-11.54,1.49-24.37-3.27-35.93-1.64-4.55,1.65-15.81,15.02-15.81,15.02l-9.15,13.01c1.32.71,2.6,1.49,3.89,2.27,3.82,2.34,7.85,4.28,11.91,6.18,4.31,2.02,12.44,9.27,16.99,10.67,9.17,2.82,53.27-1.37,83.82-10.28,4.12-1.2,8.13-6.19,12.23-7.48.49-.15.98-.3,1.47-.45-6.19-28.74-28.06-46.73-32.19-49.33Z"/>
              <path class="cls-6" d="m61.38,75.85h0c-4.73,0-8.13-.31-10.09-.91-2.73-.84-6.5-3.54-10.15-6.16-2.66-1.91-5.18-3.72-6.96-4.55-4.13-1.94-8.15-3.87-12-6.23-1.21-.74-2.51-1.53-3.84-2.25-.22-.12-.38-.33-.44-.57-.06-.25,0-.5.14-.71l9.15-13.01s.03-.04.05-.06c.47-.55,11.46-13.57,16.18-15.28.06-.02.12-.04.18-.04,1.68-.24,3.44-.35,5.37-.35,4.29,0,8.73.58,13.03,1.15,4.23.56,8.61,1.13,12.77,1.13,1.71,0,3.27-.09,4.76-.29l.3-.04c3.96-.51,8.06-1.04,11.8-2.31,3.84-1.3,7.33-3.67,10.53-6.03,3.82-2.82,6.61-5.13,9.05-7.48,1.24-1.19,2.36-2.44,3.34-3.71.18-.24.36-.48.54-.71.37-.49.73-.97,1.11-1.44.28-.35.78-.43,1.15-.19,5.34,3.36,26.5,21.66,32.58,49.89.1.45-.17.89-.6,1.03-.49.15-.98.3-1.46.45-1.87.59-3.84,2.1-5.74,3.57-2.09,1.61-4.25,3.27-6.5,3.92-24.01,7-56.6,11.18-74.24,11.18Zm-41.33-21.17c1.06.6,2.09,1.22,3.06,1.82,3.77,2.31,7.74,4.22,11.82,6.14,1.93.91,4.51,2.76,7.24,4.71,3.37,2.42,7.19,5.15,9.64,5.91,1.77.54,5.08.83,9.57.83,17.51,0,49.89-4.16,73.75-11.11,1.93-.56,3.96-2.12,5.92-3.63,2.03-1.56,4.12-3.17,6.29-3.85.23-.07.47-.15.7-.22-5.93-26.13-24.93-43.37-30.96-47.54-.19.25-.39.51-.58.76-.18.24-.37.48-.55.72-1.03,1.33-2.21,2.64-3.51,3.9-2.5,2.41-5.35,4.76-9.23,7.63-3.31,2.45-6.94,4.9-11.01,6.28-3.9,1.32-8.09,1.86-12.14,2.39l-.3.04c-1.57.2-3.2.3-4.99.3-4.27,0-8.71-.58-13-1.15-4.24-.56-8.63-1.13-12.8-1.13-1.81,0-3.46.1-5.03.32-3.59,1.41-12.24,11.04-15.33,14.7l-8.56,12.17Z"/>
            </g>
            <g>
              <path class="cls-7" d="m126.57,57.82c-.19-6.97-2.31-13.49-5-19.78-5.3-12.42-12.72-18.59-15.59-20.53-1.09.86-2.19,1.71-3.31,2.53-3.31,2.45-6.84,4.83-10.77,6.16-3.92,1.33-8.18,1.86-12.27,2.39-10.13,1.31-21.24-2.19-31.62-1.97,1.09.48,2.14,1.06,3.09,1.71,2.24,1.55,3.33,4.58,4.03,7.09.88,3.12,1.39,6.35,2.07,9.52.49,2.28.74,4.61.84,6.93.25,5.65-.16,11.53-1.87,16.95-.62,1.97-1.44,3.96-2.55,5.73,10.96,1.61,43.54-1.43,70.72-7.84,1.22-2.86,2.29-5.75,2.21-8.88Z"/>
              <path class="cls-6" d="m61.38,75.85h0c-3.25,0-5.9-.15-7.86-.44-.3-.04-.55-.23-.67-.5-.12-.27-.1-.59.05-.84.95-1.51,1.77-3.37,2.45-5.52,1.49-4.73,2.11-10.33,1.83-16.64-.11-2.48-.38-4.7-.82-6.79-.21-.99-.41-1.99-.61-2.99-.42-2.14-.86-4.35-1.45-6.47-.65-2.34-1.67-5.21-3.69-6.6-.88-.61-1.87-1.16-2.95-1.63-.38-.17-.59-.57-.51-.98.08-.41.43-.7.85-.71,4.59-.1,9.37.53,13.99,1.14,4.23.56,8.61,1.13,12.77,1.13,1.71,0,3.27-.09,4.76-.29l.3-.04c3.96-.51,8.06-1.04,11.8-2.31,3.84-1.3,7.33-3.67,10.53-6.03,1.04-.77,2.11-1.59,3.29-2.51.3-.24.72-.25,1.04-.04,2.3,1.56,10.25,7.66,15.91,20.91,2.25,5.27,4.86,12.32,5.07,20.11.09,3.38-1.08,6.42-2.28,9.25-.11.26-.34.45-.61.51-23.07,5.44-49.25,8.29-63.19,8.29Zm-6.3-2.02c1.7.17,3.81.26,6.3.26h0c13.75,0,39.52-2.8,62.35-8.14,1.06-2.53,2.04-5.23,1.97-8.1-.2-7.49-2.74-14.33-4.93-19.46-5.09-11.93-12.04-17.82-14.75-19.78-.99.77-1.91,1.48-2.81,2.14-3.31,2.45-6.94,4.9-11.01,6.28-3.9,1.32-8.09,1.86-12.14,2.39l-.3.04c-1.57.2-3.2.3-4.99.3-4.27,0-8.71-.58-13-1.15-3.38-.44-6.84-.9-10.22-1.07.02.02.05.03.07.05,2.48,1.72,3.65,4.95,4.38,7.58.61,2.18,1.05,4.43,1.48,6.6.19.99.39,1.98.6,2.97.47,2.18.75,4.5.86,7.08.29,6.52-.35,12.32-1.91,17.25-.57,1.8-1.21,3.36-1.95,4.75Z"/>
            </g>
            <path class="cls-6" d="m72.53,40.57c.97.79,1.95,1.56,2.95,2.31,4.83,3.63,9.71,7.22,14.72,10.59,2.31,1.55,4.86,2.89,7.49,3.98,2.05.69,4.16,1.12,6.4,1.18,2.88.08,5.99-.59,6.62-3.18-.16-.14-.42-.13-.68.13-3.14,3.12-7.75.48-11.13-.78-4.6-1.71-8.49-4.38-12.54-7.1-4.12-2.77-8.3-5.47-12.36-8.32-2.65-1.86-5.5-4.07-8.44-5.44,2.27,2.24,4.59,4.46,6.97,6.62Z"/>
            <path class="cls-6" d="m104.01,25.41c-.68,6.67-2.12,13.3-2.7,19.96-.07.84.98.22,1.11-.25,1.7-6.42,1.99-13.31,2.04-19.92,0-.28-.43.04-.44.22Z"/>
            <path class="cls-2" d="m116.88,6.55c-.56.69-1.09,1.41-1.64,2.13-.26.34-.54.68-.81,1.01.69.52,1.34,1.09,1.94,1.74,2,2.18,3.63,4.76,5.12,7.3,1.6,2.73,3.13,5.5,4.41,8.4,1.43,3.23,2.83,6.57,3.99,9.91.66,1.91,1.16,3.93.39,5.88-.89,2.25-3.25,3.81-5.22,5.02-3.01,1.85-6.26,3.5-9.76,4.13-6.92,1.25-14.2-.85-20.84-2.67-6.67-1.82-13.4-4.05-19.4-7.56,7.16,7.18,15.17,13.69,23.75,19.05.19.12.2.5-.07.54-4.04.61-8.3.34-12.37.21-4.74-.14-9.48-.45-14.18-1.06-3.21-.42-6.52-.77-9.65-1.62-2.35-.64-4.72-1.65-6.34-3.54-1.97-2.28-2.56-4.98-3.23-7.84-1.61-6.9-5.07-15.32-13.49-15.2-.99.01-2.04.1-3.05.31-4.31,4.26-8.51,9.25-8.51,9.25l-9.15,13.01c1.32.71,2.6,1.49,3.89,2.27,3.82,2.34,7.85,4.28,11.91,6.18,4.31,2.02,12.44,9.27,16.99,10.67,9.17,2.82,53.27-1.37,83.82-10.28,4.12-1.2,8.13-6.19,12.23-7.48.49-.15.98-.3,1.47-.45-6.19-28.74-28.06-46.73-32.19-49.33Z"/>
          </g>
          <g>
            <path class="cls-3" d="m113.05,10.35s21.21,8.49,26.83,50.08c0,0,.4,2.85,3.54,2.85l7.69-2.2s2.81-1.18,1.8-5.45c-1-4.28-10.22-45.39-28.87-54.42,0,0-2-.71-5.21,0-3.21.71-8.18,7.71-5.78,9.15Z"/>
            <path class="cls-6" d="m143.41,64.15c-3.09,0-4.23-2.36-4.41-3.6-5.48-40.61-26.07-49.3-26.28-49.38-.04-.02-.08-.04-.12-.06-.49-.29-1.27-1.03-1.01-2.66.46-2.83,4.09-7.44,7.05-8.1,1.01-.22,2.01-.34,2.97-.34,1.65,0,2.62.33,2.73.37.03.01.06.02.09.04,7.88,3.82,15.01,13.48,21.19,28.73,2.18,5.38,5.35,14.25,8.08,25.98l.07.3c.93,3.96-1.11,5.96-2.32,6.47-.03.01-.06.02-.1.03l-7.69,2.2c-.08.02-.16.03-.24.03Zm-29.95-54.59c.75.32,5.84,2.68,11.57,9.67,5.55,6.77,12.78,19.39,15.71,41.08.03.2.38,2.02,2.55,2.08l7.5-2.15c.27-.14,2.02-1.18,1.26-4.42l-.07-.3c-2.44-10.51-11.7-45.4-28.27-53.49-.17-.05-.92-.26-2.11-.26-.83,0-1.7.1-2.59.3-2.01.45-5.31,4.31-5.69,6.66-.07.43-.02.72.14.84Z"/>
          </g>
          <path class="cls-4" d="m140.43,46.28c-.53-2.31-1.09-4.62-1.73-6.91-1.31-4.68-2.89-9.31-5.14-13.63-2.21-4.23-4.97-8.55-8.38-11.91-1.65-1.63-3.53-3.33-5.77-4.1-1.42-.49-2.89-.74-4.36-.96,2.43,1.17,15.53,8.46,22.84,32.89.33.57.65,1.15.97,1.73.53.97,1.05,1.95,1.57,2.92,0,0,0-.01,0-.02Z"/>
          <path class="cls-2" d="m152.9,55.62c-1-4.28-10.22-45.39-28.87-54.42,0,0-2-.71-5.21,0-1.26.28-2.8,1.54-4.05,3.05.86-.38,1.81-.59,2.65-.6,6.38-.07,10.88,6.69,13.84,11.5,4.02,6.53,7.9,13.37,10.56,20.58,1.29,3.5,2.44,7.2,2.95,10.92.31,2.24,0,5.78-2.8,6.3-1.07.2-1.83-1.08-2.21-1.86-.87-1.76-1.83-3.48-2.78-5.21,0,0,0,0,0-.01,1.17,4.34,2.17,9.17,2.89,14.57,0,0,.4,2.85,3.54,2.85l7.69-2.2s2.81-1.18,1.8-5.45Z"/>
          <path class="cls-6" d="m143.75,63.51c-1.06,0-1.99-.19-2.68-.69-.51-.36-1.12-1.07-1.18-2.35-.07-1.57,1.1-3.05,3.13-3.98,2.88-1.32,7.4-1.38,10.53,1.58.35.33.37.89.03,1.25-.33.35-.89.37-1.25.03-2.54-2.4-6.23-2.34-8.59-1.26-1.33.61-2.13,1.49-2.1,2.3.03.63.27.87.45,1,1.12.8,4.2.1,6.22-.45-1.05-.2-2.42-.39-3.65-.5-.48-.04-.84-.47-.8-.96.04-.48.48-.84.96-.8,6.51.6,6.6,1.52,6.66,2.13.1,1.03-1.13,1.38-1.65,1.53-2.06.59-4.27,1.16-6.09,1.16Z"/>
          <path class="cls-4" d="m44.21,30.41s5.09-2.55,10.77-.59c5.68,1.96,23.11,3.92,34.67.39,11.56-3.53,25.46-15.67,25.46-15.67l7.44,7.83-18.21,10.77v-6.66s-4.5,7.25-14.1,10.77c-9.6,3.53-24.67-3.31-24.67-3.31l3.91,6.64s-16.26-9.79-25.27-10.18Z"/>
          <g>
            <g>
              <path class="cls-8" d="m45.97,54.51c1.45-10.78-1.95-20.13-7.61-20.89-.09-.01-.17,0-.25,0h0s-.17,0-.17,0c-.36-.02-.72,0-1.08.04l-26.18,1.96-3.31,31.59,25.14,5.34c.2.05.39.09.59.12.14.02.28,0,.41.02l.22.03v-.02c5.45.1,10.84-7.78,12.24-18.16Z"/>
              <path class="cls-6" d="m33.72,73.57s-.07,0-.1,0l-.19-.02c-.15,0-.3,0-.45-.02-.24-.03-.46-.08-.69-.13l-25.11-5.34c-.44-.09-.74-.51-.69-.95l3.31-31.59c.04-.42.39-.76.81-.79l26.18-1.96c.33-.05.75-.07,1.15-.05h.13c.07,0,.14,0,.21.01.07,0,.13,0,.19.01,6.23.84,9.91,10.45,8.37,21.89-1.45,10.75-7.01,18.87-12.95,18.92-.06.01-.12.02-.18.02Zm-.38-1.8c.09,0,.15,0,.22,0,.02,0,.04,0,.06,0h.04s.06,0,.09,0h.09c5,0,9.95-7.64,11.26-17.39,1.36-10.1-1.78-19.22-6.86-19.9-.09,0-.15,0-.21,0-.01,0-.03,0-.04,0h-.02s-.06,0-.08,0c-.3-.02-.61,0-.91.04l-25.5,1.91-3.15,30.06,24.36,5.18c.19.05.36.08.53.1.04,0,.08,0,.12,0Z"/>
            </g>
            <path class="cls-5" d="m32.73,58.88c-2.89-.61-6.27-1.45-8.64-3.32-1.26-1-2.05-2.4-2.67-3.86-1.59-3.77-2-7.94-3.65-11.7-.74-1.69-1.76-3.44-3.43-4.37-.19-.1-.38-.19-.57-.27l-3.1.23-3.31,31.59,25.14,5.34c.2.05.39.09.59.12.14.02.28,0,.41.02l.22.03v-.02c4.33.08,8.63-4.89,10.91-12.15-3.96-.58-8.01-.82-11.9-1.64Z"/>
            <g>
              <path class="cls-1" d="m17.7,52.49c-1.14,8.71-5.77,15.29-10.34,14.7C2.79,66.59,0,59.04,1.14,50.33c1.14-8.71,5.77-15.29,10.34-14.7,4.57.6,7.36,8.14,6.22,16.86Z"/>
              <path class="cls-6" d="m7.94,68.11c-.23,0-.46-.02-.69-.05-2.55-.33-4.67-2.45-5.97-5.95-1.22-3.32-1.58-7.54-1.02-11.89,1.15-8.84,5.73-15.5,10.64-15.5.23,0,.46.02.69.05,5.13.67,8.2,8.51,6.98,17.85-1.15,8.84-5.72,15.5-10.64,15.5Zm2.96-31.63c-3.9,0-7.88,6.27-8.89,13.97-.53,4.08-.2,8,.92,11.05,1.06,2.86,2.67,4.57,4.54,4.82,4.05.53,8.31-5.93,9.35-13.94,1.05-8.08-1.45-15.35-5.46-15.87-.15-.02-.31-.03-.46-.03Z"/>
            </g>
            <g>
              <path class="cls-8" d="m15.11,52.15c-.73,5.63-3.73,9.88-6.68,9.49-2.96-.39-4.76-5.26-4.02-10.89.73-5.63,3.73-9.88,6.68-9.49,2.96.39,4.75,5.26,4.02,10.89Z"/>
              <path class="cls-6" d="m8.81,62.55c-.16,0-.33-.01-.49-.03-1.77-.23-3.23-1.67-4.11-4.05-.81-2.19-1.05-4.97-.67-7.83.8-6.15,4.18-10.71,7.67-10.25,3.49.46,5.59,5.67,4.78,11.88-.76,5.86-3.85,10.29-7.18,10.29Zm1.91-20.43c-2.06,0-4.73,3.35-5.43,8.75-.34,2.58-.13,5.07.58,6.99.63,1.71,1.61,2.77,2.68,2.91.09.01.17.02.26.02,2.06,0,4.73-3.35,5.43-8.75.73-5.57-1.1-9.62-3.26-9.9-.09-.01-.17-.02-.26-.02Z"/>
            </g>
            <g>
              <path class="cls-1" d="m12.48,58.17c1.27-1.92,1.72-3.77,2-5.89.39-2.98.07-5.66-.8-8.15-4.12,2.72-5,3.31-9.99,6.54,4.11,3.23,4.55,4.04,8.8,7.5Z"/>
              <path class="cls-6" d="m12.48,59.05c-.2,0-.4-.07-.56-.2-1.99-1.62-3.13-2.65-4.23-3.65-1.22-1.1-2.37-2.14-4.55-3.85-.22-.18-.35-.45-.34-.73.01-.28.16-.54.4-.7,4.6-2.98,5.73-3.72,9.07-5.93l.91-.6c.23-.15.51-.19.77-.1.26.09.46.29.55.54.96,2.74,1.24,5.54.85,8.56-.25,1.95-.69,4.06-2.14,6.26-.14.21-.36.35-.6.39-.04,0-.09.01-.13.01Zm-7.29-8.31c1.63,1.31,2.63,2.21,3.68,3.16.93.84,1.89,1.71,3.38,2.94.8-1.5,1.13-2.98,1.36-4.67.3-2.34.17-4.53-.42-6.66-3.04,2.01-4.25,2.81-7.99,5.23Z"/>
            </g>
          </g>
        </g>
      </g>
    </g>
  </g>
</svg>