<?xml version="1.0" encoding="UTF-8"?>
<svg id="Layer_2" data-name="Layer 2" xmlns="http://www.w3.org/2000/svg" viewBox="0 0 110.09 144.49">
  <defs>
    <style>
      .cls-1 {
        fill: #cb333f;
      }
    </style>
  </defs>
  <g id="Layer_1-2" data-name="Layer 1">
    <path class="cls-1" d="m22.18,41.88c-2.22-.37-3.6-1.66-4.16-3.88v-1.39l-.28-31.06c0-3.7,3.88-5.55,11.65-5.55h3.6l6.93.55c10.17.74,20.98,4.62,32.45,11.65,10.54,6.29,19.23,13.77,26.07,22.46,7.76,9.8,11.65,19.78,11.65,29.95,0,8.13-.46,17.38-1.39,27.73-1.48,13.87-3.42,22.28-5.82,25.24-7.58,9.06-15.9,15.9-24.96,20.52-8.13,4.07-16.92,6.19-26.35,6.38-14.61.19-26.85-4.62-36.74-14.42S0,108.15,0,93.73c0-17.19,7.4-34.48,22.18-51.86h0Zm22.19,4.44c-4.25,4.25-7.76,8.69-10.54,13.31-.55,1.48-1.39,3.51-2.5,6.1-.18,1.29-.46,3.05-.83,5.27,0,7.95,4.9,11.92,14.7,11.92,7.95,0,16.64-3.14,26.07-9.43,2.59-1.66,5.18-3.51,7.76-5.55-3.14-5.18-8.13-9.85-14.98-14-6.84-4.16-13.4-6.7-19.69-7.63h0Z"/>
  </g>
</svg>