<?xml version="1.0" encoding="UTF-8"?>
<svg id="Layer_2" data-name="Layer 2" xmlns="http://www.w3.org/2000/svg" viewBox="0 0 132.56 205.5">
  <defs>
    <style>
      .cls-1 {
        fill: #b9c273;
      }
    </style>
  </defs>
  <g id="Layer_1-2" data-name="Layer 1">
    <path class="cls-1" d="m42.98,108.99l-1.11,3.05v3.33c0,6.29,3.1,11.6,9.29,15.95,6.19,4.34,14.28,6.61,24.27,6.79,15.9.19,30.5-5.82,43.82-18.03l6.66-6.1c.18-.19.55-.46,1.11-.83,0,0,.37-.18,1.11-.55l.28.83.28,1.11-.83,6.38-3.88,31.89c-1.66,13.87-7.12,25.79-16.36,35.77-10.35,11.09-25.61,16.73-45.76,16.92-19.04.18-34.29-6.93-45.76-21.35C5.36,170.64,0,153.82,0,133.67s5.64-39.19,16.92-55.46c11.28-16.27,26.53-27.45,45.76-33.56-.55-.18-1.76-.46-3.61-.83-1.85-.37-3.28-.69-4.3-.97-1.02-.28-4.76-.88-11.23-1.8-2.59,0-4.53-.09-5.82-.28-7.39,0-13.73,1.16-19,3.47-5.27,2.31-8.41,4.81-9.43,7.49-1.02,2.68-1.89,4.11-2.63,4.3-.55,0-1.11-1.11-1.66-3.33-.18-1.48-.37-4.71-.55-9.71-.37-7.95,2.31-16.73,8.04-26.35C18.77,5.92,28.1.37,40.49,0c1.48,0,4.34.28,8.6.83,4.25.55,8.04,1.29,11.37,2.22l13.03,3.61c1.66.37,3.98,1.02,6.93,1.94,14.79,1.85,22.65,2.77,23.57,2.77,7.03,0,12.11-.46,15.25-1.39l12.2-3.61c.74,0,1.11.46,1.11,1.39l-2.22,70.72h-16.36c-13.13,0-22.74.46-28.84,1.39-10.35,1.48-18.67,4.25-24.96,8.32-8.32,5.36-14.05,12.29-17.19,20.8h0Zm58.51-1.66l-21.77,22.56-22.42-21.08,21.35-22.92,22.83,21.45h0Z"/>
  </g>
</svg>