<?xml version="1.0" encoding="UTF-8"?>
<svg id="Layer_2" data-name="Layer 2" xmlns="http://www.w3.org/2000/svg" viewBox="0 0 246.53 201.05">
  <defs>
    <style>
      .cls-1 {
        fill: #e87e08;
      }
    </style>
  </defs>
  <g id="Layer_1-2" data-name="Layer 1">
    <path class="cls-1" d="m209.93,117.86c-.74-2.03-1.48-3.98-2.22-5.82-.74-1.11-3.6-3.51-8.6-7.21-11.09-8.13-22.19-14.61-33.28-19.41-.74-.19-1.11.09-1.11.83l.28,2.5.83,4.16-.28.83h-.55c-4.07-1.85-9.34-4.9-15.81-9.15-7.95-5.36-12.02-9.24-12.2-11.65l-3.33-40.21c6.84-4.25,17.1-9.06,30.78-14.42C195.32,6.1,221.76,0,243.76,0h2.77l-17.19,33.56c-22.37,0-46.59,4.34-72.66,13.03l27.73,14.14c11.83,6.1,23.66,14.88,35.5,26.35,5.36,5.18,8.69,10.08,9.98,14.7,1.29,5.55,2.59,11.09,3.88,16.64,1.85,6.66,3.24,13.87,4.16,21.63,1.11,8.32,1.66,15.07,1.66,20.24l.28,32.17c0,5.73-3.14,8.6-9.43,8.6H55.46c-15.53,0-28.66-6.1-39.38-18.3C5.36,170.55,0,154.74,0,135.33c0-8.13,1.02-16.18,3.05-24.13,6.1-23.85,13.5-36.42,22.19-37.72,1.29,0,2.45.69,3.47,2.08,1.02,1.39,1.53,3,1.53,4.85,0,1.11-.28,2.5-.83,4.16-1.66,4.25-2.59,8.41-2.77,12.48-.18,4.81,1.53,9.48,5.13,14,3.61,4.53,7.72,6.79,12.34,6.79h165.84Z"/>
  </g>
</svg>