<?xml version="1.0" encoding="UTF-8"?>
<svg id="Layer_2" data-name="Layer 2" xmlns="http://www.w3.org/2000/svg" viewBox="0 0 144.76 224.36">
  <defs>
    <style>
      .cls-1 {
        fill: #cb44bc;
      }
    </style>
  </defs>
  <g id="Layer_1-2" data-name="Layer 1">
    <path class="cls-1" d="m144.76,105.94l-39.93,51.86c-2.22,2.77-4.62,4.16-7.21,4.16-3.33,0-7.12-1.85-11.37-5.55l-13.31-11.65c-5.18-4.44-10.17-7.76-14.97-9.98-.74-.37-2.08-.74-4.02-1.11-1.94-.37-3.19-.55-3.74-.55-7.76,0-12.66,2.31-14.7,6.93l4.99,44.09c0,10.35-2.22,18.4-6.66,24.13-1.11,1.11-2.31,2.4-3.61,3.88-3.88,4.44-7.4,8.23-10.54,11.37l-.55.55-1.11.28s-.05-.14-.14-.42c-.09-.28-.23-.51-.42-.69L0,78.21c0-9.61,4.34-17.75,13.03-24.4,8.13-6.1,17.1-8.97,26.9-8.6l6.38.28,6.66,1.11c10.17-19.04,18.86-32.08,26.07-39.1C84.03,2.69,89.3.19,94.84,0c10.54-.18,18.77,3.33,24.68,10.54,4.62,5.55,7.86,13.31,9.71,23.29l4.44,23.02c1.11,7.03,2.77,16.92,4.99,29.67,2.4,10.91,4.44,17.38,6.1,19.41h0Zm-69.61-49.92l30.23,31.06c.55-2.77.83-6.1.83-9.98v-6.66c-.18-.74-.28-1.66-.28-2.77l-1.11-9.43c-.37-3.88-1.76-7.3-4.16-10.26-1.66-2.77-4.16-4.16-7.49-4.16-2.4,0-5.18,1.02-8.32,3.05-3.14,2.03-6.38,5.08-9.71,9.15h0Z"/>
  </g>
</svg>