<?xml version="1.0" encoding="UTF-8"?>
<svg id="Layer_2" data-name="Layer 2" xmlns="http://www.w3.org/2000/svg" viewBox="0 0 145.04 205.5">
  <defs>
    <style>
      .cls-1 {
        fill: #f7cc5b;
      }
    </style>
  </defs>
  <g id="Layer_1-2" data-name="Layer 1">
    <path class="cls-1" d="m66.56,0l23.16,21.49-21.35,22.92-23.34-20.94L66.56,0h0ZM28.84,75.43c-1.85,7.39-2.77,13.22-2.77,17.47,0,10.72,3.14,19.6,9.43,26.62,6.29,7.03,14.7,10.54,25.24,10.54,16.82,0,34.66-8.87,53.52-26.62-3.33-11.28-8.6-21.35-15.81-30.23l-10.26-12.48,36.88-33.83c13.13,23.85,19.78,51.21,19.97,82.09.18,22.92-4.16,42.52-13.03,58.79-9.8,17.93-24.13,29.4-42.98,34.39-3.14.55-7.95,1.48-14.42,2.77-3.14.37-6.38.55-9.71.55-23.66.37-41.78-10.08-54.35-31.34-7.03-11.83-10.54-26.71-10.54-44.65,0-10.72,1.39-21.63,4.16-32.72,3.14-12.57,7.4-22.55,12.76-29.95,2.03-2.77,4.34-4.16,6.93-4.16,1.66,0,3.05.69,4.16,2.08,1.11,1.39,1.76,3.19,1.94,5.41l-.55,3.05-.55,2.22h0Z"/>
  </g>
</svg>