<?xml version="1.0" encoding="UTF-8"?>
<svg id="Layer_2" data-name="Layer 2" xmlns="http://www.w3.org/2000/svg" viewBox="0 0 148.09 268.72">
  <defs>
    <style>
      .cls-1 {
        fill: #b90141;
      }
    </style>
  </defs>
  <g id="Layer_1-2" data-name="Layer 1">
    <path class="cls-1" d="m.83,163.62c.18-4.62.55-8.32,1.11-11.09,1.11-5.18,2.96-7.95,5.55-8.32,2.4,0,4.07,2.77,4.99,8.32,2.96,18.12,8.87,33.37,17.75,45.76,10.72,15.16,24.31,22.83,40.77,23.02,19.41.18,33.37-10.45,41.87-31.89-9.43,9.43-19.5,14.14-30.23,14.14-4.81,0-9.8-1.2-14.98-3.61-4.25-2.03-9.24-5.92-14.98-11.65-.92-2.03-2.4-5.08-4.44-9.15-.74-3.7-1.11-6.84-1.11-9.43s.14-4.71.42-6.38c.28-1.66.97-4.44,2.08-8.32l5.27-17.75c2.59-8.5,6.29-17.75,11.09-27.73,5.36-10.91,11.65-21.08,18.86-30.5,7.21-9.43,13.59-14.14,19.14-14.14,8.87,0,17.19,7.12,24.96,21.35,4.99,9.24,9.24,20.24,12.76,33,4.25,15.53,6.38,30.69,6.38,45.48,0,41.97-13.4,72.47-40.21,91.51-11.46,8.13-24.31,12.29-38.55,12.48-22.55.19-41.6-10.26-57.13-31.34-1.85-2.59-3.79-6.1-5.82-10.54-1.29-3.14-2.59-7.3-3.88-12.48-1.66-7.21-2.5-16.08-2.5-26.62v-4.16c0-2.03.09-3.61.28-4.71l.55-15.25h0Zm90.13-62.95c-3.51,3.51-5.27,7.4-5.27,11.65,0,6.66,3.51,11.74,10.54,15.25,5.55,2.77,12.02,4.16,19.41,4.16,0-9.43-2.31-17.56-6.93-24.4-4.07-5.92-8.32-8.87-12.76-8.87-2.03,0-3.7.74-4.99,2.22h0Zm-3.33-80.42L105.94,0l23.53,21.54-22,23.48-22.79-19.23-18.07,19.41-22.51-19.97L64.89.83l22.74,19.41h0Z"/>
  </g>
</svg>