<?xml version="1.0" encoding="UTF-8"?>
<svg id="Layer_2" data-name="Layer 2" xmlns="http://www.w3.org/2000/svg" viewBox="0 0 285.91 199.4">
  <defs>
    <style>
      .cls-1 {
        fill: #59636d;
      }
    </style>
  </defs>
  <g id="Layer_1-2" data-name="Layer 1">
    <path class="cls-1" d="m141.15,138.39c-4.62,19.6-13.96,34.85-28.01,45.76-12.94,9.98-28.01,15.07-45.2,15.25-12.2.18-23.48-2.59-33.83-8.32-10.35-5.73-18.4-13.87-24.13-24.4C3.33,154.66,0,140.79,0,125.08c0-12.94,2.13-26.34,6.38-40.21,5.92-19.04,12.48-28.56,19.69-28.56,2.4,0,3.6,1.57,3.6,4.71,0,.92-.05,1.57-.14,1.94-.09.37-.42,1.29-.97,2.77-2.77,7.58-4.16,14.61-4.16,21.08,0,11.65,3.79,21.03,11.37,28.15,7.58,7.12,17.19,10.68,28.84,10.68,17.01,0,32.91-7.95,47.7-23.85-3.7-17.75-11.93-32.82-24.68-45.2l38.55-35.5c4.81,5.55,8.04,13.31,9.71,23.29l1.94,12.2c14.24-13.13,28.38-24.22,42.43-33.28C204.11,7.95,225.09.19,243.21,0c13.31-.19,23.85,4.25,31.61,13.31,7.4,8.32,11.09,19.23,11.09,32.72v3.88l-3.88,28.84c-.18.74-1.11,6.01-2.77,15.81l-1.66,9.15c-2.03,10.35-3.98,18.49-5.82,24.4-2.03,6.47-4.67,11-7.9,13.59-3.24,2.59-8.18,3.88-14.84,3.88h-88.19c-3.7,0-7.58-.83-11.65-2.5-2.77-1.11-5.45-2.68-8.04-4.71h0Zm31.06-75.71h73.49l.28-3.05c0-7.03-2.31-12.66-6.93-16.92-4.62-4.25-10.45-6.38-17.47-6.38s-14.33,1.94-21.91,5.82c-8.87,4.44-18.03,11.28-27.45,20.52h0Z"/>
  </g>
</svg>