<?xml version="1.0" encoding="UTF-8"?>
<svg id="Layer_2" data-name="Layer 2" xmlns="http://www.w3.org/2000/svg" viewBox="0 0 234.34 190.25">
  <defs>
    <style>
      .cls-1 {
        fill: #dc5e69;
      }
    </style>
  </defs>
  <g id="Layer_1-2" data-name="Layer 1">
    <path class="cls-1" d="m28.57,56.02c-2.77,7.77-4.16,14.79-4.16,21.08,0,11.46,3.65,20.71,10.95,27.73,7.3,7.03,16.69,10.54,28.15,10.54,17.75,0,34.11-8.6,49.09-25.79-7.21-19.23-15.71-33.46-25.51-42.71L126.74,12.2l4.16,11.09c.37,1.29,1.06,3.47,2.08,6.52,1.02,3.05,1.89,6.05,2.63,9.01,1.48,5.92,2.22,10.63,2.22,14.14l6.66.55c3.7.37,7.86-1.48,12.48-5.55,4.62-4.07,8.5-9.89,11.65-17.47.37-1.11.92-1.66,1.66-1.66s1.48.83,2.22,2.5c1.85,7.39,6.19,13.4,13.03,18.03,6.84,4.62,14.24,6.93,22.19,6.93-.92-4.99-2.4-9.24-4.44-12.76-.74-2.22-2.13-4.62-4.16-7.21-1.11-1.85-3.05-4.34-5.82-7.49L223.53,0l5.82,17.79c1.66,5.36,2.87,10.82,3.61,16.36.92,8,1.39,13.91,1.39,17.79v83.38h-36.05c-5.18,0-9.34-1.06-12.48-3.14-2.03-1.29-4.99-3.97-8.87-7.95-2.22,2.77-5.55,5.32-9.98,7.63-4.44,2.31-8.6,3.47-12.48,3.47-5.36,0-9.98-1.48-13.87-4.44-4.25,19.04-13.4,33.93-27.45,44.65-12.57,9.61-27.45,14.51-44.65,14.7-12.02.18-23.29-2.68-33.83-8.6-10.54-5.92-18.77-14.05-24.68-24.4C3.52,145.96.2,132,.01,115.36c-.19-12.39,1.94-25.79,6.38-40.21,2.96-9.43,6.47-16.73,10.54-21.91,3.51-4.44,6.56-6.66,9.15-6.66,1.11,0,1.89.23,2.36.69.46.46.88,1.71,1.25,3.74,0,1.29-.05,2.17-.14,2.63-.09.46-.42,1.25-.97,2.36h0Z"/>
  </g>
</svg>