<?xml version="1.0" encoding="UTF-8"?>
<svg id="Layer_2" data-name="Layer 2" xmlns="http://www.w3.org/2000/svg" viewBox="0 0 234.07 272.06">
  <defs>
    <style>
      .cls-1 {
        fill: #6c4b3c;
      }
    </style>
  </defs>
  <g id="Layer_1-2" data-name="Layer 1">
    <path class="cls-1" d="m28.85,137.83c-1.11,3.33-2.22,7.03-3.33,11.09,0,.92-.09,2.63-.28,5.13-.18,2.5-.37,4.21-.55,5.13,0,11.46,3.74,20.66,11.23,27.59,7.49,6.93,16.69,10.4,27.59,10.4,18.49,0,34.94-8.6,49.36-25.79-4.99-12.39-11-23.57-18.03-33.56-2.77-3.88-5.27-6.93-7.49-9.15l39.66-34.66c7.21,20.15,10.82,33.74,10.82,40.77l6.66.55c3.51.37,7.76-1.57,12.76-5.82,4.25-3.7,7.95-9.43,11.09-17.19.55-1.11,1.29-1.66,2.22-1.66.55,0,1.2.83,1.94,2.5,1.85,7.58,6.19,13.63,13.03,18.16,6.84,4.53,14.24,6.79,22.19,6.79-2.03-9.98-6.75-19.14-14.14-27.45l29.95-28.84c2.59,7.4,5.73,18.72,9.43,33.88.74,5.59,1.11,11.6,1.11,18.07v83.38h-36.05c-7.4,0-14.42-3.7-21.08-11.09-5.55,7.4-13.13,11.09-22.74,11.09-5.36,0-9.98-1.48-13.87-4.44-4.25,18.86-13.4,33.74-27.45,44.65-12.39,9.61-27.18,14.51-44.37,14.7-11.65.18-22.65-2.59-33-8.32C12.21,250.97.38,228.69.01,196.89c-.19-11.09,1.85-24.4,6.1-39.93,1.66-5.92,3.97-11.56,6.93-16.92,4.44-7.76,8.78-11.65,13.03-11.65,2.59,0,3.88,1.66,3.88,4.99l-1.11,4.44h0ZM168.94,45.25l-22.51-20.57L168.34,0l22.51,20.57-21.91,24.68h0Zm1.34,11.05l17.75-20.8,23.57,21.08-21.86,24.36-22.46-19.69-18.63,20.01-22-21.03,20.61-24.73,23.02,20.8h0Z"/>
  </g>
</svg>