<?xml version="1.0" encoding="UTF-8"?>
<svg id="Layer_2" data-name="Layer 2" xmlns="http://www.w3.org/2000/svg" viewBox="0 0 174.43 209.93">
  <defs>
    <style>
      .cls-1 {
        fill: #c845b7;
      }
    </style>
  </defs>
  <g id="Layer_1-2" data-name="Layer 1">
    <path class="cls-1" d="m10.26,193.57l-6.93-35.5c-2.22-11.28-3.33-22.74-3.33-34.39,0-1.48.55-2.31,1.66-2.5l8.6,4.71c2.4,1.29,4.34,1.94,5.82,1.94,1.29,0,2.31-.37,3.05-1.11l8.04-7.76,8.32-6.93L21.35,22.19,54.63,0c0,4.62.55,9.24,1.66,13.87.37,1.29,1.2,3.7,2.5,7.26,1.85,6.66,5.08,13.13,9.71,19.41l-8.09,12.2,2.08,13.26c.51,3.88.74,8.04.74,12.48,0,7.95-1.2,13.87-3.61,17.75,14.24-9.06,28.93-16.82,44.09-23.29,10.17-4.44,17.56-6.75,22.19-6.93l4.71-.28h1.66c19.04,0,32.08,11.28,39.1,33.83,2.03,6.47,3.05,11.74,3.05,15.81,0,10.17-.65,19.78-1.94,28.84-.92,6.84-2.68,17.47-5.27,31.89l-6.66,29.67c-.18.74-1.16,1.62-2.91,2.63-1.76,1.02-3.28,1.53-4.58,1.53H33.28c-7.21,0-12.29-1.02-15.25-3.05-2.96-2.03-5.55-6.47-7.76-13.31h0Zm48.25-66.83h75.71c-1.11-8.87-4.16-15.62-9.15-20.24-3.88-3.88-9.06-5.82-15.53-5.82-13.5,0-30.5,8.69-51.03,26.07h0Z"/>
  </g>
</svg>