<?xml version="1.0" encoding="UTF-8"?>
<svg id="Layer_2" data-name="Layer 2" xmlns="http://www.w3.org/2000/svg" viewBox="0 0 195.81 165.56">
  <defs>
    <style>
      .cls-1 {
        fill: #cb44bc;
      }
    </style>
  </defs>
  <g id="Layer_1-2" data-name="Layer 1">
    <path class="cls-1" d="m195.81,165.56H55.21c-17.01,0-30.69-6.84-41.04-20.52C4.92,132.65.21,117.67.02,100.11c-.18-7.95.83-16.08,3.05-24.4,2.22-8.32,5.55-16.82,9.98-25.51,3.88-7.4,7.86-11.46,11.92-12.2,1.48,0,2.73.65,3.74,1.94,1.02,1.29,1.52,2.96,1.52,4.99,0,.74-.23,1.94-.69,3.61-.46,1.66-1.16,4.07-2.08,7.21,0,.37-.19,1.2-.55,2.5v3.33c0,4.99,1.71,9.71,5.13,14.14,3.42,4.44,7.53,6.66,12.34,6.66h125.07c-.74-3.33-3.33-8.41-7.76-15.25-1.48-2.03-3.33-4.71-5.55-8.04-1.48-2.03-4.16-5.36-8.04-9.98l34.67-29.67c7.03,18.3,11.09,33.65,12.2,46.03v7.76c.18,4.62.46,9.61.83,14.98v77.37h0ZM78.5,1.94l22.88,20.61-21.08,23.2-23.25-20.98L78.5,1.94h0Zm44.65-1.94l22.69,20.8-21.03,23.2-23.11-21.17L123.15,0h0Z"/>
  </g>
</svg>