<?xml version="1.0" encoding="UTF-8"?>
<svg id="Layer_2" data-name="Layer 2" xmlns="http://www.w3.org/2000/svg" viewBox="0 0 123.41 211.32">
  <defs>
    <style>
      .cls-1 {
        fill: #e96a41;
      }
    </style>
  </defs>
  <g id="Layer_1-2" data-name="Layer 1">
    <path class="cls-1" d="m96.78,130.62c-4.99,7.77-10.08,13.31-15.25,16.64-5.18,3.33-10.72,4.99-16.64,4.99-9.06,0-17.75-3.93-26.07-11.79-8.32-7.86-13.13-16.32-14.42-25.37v-3.33c0-12.02,3.33-27.45,9.98-46.31,5.92-17.01,12.57-31.43,19.97-43.26C63.6,7.4,72.01,0,79.59,0c14.24,0,25.61,15.07,34.11,45.2,6.47,22.55,9.71,43.35,9.71,62.4,0,21.08-2.96,40.21-8.87,57.4-10.72,30.87-27.82,46.31-51.3,46.31h-5.55c-1.11,0-1.8-.05-2.08-.14-.28-.09-1.34-.42-3.19-.97-5.18-.92-10.77-3.19-16.78-6.79-6.01-3.61-11.6-7.26-16.78-10.95l-14.97-10.82c-2.4-1.66-3.7-3.33-3.88-4.99,0-1.85,1.66-2.77,4.99-2.77l1.94.28,2.77.28c3.33.74,6.56,1.29,9.71,1.66l9.71.28c23.48.74,42.61-7.49,57.4-24.68,5.36-6.29,8.78-13.31,10.26-21.08h0ZM62.4,50.19c0,4.99,2.96,9.71,8.87,14.14,5.92,4.44,13.22,6.66,21.91,6.66h1.66l4.44-.28c-1.85-6.84-5.08-13.4-9.71-19.69-5.55-7.4-11.37-11.09-17.47-11.09-2.77,0-5.08,1.02-6.93,3.05-1.85,2.03-2.77,4.44-2.77,7.21h0Z"/>
  </g>
</svg>