<?xml version="1.0" encoding="UTF-8"?>
<svg id="Layer_2" data-name="Layer 2" xmlns="http://www.w3.org/2000/svg" viewBox="0 0 181.92 202.44">
  <defs>
    <style>
      .cls-1 {
        fill: #079aaa;
      }
    </style>
  </defs>
  <g id="Layer_1-2" data-name="Layer 1">
    <path class="cls-1" d="m178.31,40.49v1.66c0,2.96-.6,5.64-1.8,8.04-1.2,2.4-3,3.61-5.41,3.61-2.03,0-4.62-1.11-7.76-3.33-2.4-2.4-5.92-3.61-10.54-3.61-12.02,0-24.03,6.19-36.05,18.58-4.81,4.99-7.3,9.24-7.49,12.76-.18,1.85.83,3.42,3.05,4.71,4.07,1.66,8.69,2.59,13.87,2.77l18.58.83c2.4,0,6.15.28,11.23.83,5.08.55,9.01,1.2,11.79,1.94,4.99,1.48,8.6,3.24,10.82,5.27,2.22,2.03,3.33,5.27,3.33,9.71v3.05l-.28,1.39c-.92,5.92-2.59,14.61-4.99,26.07-3.14,10.35-6.29,17.29-9.43,20.8-13.87,15.16-29.3,26.99-46.31,35.5-14.98,7.4-30.69,11.19-47.14,11.37-30.5.19-51.67-8.13-63.51-24.96-6.84-9.8-10.26-22.92-10.26-39.38,0-11.09,1.48-23.2,4.44-36.33,1.85-7.95,3.05-12.85,3.61-14.7,1.66-5.73,3.7-10.26,6.1-13.59,1.85-2.59,3.79-3.88,5.82-3.88,1.29,0,2.31.55,3.05,1.66l.83,1.66c0,.92.09,1.76.28,2.5v1.11l-1.39,16.64-.28,7.21c-.19,6.47.46,11.92,1.94,16.36,4.07,11.83,13.31,20.34,27.73,25.51,7.21,2.59,15.53,3.98,24.96,4.16,11.65.18,25.79-2.87,42.43-9.15,3.88-1.48,8.97-3.79,15.25-6.93-4.62-2.03-13.22-3.79-25.79-5.27-12.57-1.48-21.54-3.42-26.9-5.82-8.32-3.7-12.66-9.61-13.03-17.75l.55-4.99c.92-8.32,7.12-20.89,18.58-37.72,10.54-15.53,22.19-28.93,34.94-40.21C137.18,6.19,148.73,0,157.79,0h1.66c12.57,0,18.86,13.5,18.86,40.49h0Z"/>
  </g>
</svg>