<?xml version="1.0" encoding="UTF-8"?>
<svg xmlns="http://www.w3.org/2000/svg" viewBox="0 0 75.63 90">
  <defs>
    <style>
      .cls-1 {
        fill: #fff;
      }

      .cls-2 {
        stroke: #221f1f;
        stroke-linecap: round;
        stroke-linejoin: round;
        stroke-width: 1.35px;
      }

      .cls-2, .cls-3 {
        fill: #d4da26;
      }

      .cls-4 {
        fill: none;
        isolation: isolate;
      }

      .cls-3 {
        mix-blend-mode: multiply;
      }
    </style>
  </defs>
  <g class="cls-4">
    <g id="Layer_2" data-name="Layer 2">
      <g id="Layer_1-2" data-name="Layer 1">
        <g>
          <path class="cls-2" d="m69.47,18.02c-2.12-3.75-4.75-6.94-7.82-9.5-3.08-2.56-6.7-4.53-10.75-5.85-4.05-1.32-8.59-1.99-13.5-1.99-7.47,0-14,1.51-19.43,4.49-5.46,3-9.67,7.42-12.54,13.15-1.63,3.43-2.85,7.57-3.61,12.29-.75,4.66-1.14,9.99-1.14,15.83,0,4.53.35,8.81,1.03,12.71.69,3.92,1.79,7.57,3.3,10.87,2.94,6.01,7.39,10.79,13.21,14.19,5.8,3.39,12.44,5.11,19.73,5.11,6.34,0,12.18-1.28,17.37-3.8,5.21-2.53,9.52-6.18,12.82-10.87,2.61-3.8,4.42-8.08,5.38-12.74.95-4.58,1.43-10.12,1.43-16.46,0-11.73-1.85-20.96-5.49-27.44Zm-22.2,39.29c-2.22,1.23-5.4,1.85-9.45,1.85s-7.04-.6-9.26-1.79c-2.22-1.18-3.75-2.88-4.69-5.2-.98-2.41-1.48-5.56-1.48-9.39,0-5.57,1.14-9.72,3.38-12.33,2.16-2.51,6.17-3.78,11.91-3.78,4.06,0,7.26.58,9.49,1.73,2.21,1.14,3.74,2.78,4.68,5.02.98,2.34,1.47,5.41,1.47,9.11,0,3.92-.48,7.13-1.41,9.53-.9,2.3-2.42,4.01-4.63,5.24Z"/>
          <path class="cls-3" d="m42.38,22.73c-4.85.05-10.77-.35-14.89,2.66-2.72,1.99-5.37,4.89-5.76,8.43-.08.75.22,3.32.83,5.41.4-3.81,1.46-6.76,3.2-8.78,2.16-2.51,6.17-3.78,11.91-3.78,4.06,0,7.26.58,9.49,1.73,2.21,1.14,3.74,2.78,4.68,5.02.98,2.34,1.47,5.41,1.47,9.11,0,3.92-.48,7.13-1.41,9.53-.9,2.3-2.42,4.01-4.63,5.24-2.22,1.23-5.4,1.85-9.45,1.85-3.59,0-6.47-.53-8.64-1.52,8.06,6.29,25.72,2.72,28.11-9.35,2.24-11.28.61-25.71-14.91-25.55Z"/>
          <path class="cls-3" d="m69.47,18.02c-2.12-3.75-4.75-6.94-7.82-9.5-3.08-2.56-6.7-4.53-10.75-5.85-4.05-1.32-8.59-1.99-13.5-1.99-.71,0-1.41.03-2.1.05,7.2,1.35,14.2,4.22,19.54,8.72,8.56,7.21,11.04,17.98,11.74,28.77.69,10.58.5,23.79-6.66,32.41-11.54,13.88-35.54,16.23-49.35,4.42-2.81-2.41-5.08-5.32-6.92-8.52.42,1.2.87,2.37,1.37,3.49,2.94,6.01,7.39,10.79,13.21,14.19,5.8,3.39,12.44,5.11,19.73,5.11,6.34,0,12.18-1.28,17.37-3.8,5.21-2.53,9.52-6.18,12.82-10.87,2.61-3.8,4.42-8.08,5.38-12.74.95-4.58,1.43-10.12,1.43-16.46,0-11.73-1.85-20.96-5.49-27.44Z"/>
          <path class="cls-1" d="m28.08,4.81c-10.56,3.43-17.18,11.51-21,21.66-1.2,6.06-2.46,11.77-2.34,18.16.06,2.83.14,5.67.24,8.5.1,1.9.29,3.86.97,5.65.28.73.73,1.69,1.36,2.17,1.16.86,1.44-.91,1.65-1.79C5.35,39.17,7.75,15.13,28.15,5.36c.3-.14.36-.68-.07-.54Z"/>
          <path class="cls-1" d="m12.53,68.91s.03-.02.04-.03c-.22-.43-.49-.83-.73-1.25-.29-.49-.32-1.03-.79-1.4-.54-.42-1.35-.17-1.68.41-.84,1.48.14,2.73,1.05,3.93.77,1.03,2.58-.55,2.1-1.67Z"/>
        </g>
      </g>
    </g>
  </g>
</svg>