<?xml version="1.0" encoding="UTF-8"?>
<svg xmlns="http://www.w3.org/2000/svg" viewBox="0 0 75.65 88.55">
  <defs>
    <style>
      .cls-1 {
        fill: #fff;
      }

      .cls-2 {
        mix-blend-mode: multiply;
      }

      .cls-2, .cls-3 {
        fill: #00b9f1;
      }

      .cls-4 {
        fill: none;
        isolation: isolate;
      }

      .cls-3 {
        stroke: #221f1f;
        stroke-linecap: round;
        stroke-linejoin: round;
        stroke-width: 1.35px;
      }
    </style>
  </defs>
  <g class="cls-4">
    <g id="Layer_2" data-name="Layer 2">
      <g id="Layer_1-2" data-name="Layer 1">
        <g>
          <path class="cls-3" d="m71.55,73.94c-2.11-1.35-5.14-2.03-9-2.03H28.52c.56-.61,1.12-1.17,1.67-1.68,2.56-2.54,7.37-6.19,14.31-10.83,7.16-4.79,12.1-8.2,15.1-10.41,3.08-2.27,6.13-5.43,9.06-9.39,3.02-4.08,4.55-8.68,4.55-13.68,0-3.2-.74-6.32-2.19-9.29-1.44-2.95-3.49-5.59-6.08-7.83-2.58-2.23-5.6-4.01-9.01-5.28-5.16-1.88-11.46-2.83-18.73-2.83-6.04,0-11.4.74-15.92,2.22-4.55,1.48-8.36,3.46-11.34,5.87-3,2.44-5.29,5.2-6.81,8.21-1.53,3.03-2.31,6-2.31,8.83,0,2.55.93,4.6,2.76,6.1,1.75,1.44,3.97,2.17,6.59,2.17,2.99,0,5.31-.82,6.92-2.42,3.46-3.45,4.29-8.63,8.56-11.44,6.18-4.08,15.29-4.38,19.69,2.38,9.48,14.56-12.38,23.86-21.44,30.68-6.11,4.61-12.72,9.11-18.07,14.76-4.48,4.72-8.02,12.23-1.89,17.2,2.17,1.76,5.19,2.65,8.97,2.65h51.66c3.37,0,5.96-.75,7.7-2.24,1.79-1.54,2.7-3.45,2.7-5.69,0-2.53-1.15-4.56-3.43-6.01Z"/>
          <path class="cls-2" d="m10.18,34.07c2.99,0,5.31-.82,6.92-2.42,3.46-3.45,4.29-8.63,8.56-11.44,6.18-4.08,15.29-4.38,19.69,2.38,2.29,3.51,3.09,8.55,2.34,11.49,1.55-2.49,2.24-5.86,1.61-9.25-1.42-7.67-10.55-13.09-17.89-11.47-5.48,1.21-9.71,4.46-13.41,8.57-3.8,4.23-9.32,8.26-14.01,3.12-1.51-1.66-2.06-3.47-2.02-5.33-.74,2.08-1.15,4.12-1.15,6.09,0,2.55.93,4.6,2.76,6.1,1.75,1.44,3.97,2.17,6.59,2.17Z"/>
          <path class="cls-2" d="m64.53,32.27c-3.87,8.61-13,14.22-20.3,19.66-8.9,6.63-19.32,13.25-24.95,22.98.89.29,7.63-.05,8.21-.05,3.48.05,6.95.04,10.43-.09,7.28-.27,14.59-.42,21.87-.41,5.06,0,12.78,1.08,15.14,5.11-.14-2.31-1.25-4.18-3.37-5.54-2.11-1.35-5.14-2.03-9-2.03H28.52c.56-.61,1.12-1.17,1.67-1.68,2.56-2.54,7.37-6.19,14.31-10.83,7.16-4.79,12.1-8.2,15.1-10.41,3.08-2.27,6.13-5.43,9.06-9.39,3.02-4.08,4.55-8.68,4.55-13.68,0-3.2-.74-6.32-2.19-9.29-1.44-2.95-3.49-5.59-6.08-7.83-2.58-2.23-5.6-4.01-9.01-5.28-2.02-.74-4.23-1.32-6.59-1.77,4.07,1.31,7.86,3.22,10.95,6.43,6.46,6.71,8.03,15.65,4.23,24.11Z"/>
          <path class="cls-1" d="m32.88,3.54c-9.39-.13-21.51,4.88-24.94,14.2-.03.08.07.08.1.03,2.92-3.94,6.98-6.82,11.21-9.19,4.24-2.38,8.9-2.69,13.48-3.93.42-.12.81-1.1.15-1.11Z"/>
          <path class="cls-1" d="m38.71,3.61c-.54-.01-.98-.07-1.43.13-.06,0-.12.01-.18.02-.14.01-.23.15-.25.29-.14.22-.18.53.15.58.41.06.82.14,1.23.19.68.05,1.25-1.2.47-1.22Z"/>
          <path class="cls-1" d="m36.57,48.71c-6.85,5.29-14.59,9.29-21.39,14.74-4.88,3.91-12.05,9.2-10.09,16.29.32,1.16,1.89.31,1.79-.66-.92-8.56,9.93-14.8,15.75-19.1,4.8-3.55,9.83-6.82,14.21-10.88.23-.22,0-.61-.27-.4Z"/>
          <path class="cls-1" d="m7.38,81.24c-.06-.08-.11-.16-.17-.23-.36-.51-1.34.47-.85.83.11.08.22.16.33.24.43.31.95-.45.69-.83Z"/>
        </g>
      </g>
    </g>
  </g>
</svg>