<?xml version="1.0" encoding="UTF-8"?>
<svg xmlns="http://www.w3.org/2000/svg" viewBox="0 0 77.24 89.99">
  <defs>
    <style>
      .cls-1 {
        fill: #fff;
      }

      .cls-2 {
        stroke: #221f1f;
        stroke-linecap: round;
        stroke-linejoin: round;
        stroke-width: 1.35px;
      }

      .cls-2, .cls-3 {
        fill: #ef477a;
      }

      .cls-3 {
        mix-blend-mode: multiply;
      }

      .cls-4 {
        fill: none;
        isolation: isolate;
      }
    </style>
  </defs>
  <g class="cls-4">
    <g id="Layer_2" data-name="Layer 2">
      <g id="Layer_1-2" data-name="Layer 1">
        <g>
          <path class="cls-2" d="m67.28,38.89c-2.94-2.61-6.4-4.64-10.29-6.04-3.89-1.4-8.17-2.11-12.73-2.11s-9.13.78-13.01,2.33c-3,1.2-5.86,2.92-8.52,5.12.77-8.54,2.63-14.61,5.54-18.06,1.57-1.85,3.52-3.35,5.81-4.43,5.13-2.44,10.56-2.01,14.41.29,2.15,1.29,3.67,2.94,4.64,5,.9,2.02,2.3,3.63,4.2,4.77,1.87,1.12,3.92,1.69,6.1,1.69,2.54,0,4.67-.75,6.34-2.23,1.71-1.52,2.58-3.26,2.58-5.18,0-2.88-1.26-5.88-3.75-8.93-2.43-2.97-6.06-5.49-10.78-7.48-4.69-1.97-10.17-2.97-16.29-2.97s-12.09,1-17.07,2.96c-5.02,1.98-9.35,4.95-12.87,8.82-3.52,3.86-6.25,8.79-8.12,14.64-1.86,5.8-2.8,12.47-2.8,19.8,0,9.03,1.56,16.8,4.65,23.1,3.11,6.35,7.68,11.22,13.59,14.46,5.86,3.23,12.9,4.86,20.94,4.86,6.98,0,13.32-1.28,18.86-3.81,5.57-2.55,9.99-6.17,13.13-10.74,3.14-4.59,4.74-9.77,4.74-15.4,0-3.87-.82-7.63-2.42-11.19-1.61-3.55-3.92-6.67-6.86-9.28Zm-27.28,13.53c1.65,0,3.17.34,4.53,1.01,1.35.67,2.38,1.61,3.16,2.89.77,1.27,1.16,2.82,1.16,4.62,0,2.67-.81,4.76-2.48,6.37-1.66,1.62-3.71,2.4-6.28,2.4-2.7,0-4.88-.86-6.65-2.63-1.79-1.79-2.66-3.97-2.66-6.67,0-1.64.41-3.02,1.27-4.23.86-1.21,2.01-2.15,3.41-2.78,1.44-.65,2.96-.98,4.54-.98Z"/>
          <path class="cls-3" d="m34.79,49.31c-3.19,1.06-6.89,4.63-6.62,8.55.16,2.36,1.13,5.21,3.2,6-.38-1.05-.59-2.18-.59-3.44,0-1.64.41-3.02,1.27-4.23.86-1.21,2.01-2.15,3.41-2.78,1.44-.65,2.96-.98,4.54-.98s3.17.34,4.53,1.01c1.35.67,2.38,1.61,3.16,2.89.77,1.27,1.16,2.82,1.16,4.62,0,2.67-.81,4.76-2.48,6.37-1.66,1.62-3.71,2.4-6.28,2.4s-4.56-.78-6.27-2.32c7.14,9.71,26.36-4.36,16.22-14.86-3.78-3.91-10.05-4.97-15.24-3.24Z"/>
          <path class="cls-3" d="m48.5,15.99c2.15,1.29,3.67,2.94,4.64,5,.9,2.02,2.3,3.63,4.2,4.77,1.87,1.12,3.92,1.69,6.1,1.69,2.54,0,4.67-.75,6.34-2.23,1.71-1.52,2.58-3.26,2.58-5.18,0-2.44-.96-4.98-2.76-7.55-.12,2.16-1.24,4.14-4.01,5.51-6.71,3.32-13.65-6.92-19.85-8.06-11.9-2.19-23.81,6.09-26.33,17.9-.82,3.82-1.35,7.81.21,11.53.84,2.02,2.51-.81,3.22-2.06.82-8.07,2.64-13.86,5.44-17.19,1.57-1.85,3.52-3.35,5.81-4.43,5.13-2.44,10.56-2.01,14.41.29Z"/>
          <path class="cls-3" d="m74.14,48.18c-1.61-3.55-3.92-6.67-6.86-9.28-2.94-2.61-6.4-4.64-10.29-6.04-3.89-1.4-8.17-2.11-12.73-2.11-1.67,0-3.28.12-4.86.32,11.02-.86,22.17,2.48,28.16,13,6.72,11.8,2.05,27.32-8.9,34.99-13.04,9.15-33.29,8.21-46.03-.98-2.16-1.55-4.1-3.37-5.83-5.37,3.02,5.03,7.07,8.98,12.1,11.75,5.86,3.23,12.9,4.86,20.94,4.86,6.98,0,13.32-1.28,18.86-3.81,5.57-2.55,9.99-6.17,13.13-10.74,3.14-4.59,4.74-9.77,4.74-15.4,0-3.87-.82-7.63-2.42-11.19Z"/>
          <path class="cls-1" d="m18.4,77.22C1.39,62.53,2.83,30.58,15.65,13.72c.06-.08-.05-.13-.11-.07-8.9,7.8-11.18,20.56-11.71,31.84-.56,11.69,2.23,27.02,13.86,32.59.43.21,1.13-.5.71-.86Z"/>
          <path class="cls-1" d="m51.98,34.76c-10.13-3.84-23.68.16-29.5,9.52-.18.3.19.41.38.18,6.08-7.74,19.22-10.44,28.17-7.86.88.25,1.97-1.46.96-1.84Z"/>
          <path class="cls-1" d="m56.82,37.05c-.29-.17-.57-.3-.84-.36-.13-.06-.27-.11-.41-.17-.66-.29-1.41.6-.98,1.19.33.45.77.59,1.29.77.77.27,1.8-.92.94-1.42Z"/>
        </g>
      </g>
    </g>
  </g>
</svg>