<?xml version="1.0" encoding="UTF-8"?>
<svg xmlns="http://www.w3.org/2000/svg" viewBox="0 0 112.5 106.22">
  <defs>
    <style>
      .cls-1 {
        fill: #fff;
      }

      .cls-2 {
        fill: none;
        isolation: isolate;
      }

      .cls-3 {
        fill: #e973ad;
        mix-blend-mode: multiply;
      }

      .cls-4 {
        fill: #cb3092;
        stroke: #221f1f;
        stroke-linecap: round;
        stroke-linejoin: round;
        stroke-width: 1.35px;
      }
    </style>
  </defs>
  <g class="cls-2">
    <g id="Layer_2" data-name="Layer 2">
      <g id="Layer_1-2" data-name="Layer 1">
        <g>
          <path class="cls-4" d="m25.13,101.81c1.73-1.95,3.67-5.4,5.9-10.52l4.34-9.96,40.87-.23,4.49,9.78c.73,1.48,1.61,3.18,2.63,5.11,1.17,2.22,2.28,3.87,3.38,5.03,1.21,1.27,2.71,2.29,4.46,3.01,1.72.71,3.73,1.06,5.99,1.05,3.91-.02,7.32-1.24,10.13-3.63,3.73-3.17,4.5-6.53,4.48-8.8-.01-2.73-1.25-6.44-3.86-11.63l-29.57-60.55c-1.41-3.08-2.58-5.53-3.49-7.38-1.02-2.06-2.29-4.01-3.77-5.79-1.64-1.98-3.79-3.6-6.39-4.82-2.6-1.22-5.79-1.83-9.47-1.81-3.63.02-6.79.66-9.37,1.91-2.6,1.26-4.74,2.94-6.36,5-1.46,1.85-2.83,4.17-4.08,6.89L4.25,82.12c-1.22,2.58-2.08,4.56-2.62,6.04-.65,1.77-.97,3.54-.96,5.25.01,2.31.84,5.71,4.69,8.77,2.85,2.26,6.16,3.4,9.84,3.37,4.42-.02,7.76-1.28,9.93-3.73Zm23.95-52.39l6.31-12.76,6.57,12.69-12.88.07Z"/>
          <path class="cls-3" d="m54.97,29.2c.35,1.83.34,5.71.42,7.46l6.57,12.69-12.12.07c-2.05.83-3.83,2.16-4.39,4.26,7.61-.51,15.25.46,22.84-.38-3.23-7.3-8.82-17.54-13.32-24.1Z"/>
          <path class="cls-3" d="m107.97,81.02l-29.57-60.55c-1.41-3.08-2.58-5.53-3.49-7.38-1.02-2.06-2.29-4.01-3.77-5.79-1.64-1.98-3.79-3.6-6.39-4.82-2.6-1.22-5.79-1.83-9.47-1.81-3.63.02-6.79.66-9.37,1.91-.64.31-1.26.65-1.84,1.01,3.65-1.17,7.62-.72,11.7,2.51,9.57,7.59,14.8,20.24,19.58,31.13,4.18,9.53,8.77,18.89,13.31,28.24,3.36,6.92,9.67,15.44,9.23,23.46-.32,5.75-6.65,5.26-9.95,2.89-5.45-3.92-7-11.49-10.53-16.82-.14-.22-.16-.46-.13-.7-16.26.05-32.51.83-48.77.89-3.62,8.62-5.8,25.12-18.52,23.6-4.74-.56-7.62-3.85-9.07-7.95-.16.86-.24,1.72-.23,2.56.01,2.31.84,5.71,4.69,8.77,2.85,2.26,6.16,3.4,9.84,3.37,4.42-.02,7.76-1.28,9.93-3.73,1.73-1.95,3.67-5.4,5.9-10.52l4.34-9.96,40.87-.23,4.49,9.78c.73,1.48,1.61,3.18,2.63,5.11,1.17,2.22,2.28,3.87,3.38,5.03,1.21,1.27,2.71,2.29,4.46,3.01,1.72.71,3.73,1.06,5.99,1.05,3.91-.02,7.32-1.24,10.13-3.63,3.73-3.17,4.5-6.53,4.48-8.8-.01-2.73-1.25-6.44-3.86-11.63Z"/>
          <path class="cls-1" d="m47.14,6.57c-10,5.55-13.06,19.68-17.56,29.44-3.22,6.99-6.6,13.91-9.6,21-2.8,6.65-6.16,13.37-7.88,20.39-.29,1.18,1.4.74,1.73.02,5.56-12.22,10.34-24.74,16.08-36.89,2.83-5.99,5.41-12.05,7.96-18.16,2.42-5.8,6.24-10.26,9.76-15.3.27-.38-.12-.71-.49-.5Z"/>
          <path class="cls-1" d="m10.06,81.55c-1.1,1.66-1.97,3.58-2.73,5.42-.63,1.54,1.77,1.67,2.13.32.49-1.81,1.29-3.74,1.36-5.62.02-.49-.55-.44-.77-.12Z"/>
        </g>
      </g>
    </g>
  </g>
</svg>