<?xml version="1.0" encoding="UTF-8"?>
<svg xmlns="http://www.w3.org/2000/svg" viewBox="0 0 101.96 102.99">
  <defs>
    <style>
      .cls-1 {
        fill: #fff;
      }

      .cls-2 {
        mix-blend-mode: multiply;
      }

      .cls-2, .cls-3 {
        fill: #0097d8;
      }

      .cls-4 {
        fill: none;
        isolation: isolate;
      }

      .cls-3 {
        stroke: #221f1f;
        stroke-linecap: round;
        stroke-linejoin: round;
        stroke-width: 1.35px;
      }
    </style>
  </defs>
  <g class="cls-4">
    <g id="Layer_2" data-name="Layer 2">
      <g id="Layer_1-2" data-name="Layer 1">
        <g>
          <path class="cls-3" d="m5.53,98.69c2.83,2.47,7.09,3.66,12.99,3.63l34.24-.19c6.02-.03,11.37-.32,15.91-.85,4.68-.54,8.91-1.49,12.61-2.81,6.07-2.28,10.97-5.86,14.55-10.63,3.66-4.86,5.49-10.4,5.46-16.45-.06-10.76-5.66-18.65-16.66-23.52,7.45-4.95,11.19-11.7,11.15-20.15-.02-3.23-.68-6.34-1.95-9.24-1.26-2.86-3.1-5.5-5.46-7.83-2.31-2.28-5-4.19-7.98-5.66-3.46-1.74-7.4-2.92-11.7-3.51-4.09-.55-8.94-.82-14.42-.79l-36.3.2c-5.77.03-9.96,1.23-12.81,3.65C2.15,7.08.65,11.03.67,16.28l.4,70.82c.03,5.13,1.53,9.03,4.46,11.58Zm46.81-63c-.68,1.29-1.79,2.39-3.29,2.98-1.71.67-4.26,1.03-7.57,1.05l-10.76.06-.08-14.29s9.24-.05,9.27-.05c3.54-.01,8.43.42,11.19,2.76,2.2,1.86,2.51,5.06,1.23,7.5Zm5.01,37.42c.06,6.15-8,7.48-13.39,7.52l-13.01.07s-.09-16.27-.09-16.27c0-.38,14.1-.21,15.38-.05,4.87.63,10.39,2.74,11.05,7.82.04.31.06.62.07.91Z"/>
          <path class="cls-2" d="m45.82,22.67c-3.23-.37-6.63-.58-9.88-.23-1.27.14-8.62.55-5.42,2.49.27.17.59.35.93.56,2.24-.01,8.44-.05,8.47-.05,3.54-.01,8.43.42,11.19,2.76,2.2,1.86,2.51,5.06,1.23,7.5-.68,1.29-1.79,2.39-3.29,2.98-1.71.67-4.26,1.03-7.57,1.05l-9.21.05c2.55,3.59,11.35,2.4,15.02,2.08,5.96-.53,14.1-8.12,8.97-14.4-2.58-3.16-6.53-4.33-10.45-4.78Z"/>
          <path class="cls-2" d="m35.31,62.78c-.4.01-5.67.29-5.17.78.28.27.58.53.87.8,1.42-.3,14.03-.14,15.23,0,4.87.63,10.39,2.74,11.05,7.82.04.31.06.62.07.91.06,6.15-8,7.48-13.39,7.52l-11.63.06c3.22,3.44,11.57,3.35,15.34,2.94,6.07-.66,16.11-4.67,12.57-13.2-4.07-9.81-16.45-7.94-24.93-7.64Z"/>
          <path class="cls-2" d="m84.63,47.85c7.45-4.95,11.19-11.7,11.15-20.15-.02-3.23-.68-6.34-1.95-9.24-1.26-2.86-3.1-5.5-5.46-7.83-2.31-2.28-5-4.19-7.98-5.66-.4-.2-.82-.37-1.23-.55,4.41,3.72,7.81,8.35,9.25,14.08,2.98,11.91-3.93,27.77-15.67,32.79,5.98,2.91,12.05,6.01,15.39,11.66,5.15,8.71,4.68,19.02-2.45,26.43-7.83,8.13-23.26,7.54-33.59,7.65-7.05.08-14.11-.24-21.16-.07-10.07.25-21.02-1.02-26.54-10.69-1.57-2.76-2.62-5.9-3.36-9.17l.06,10.01c.03,5.13,1.53,9.03,4.46,11.58,2.83,2.47,7.09,3.66,12.99,3.63l34.24-.19c6.02-.03,11.37-.32,15.91-.85,4.68-.54,8.91-1.49,12.61-2.81,6.07-2.28,10.97-5.86,14.55-10.63,3.66-4.86,5.49-10.4,5.46-16.45-.06-10.76-5.66-18.65-16.66-23.52Z"/>
          <path class="cls-1" d="m14.91,4.65C4.73,8.17,5.53,20.87,5.57,29.83c.03,7.78.33,15.54.81,23.3.49,7.81-1.01,16.22.49,23.87.26,1.32,1.92.42,2.09-.51.9-5.05.34-10.39.34-15.51,0-6.68-.23-13.34-.47-20.01-.21-5.94-.21-11.9-.14-17.84.08-6,.08-14.94,6.31-18.15.19-.1.14-.42-.09-.34Z"/>
          <path class="cls-1" d="m60.5,4.11c-.23,0-.43.33-.33.51,3.91.67,7.21,2.09,9.89,4.09,1.21.77,2.35,1.6,3.33,2.52,3.15,2.93,4.34,6.45,4.69,10.23.52,2.29.74,4.69.67,7.17.48.04,1.09-.28,1.28-.8,4.66-12.84-6.97-24.27-19.53-23.72Z"/>
          <path class="cls-1" d="m84.97,63.07c-2.35-3.29-7.18-6.85-11.51-6.74,4.33,1.82,9.12,5.58,11.06,9.48,1.83,3.68,2.02,7.42,1.38,11.17.39,0,.82-.21,1.01-.57,2.26-4.25.73-9.6-1.95-13.34Z"/>
        </g>
      </g>
    </g>
  </g>
</svg>