<?xml version="1.0" encoding="UTF-8"?>
<svg xmlns="http://www.w3.org/2000/svg" viewBox="0 0 108.55 105.99">
  <defs>
    <style>
      .cls-1 {
        fill: #fff;
      }

      .cls-2 {
        mix-blend-mode: multiply;
      }

      .cls-2, .cls-3 {
        fill: #abcc38;
      }

      .cls-4 {
        fill: none;
        isolation: isolate;
      }

      .cls-3 {
        stroke: #221f1f;
        stroke-linecap: round;
        stroke-linejoin: round;
        stroke-width: 1.35px;
      }
    </style>
  </defs>
  <g class="cls-4">
    <g id="Layer_2" data-name="Layer 2">
      <g id="Layer_1-2" data-name="Layer 1">
        <g>
          <path class="cls-3" d="m41.79,103.93c5.05.96,10.71,1.42,16.82,1.39,8.18-.05,15.47-1.22,21.68-3.48,6.26-2.28,11.51-5.31,15.58-8.99,4.07-3.68,7.12-7.51,9.05-11.4,1.98-4,2.98-7.82,2.96-11.38-.02-3.43-1.5-6.43-4.28-8.68-2.6-2.11-5.72-3.16-9.26-3.14-4.2.02-7.41,1.23-9.52,3.57-3.45,3.83-4.27,9.21-7.46,13.2-8.31,10.38-26.81,9.43-35.64.31-10.09-10.42-10.91-29.48-1.42-40.5,6.91-8.02,17.34-12.38,27.62-8.15,3.79,1.56,9.75,4.98,12.01,8.52,2.03,3.19,3.9,5.42,5.7,6.84,2.11,1.66,5.07,2.49,8.8,2.47,3.51-.02,6.56-1.2,9.06-3.5,2.56-2.36,3.9-5.29,3.88-8.47-.03-4.84-2.24-9.88-6.59-14.98-4.14-4.87-10.09-8.96-17.68-12.18-7.52-3.18-16.16-4.76-25.68-4.71-7.8.04-15.25,1.27-22.16,3.66-6.97,2.41-13.14,5.95-18.35,10.54-5.25,4.62-9.32,10.26-12.11,16.73-2.78,6.45-4.16,13.79-4.12,21.85.03,4.94.62,9.69,1.76,14.11,1.15,4.45,2.87,8.69,5.14,12.61,2.26,3.91,5.02,7.49,8.23,10.67,3.58,3.48,7.57,6.33,11.84,8.46,4.24,2.11,9,3.67,14.14,4.64Z"/>
          <path class="cls-2" d="m103.6,61.39c-2.6-2.11-5.72-3.16-9.26-3.14-4.2.02-7.41,1.23-9.52,3.57-3.45,3.83-4.27,9.21-7.46,13.2-8.31,10.38-26.81,9.43-35.64.31-10.09-10.42-10.91-29.48-1.42-40.5,6.91-8.02,17.34-12.38,27.62-8.15,3.79,1.56,9.75,4.98,12.01,8.52,2.03,3.19,3.9,5.42,5.7,6.84,2.11,1.66,5.07,2.49,8.8,2.47,3.51-.02,6.56-1.2,9.06-3.5,2.56-2.36,3.9-5.29,3.88-8.47-.02-3.46-1.18-7.02-3.41-10.63.51,2.98.27,6.06-.95,8.89-2.2,5.09-9.64,7.03-14.36,4.45-9.97-5.45-17.18-14.52-29.36-15.4-9.21-.67-18.41,2.39-25.17,8.77-8.83,8.35-14.18,21.04-11.7,33.25,3.3,16.23,17.25,26.79,33.74,26.51,5.93-.1,10.93-.87,15.97-3.89,3.78-2.26,7.54-4.73,11.61-6.46,5.2-2.2,11.53-3.01,11.21,4.47-.42,9.74-13.62,15.39-21.43,17.78-13.83,4.21-29.29,4.09-42.85-1.19-5.62-2.2-10.74-5.14-15.27-8.66.13.14.26.28.39.41,3.58,3.48,7.57,6.33,11.84,8.46,4.24,2.11,9,3.67,14.14,4.64,5.05.96,10.71,1.42,16.82,1.39,8.18-.05,15.47-1.22,21.68-3.48,6.26-2.28,11.51-5.31,15.58-8.99,4.07-3.68,7.12-7.51,9.05-11.4,1.98-4,2.98-7.82,2.96-11.38-.02-3.43-1.5-6.43-4.28-8.68Z"/>
          <path class="cls-1" d="m40.54,7.08c-11.74,1.56-21.8,10.27-28.26,19.79-7.04,10.37-10.95,27.17-6.25,39.18.54,1.38,2.62-.08,2.45-1.21-1.86-12.11-1.21-24.17,5.23-34.93,5.73-9.57,16-19.23,26.83-22.31.25-.07.35-.56,0-.52Z"/>
          <path class="cls-1" d="m11.83,75.9c-.29-.53-.47-1.13-.65-1.7-.39-1.17-.77-2.12-1.66-2.97-.42-.4-1.21.18-1.1.7.14.71-.07,1.49.02,2.22.08.6.34,1.22.51,1.8.3,1.02.77,2.81,2.06,2.86.8.03,1.61-.63,1.52-1.49-.06-.57-.43-.94-.69-1.43Z"/>
        </g>
      </g>
    </g>
  </g>
</svg>