<?xml version="1.0" encoding="UTF-8"?>
<svg xmlns="http://www.w3.org/2000/svg" viewBox="0 0 104.53 102.95">
  <defs>
    <style>
      .cls-1 {
        fill: #fff;
      }

      .cls-2 {
        fill: none;
        isolation: isolate;
      }

      .cls-3 {
        fill: #ed0f6a;
        mix-blend-mode: multiply;
      }

      .cls-4 {
        fill: #d40f87;
        stroke: #221f1f;
        stroke-linecap: round;
        stroke-linejoin: round;
        stroke-width: 1.35px;
      }
    </style>
  </defs>
  <g class="cls-2">
    <g id="Layer_2" data-name="Layer 2">
      <g id="Layer_1-2" data-name="Layer 1">
        <g>
          <path class="cls-4" d="m63.06,101.16c4.36-.62,8.49-1.68,12.29-3.17,3.85-1.5,7.46-3.53,10.74-6.04,4.1-3.21,7.52-6.91,10.16-11,2.63-4.08,4.59-8.71,5.83-13.75,1.21-4.94,1.81-10.45,1.77-16.38-.1-18.29-6.57-32.12-19.2-41.1-4.89-3.56-10.41-6.01-16.39-7.28-5.74-1.22-12.66-1.81-20.57-1.77l-29.58.17c-5.82.03-10.05,1.24-12.93,3.68C2.16,7.1.64,11.04.67,16.25l.39,69.09c.02,3.47.41,6.27,1.19,8.56.96,2.83,2.96,5.01,5.93,6.49,2.63,1.3,6.21,1.92,10.96,1.89l29.57-.16c5.29-.03,10.11-.35,14.35-.95Zm-32.11-21.34l-.24-43.14,8.65-.05c5.01-.03,9.32.4,12.8,1.28,3.11.79,5.69,2.63,7.88,5.62,2.2,3.01,3.33,7.81,3.37,14.26.05,9.18-2.37,15.39-7.44,19.05-1.01.76-2.25,1.36-3.68,1.8-1.55.47-3.06.78-4.49.9-1.53.13-3.73.21-6.52.22l-10.33.06Z"/>
          <path class="cls-3" d="m52.94,36.09c-5.45-1.24-11.78-2.26-17.35-1.09-1.73.36-2.67.95-3.08,1.68l6.85-.04c5.01-.03,9.32.4,12.8,1.28,3.11.79,5.69,2.63,7.88,5.62,2.2,3.01,3.33,7.81,3.37,14.26.05,9.18-2.37,15.39-7.44,19.05-1.01.76-2.25,1.36-3.68,1.8-1.55.47-3.06.78-4.49.9-1.53.13-3.73.21-6.52.22l-8.92.05c5.08,4.02,15.17,3.34,20.4,1.51,9.91-3.47,15.4-12.76,15.69-23.05.29-10.32-4.91-19.77-15.52-22.18Z"/>
          <path class="cls-3" d="m84.65,9.72c-4.89-3.56-10.41-6.01-16.39-7.28-5.74-1.22-12.66-1.81-20.57-1.77l-9.67.06c26.22,5.76,49.82,25.32,51.09,53.5.45,10.06-.72,21.22-7.32,29.35-7.41,9.13-18.46,12.57-29.87,13.38-7.38.53-14.81.45-22.21.63-6.05.15-12.97.72-18.89-.85-4.5-1.19-7.4-3.45-9.42-6.58.2,1.37.48,2.62.86,3.73.96,2.83,2.96,5.01,5.93,6.49,2.63,1.3,6.21,1.92,10.96,1.89l29.57-.16c5.29-.03,10.11-.35,14.35-.95,4.36-.62,8.49-1.68,12.29-3.17,3.85-1.5,7.46-3.53,10.74-6.04,4.1-3.21,7.52-6.91,10.16-11,2.63-4.08,4.59-8.71,5.83-13.75,1.21-4.94,1.81-10.45,1.77-16.38-.1-18.29-6.57-32.12-19.2-41.1Z"/>
          <path class="cls-1" d="m18.63,5.06c-10.17.1-12.98,11.26-13.23,19.45-.19,6.35-.02,12.73-.04,19.09-.03,7.07-.57,10.56-.05,21.02.07,1.36,2.55,1.46,2.7.48,1.54-10.07.32-20.77.76-30.95.48-11.27-1.74-22.1,9.96-28.36.34-.18.35-.74-.1-.74Z"/>
          <path class="cls-1" d="m8.09,71.95c-.16-.77-.69-.92-1.23-.76-.22-.12-.61.11-.67.33,0,.01,0,.03,0,.05-.33.27-.6.63-.67,1-.31,1.6-.07,3.49-.02,5.11.02,0,.04-.01.06-.02.28,1.43,2.53.78,2.57-.61.04-1.61.33-3.54-.02-5.11Z"/>
        </g>
      </g>
    </g>
  </g>
</svg>