<?xml version="1.0" encoding="UTF-8"?>
<svg xmlns="http://www.w3.org/2000/svg" viewBox="0 0 88.23 103.09">
  <defs>
    <style>
      .cls-1 {
        fill: #fff;
      }

      .cls-2 {
        stroke: #221f1f;
        stroke-linecap: round;
        stroke-linejoin: round;
        stroke-width: 1.35px;
      }

      .cls-2, .cls-3 {
        fill: #f89832;
      }

      .cls-4 {
        fill: none;
        isolation: isolate;
      }

      .cls-3 {
        mix-blend-mode: multiply;
      }
    </style>
  </defs>
  <g class="cls-4">
    <g id="Layer_2" data-name="Layer 2">
      <g id="Layer_1-2" data-name="Layer 1">
        <g>
          <path class="cls-2" d="m74.33,102.1c4.08-.02,7.18-.97,9.46-2.89,2.48-2.09,3.78-4.96,3.76-8.31-.02-3.44-1.35-6.34-3.85-8.4-2.3-1.9-5.41-2.81-9.5-2.78l-45.53.25-.11-19.58,40.16-.22c4.08-.02,7.11-.97,9.27-2.87,2.33-2.05,3.56-4.84,3.54-8.08-.02-3.27-1.31-6.04-3.72-8.02-2.21-1.81-5.23-2.67-9.21-2.65l-40.15.22-.09-15.91,43.9-.24c4.14-.02,7.23-.95,9.47-2.82,2.43-2.05,3.71-4.9,3.69-8.25-.02-3.31-1.33-6.12-3.79-8.14-2.25-1.85-5.36-2.74-9.5-2.72l-55.36.31c-3.41.02-6.19.5-8.5,1.48-2.64,1.12-4.63,2.95-5.88,5.43-1.16,2.28-1.74,5.13-1.72,8.49l.4,70.82c.03,5.2,1.46,9.13,4.24,11.66,2.66,2.43,6.59,3.59,12.03,3.56l56.98-.32Z"/>
          <path class="cls-3" d="m83.7,82.5c-2.3-1.9-5.41-2.81-9.5-2.78l-45.53.25-.11-19.58,40.16-.22c4.08-.02,7.11-.97,9.27-2.87,2.33-2.05,3.56-4.84,3.54-8.08-.02-3.27-1.31-6.04-3.72-8.02-2.21-1.81-5.23-2.67-9.21-2.65l-40.15.22-.09-15.91,43.9-.24c4.14-.02,7.23-.95,9.47-2.82,2.43-2.05,3.71-4.9,3.69-8.25-.02-3.31-1.33-6.12-3.79-8.14-1.41-1.16-3.2-1.9-5.32-2.31,1.4,1,2.52,2.26,3.02,3.88,1.35,4.38-.05,8.93-4.28,11.2-6.97,3.74-15.67,3.37-23.35,3.34-9.24-.03-18.48-.41-27.67.55.4,7.09.24,14.18.12,21.27,11.83.88,23.71-.43,35.52.35,5.59.37,14.34,1.52,14.67,8.83.33,7.25-13,6.16-17.09,5.93-10.95-.6-20.98-.37-31.96-.41-.52,3.63-.41,8.1-.36,10.85.1,5.34.14,10.69.18,16.04,8.27-.99,17.33.88,25.54.52,6.14-.27,12.45-.6,18.54.45,3.89.68,8.95,1.87,10.04,6.27,1.23,4.97-4.41,7.92-8.21,9.02-5.91,1.71-12.3,1.18-18.36,1.13-11.34-.1-22.73.35-34.06.64-2.92.08-6.59.16-10.29-.13,2.37,1.1,5.35,1.64,9.04,1.62l56.98-.32c4.08-.02,7.18-.97,9.46-2.89,2.48-2.09,3.78-4.96,3.76-8.31-.02-3.44-1.35-6.34-3.85-8.4Z"/>
          <path class="cls-1" d="m13.76,5.07c-9.59.46-8.97,14.08-8.99,20.64-.05,15.39.64,30.77.59,46.17,0,1.84,2.87.51,2.86-1.04-.04-11.18-.11-22.34-.43-33.52-.27-9.41-2.75-25.26,6.07-31.51.29-.21.4-.76-.1-.74Z"/>
          <path class="cls-1" d="m7.85,76.26c-.62-1.06-2.23-.18-2.3.84-.05.8.06,1.53.04,2.32-.07,2.06,2.74,1.05,2.7-.65-.02-.92.03-1.71-.44-2.52Z"/>
        </g>
      </g>
    </g>
  </g>
</svg>