<?xml version="1.0" encoding="UTF-8"?>
<svg xmlns="http://www.w3.org/2000/svg" viewBox="0 0 86.65 104.7">
  <defs>
    <style>
      .cls-1 {
        fill: #fff;
      }

      .cls-2 {
        stroke: #221f1f;
        stroke-linecap: round;
        stroke-linejoin: round;
        stroke-width: 1.35px;
      }

      .cls-2, .cls-3 {
        fill: #0086b6;
      }

      .cls-4 {
        fill: none;
        isolation: isolate;
      }

      .cls-3 {
        mix-blend-mode: multiply;
        opacity: .4;
      }
    </style>
  </defs>
  <g class="cls-4">
    <g id="Layer_2" data-name="Layer 2">
      <g id="Layer_1-2" data-name="Layer 1">
        <g>
          <path class="cls-2" d="m81.88,3.39c-2.44-1.85-5.8-2.74-10.28-2.71l-53.49.3c-3.68.02-6.69.5-9.2,1.48-2.86,1.12-5,2.95-6.36,5.44-1.26,2.28-1.89,5.14-1.87,8.49l.41,72.49c.03,4.93,1.51,8.76,4.42,11.38,2.8,2.53,6.4,3.8,10.67,3.77,4.21-.02,7.76-1.32,10.53-3.85,2.88-2.62,4.33-6.49,4.3-11.48l-.16-27.43c9.09-.06,18.28.31,27.36-.15,8.07-.4,14.95-7.58,9.71-15.6-3.69-5.66-10.44-5.99-16.52-5.93-5.51.06-11.02.08-16.53.1-1.38,0-2.76,0-4.14.02l-.1-16.88,41.1-.23c4.48-.03,7.83-.95,10.25-2.83,2.64-2.04,4.03-4.9,4.01-8.25-.02-3.31-1.44-6.13-4.09-8.14Z"/>
          <path class="cls-3" d="m81.88,3.39c-2.21-1.68-5.22-2.52-9.1-2.66,1.62,1,3.01,2.29,3.95,4.21,1.81,3.69-.58,8.87-4.06,10.62-7.08,3.57-16.71,2.87-24.36,3.17-7.72.3-13.75-.64-20.85-.1.57,8.61-.6,16.34.34,24.92,2.08.09,5.1-.41,6.21-.44,3.79-.1,7.58-.23,11.37-.27,5.93-.06,10.68-.15,15.37,4,5.64,5.01-.44,9.88-5.69,10.54-9.14,1.16-18.77.97-28.1.9.34,3.83.18,7.68.06,11.56-.18,6.33.9,13.11-.56,19.33-1.56,6.68-7.13,12.2-14.53,9.28-5.15-2.03-8.57-5.86-10.85-10.52v.92c.03,4.93,1.51,8.76,4.42,11.38,2.8,2.53,6.4,3.8,10.67,3.77,4.21-.02,7.76-1.32,10.53-3.85,2.88-2.62,4.33-6.49,4.3-11.48l-.16-27.43c9.09-.06,18.28.31,27.36-.15,8.07-.4,14.95-7.58,9.71-15.6-3.69-5.66-10.44-5.99-16.52-5.93-5.51.06-11.02.08-16.53.1-1.38,0-2.76,0-4.14.02l-.1-16.88,41.1-.23c4.48-.03,7.83-.95,10.25-2.83,2.64-2.04,4.03-4.9,4.01-8.25-.02-3.31-1.44-6.13-4.09-8.14Z"/>
          <path class="cls-1" d="m15.13,4.23C6.97,6.48,4.3,13.09,4.27,20.97c-.06,12-.68,24.05.31,36.05.14,1.74,2.82.66,2.86-.69.26-7.92-.38-17.33-.38-25.26,0-10.52-1.82-19.36,8.28-26.15.35-.24.31-.82-.19-.68Z"/>
          <path class="cls-1" d="m5.73,60.68c-.41-.34-1.03.06-1.09.54-.1.85-.27,1.66-.34,2.52-.07.84.03,1.72.05,2.56.03.77.92.98,1.51.77.74-.27,1.2-.97,1.18-1.75-.03-1.42-.12-3.67-1.31-4.64Z"/>
        </g>
      </g>
    </g>
  </g>
</svg>