<?xml version="1.0" encoding="UTF-8"?>
<svg xmlns="http://www.w3.org/2000/svg" viewBox="0 0 115.64 106">
  <defs>
    <style>
      .cls-1 {
        fill: #fff;
      }

      .cls-2 {
        stroke: #221f1f;
        stroke-linecap: round;
        stroke-linejoin: round;
        stroke-width: 1.35px;
      }

      .cls-2, .cls-3 {
        fill: #d31920;
      }

      .cls-3 {
        mix-blend-mode: multiply;
      }

      .cls-4 {
        fill: none;
        isolation: isolate;
      }
    </style>
  </defs>
  <g class="cls-4">
    <g id="Layer_2" data-name="Layer 2">
      <g id="Layer_1-2" data-name="Layer 1">
        <g>
          <path class="cls-2" d="m114.86,61.51c-.02-4.1-1-7.34-2.91-9.61-1.88-2.25-4.36-3.7-7.35-4.33-2.43-.51-5.39-.76-8.79-.74l-25.76.14c-3.9.02-7.11.98-9.54,2.84-2.7,2.07-4.12,4.87-4.1,8.11.02,3.93,1.91,7.01,5.31,8.67,2.7,1.32,6.36,1.95,11.2,1.92l13.97-.08.05,9.32c-3.8,1.63-7.58,2.93-11.27,3.87-.82.21-1.66.38-2.5.55-8.01,1.04-17.19.69-24.47-4.66-7.38-5.43-10.03-12.98-10.54-21.98-.59-10.39,5.42-20.14,13.92-25.65,6.33-4.1,14.41-4.83,21.51-2.44,8.99,3.03,12.85,13.73,23.33,13.67,3.78-.02,7.09-1.16,9.84-3.38,2.95-2.39,4.49-5.49,4.47-8.98-.02-2.95-1.12-6.09-3.37-9.57-2.1-3.24-5.19-6.3-9.18-9.11-3.95-2.77-9.08-5.07-15.26-6.83-6.12-1.75-13.21-2.61-21.05-2.56-9.49.05-18.12,1.29-25.66,3.68-7.65,2.43-14.25,5.97-19.61,10.53-5.43,4.62-9.59,10.3-12.36,16.9C2,38.31.63,45.57.68,53.34c.04,7.93,1.54,15.22,4.44,21.68,2.92,6.5,7.15,12.1,12.56,16.64,5.37,4.51,11.9,7.97,19.42,10.29,7.42,2.28,15.71,3.42,24.64,3.37,7.62-.04,14.78-.83,21.27-2.33,6.47-1.5,13.28-3.89,20.23-7.1,2.57-1.19,4.74-2.47,6.45-3.8,2.02-1.57,3.44-3.4,4.22-5.46.72-1.88,1.07-4.19,1.05-7.07l-.1-18.06Z"/>
          <path class="cls-3" d="m95.14,27.76c-8.8,1.51-14.93-4.82-22.91-7.05-9.66-2.7-21.08-1.04-29.45,4.64-16.46,11.18-18.45,35.66-6.38,50.97,6.67,8.46,18.25,12.92,28.98,10.95,5.19-.95,13.3-3.12,17.1-7.79-2.29.83-4.57,1.58-6.81,2.15-.82.21-1.66.38-2.5.55-8.01,1.04-17.19.69-24.47-4.66-7.38-5.43-10.03-12.98-10.54-21.98-.59-10.39,5.42-20.14,13.92-25.65,6.33-4.1,14.41-4.83,21.51-2.44,8.99,3.03,12.85,13.73,23.33,13.67,3.78-.02,7.09-1.16,9.84-3.38,2.95-2.39,4.49-5.49,4.47-8.98-.02-2.95-1.12-6.09-3.37-9.57-1.57-2.42-3.7-4.75-6.34-6.95,2.34,6.41,1.03,14.25-6.38,15.52Z"/>
          <path class="cls-3" d="m114.86,61.51c-.02-4.1-1-7.34-2.91-9.61-1.88-2.25-4.36-3.7-7.35-4.33-2.43-.51-5.39-.76-8.79-.74l-25.76.14c-3.9.02-7.11.98-9.54,2.84-1.49,1.14-2.55,2.53-3.23,4.07,3.97-1.89,8.55-1.92,12.93-1.98,7.66-.09,15.33.06,22.99.29,3.69.11,7.28.24,10.3,2.58,3.73,2.89,3.98,9.78,3.95,13.98-.03,5.27-.54,10.85-3.59,15.33-5.38,7.92-13.74,12.94-22.88,15.5-19.7,5.5-44.84,4.47-61.59-8.41-5.64-4.33-10.29-9.56-13.87-15.37,2.9,6.16,6.97,11.52,12.16,15.87,5.37,4.51,11.9,7.97,19.42,10.29,7.42,2.28,15.71,3.42,24.64,3.37,7.62-.04,14.78-.83,21.27-2.33,6.47-1.5,13.28-3.89,20.23-7.1,2.57-1.19,4.74-2.47,6.45-3.8,2.02-1.57,3.44-3.4,4.22-5.46.72-1.88,1.07-4.19,1.05-7.07l-.1-18.06Z"/>
          <path class="cls-1" d="m39.5,6.47c-12.72,3.64-22.97,12.72-29.33,24.18-5.98,10.78-7.69,27.88-2.58,39.24.74,1.64,3.37-.06,3.05-1.51-1.06-4.7-2.23-8.79-2.3-13.68-.11-7.33,1.01-14.52,3.75-21.32,4.85-12.02,16.12-20.89,27.5-26.27.35-.17.42-.78-.08-.64Z"/>
          <path class="cls-1" d="m14.98,79.36c-.08-.13-.17-.24-.25-.37-.9-1.09-1.13-2.55-1.96-3.7-.78-1.08-2.77.52-2.47,1.58.44,1.56,1.14,3.21,2.26,4.41.99,1.06,3.15-.74,2.42-1.92Z"/>
          <path class="cls-1" d="m84.81,63.05c-5.69.23-20.51,2.03-23.54-4.7-.15-.34-.56.04-.57.28-.08,13.54,27.04,1.06,28.21,9.47.17,1.22,1.81.39,1.92-.46.6-4.48-2.18-4.74-6.02-4.59Z"/>
        </g>
      </g>
    </g>
  </g>
</svg>