<?xml version="1.0" encoding="UTF-8"?>
<svg xmlns="http://www.w3.org/2000/svg" viewBox="0 0 91.49 106.35">
  <defs>
    <style>
      .cls-1 {
        fill: #fff;
      }

      .cls-2 {
        mix-blend-mode: multiply;
      }

      .cls-2, .cls-3 {
        fill: #f174a7;
      }

      .cls-4 {
        fill: none;
        isolation: isolate;
      }

      .cls-3 {
        stroke: #221f1f;
        stroke-linecap: round;
        stroke-linejoin: round;
        stroke-width: 1.35px;
      }
    </style>
  </defs>
  <g class="cls-4">
    <g id="Layer_2" data-name="Layer 2">
      <g id="Layer_1-2" data-name="Layer 1">
        <g>
          <path class="cls-3" d="m27.51,90.36l-.16-28.07,36.88-.21.16,28.07c.03,4.86,1.29,8.67,3.75,11.3,2.42,2.59,5.6,3.89,9.44,3.87,3.77-.02,6.93-1.32,9.4-3.87,2.57-2.65,3.85-6.5,3.83-11.44l-.42-74.23c-.03-4.94-1.35-8.77-3.92-11.37-2.48-2.5-5.67-3.76-9.48-3.73-3.79.02-6.93,1.34-9.34,3.91-2.47,2.65-3.71,6.46-3.68,11.34l.13,16.16-36.89.21-.13-16.16c-.03-4.94-1.34-8.77-3.92-11.37-2.48-2.5-5.67-3.76-9.48-3.74-3.89.02-7.07,1.35-9.44,3.95C1.85,7.62.65,11.42.67,16.28l.42,74.23c.03,4.86,1.29,8.66,3.75,11.3,2.42,2.59,5.6,3.89,9.45,3.87,3.77-.02,6.93-1.32,9.4-3.87,2.57-2.65,3.85-6.5,3.82-11.45Z"/>
          <path class="cls-2" d="m10.69,2.42c5.11,2.8,8.32,4.93,9.12,10.63.82,5.84-1.3,13.66.44,19.28,1.34,4.32,10.51,2.2,12.79-.07l-5.83.03-.13-16.16c-.03-4.94-1.34-8.77-3.92-11.37-2.48-2.5-5.67-3.76-9.48-3.74-1.66,0-3.16.31-4.55.79.51.14,1.03.33,1.54.61Z"/>
          <path class="cls-2" d="m47.44,54.3c-8.48.35-16.93,1.13-25.41,1.11-.1,8.65,1.27,17.27.64,25.91-.39,5.41-1.57,11.13-6.39,14.38-7.24,4.89-12.49.14-15.21-6.23v1.05c.03,4.86,1.29,8.66,3.75,11.3,2.42,2.59,5.6,3.89,9.45,3.87,3.77-.02,6.93-1.32,9.4-3.87,2.57-2.65,3.85-6.5,3.82-11.45l-.16-28.07,36.88-.21.05,9.24c.39-1.91.73-3.87,1.01-5.89.42-2.98,2.27-5,2.91-7.83.33-1.42.04-2.41-.58-3.11-6.73-.07-13.45-.46-20.19-.18Z"/>
          <path class="cls-2" d="m90.4,15.78c-.03-4.94-1.35-8.77-3.92-11.37-2.48-2.5-5.67-3.76-9.48-3.73-3.79.02-6.93,1.34-9.34,3.91-.03.03-.05.08-.08.11,3.35-1.12,7.24-.84,10.8,1.35,5.72,3.52,5.69,10.83,5.93,16.74.43,10.75.23,21.51.74,32.27.51,10.61,1.25,21.29.67,31.92-.3,5.51-1.99,12.05-7.45,14.73-3.69,1.81-6.74,1.74-9.25.5,2.3,2.05,5.15,3.13,8.57,3.11,3.77-.02,6.93-1.32,9.4-3.87,2.57-2.65,3.85-6.5,3.83-11.44l-.42-74.23Z"/>
          <path class="cls-1" d="m11.11,5.55c-7.11,3.6-6.1,11.88-6.37,18.65-.44,10.69-.62,22,.19,32.67.13,1.66,2.61.6,2.69-.65.51-7.82-.12-15.8-.17-23.64-.05-8.27-1.84-19.73,4-26.52.27-.32.06-.71-.34-.5Z"/>
          <path class="cls-1" d="m7.56,63.35c-.02-.44-.05-.89-.03-1.33.12-2.05-2.52-1.16-2.81.33-.27,1.36.12,2.93.16,4.31.02.79.96,1.01,1.57.79.78-.29,1.23-1.01,1.23-1.81,0-.7,0-1.51-.11-2.28Z"/>
          <path class="cls-1" d="m71.27,6.01c-3.46,2.09-3.87,5.34-3.95,9.17-.12,5.64-.58,12.03.47,17.61.22,1.14,1.65.35,1.79-.43,1.5-8.3-1.48-18.34,2.13-26.01.15-.31-.21-.47-.45-.33Z"/>
          <path class="cls-1" d="m71.36,96.58c-2.92-4.13-1.63-15.06-1.46-19.95.13-3.73.41-7.84-1.04-11.33-.27-.65-1.23-.05-1.26.47-.35,5.83-.28,11.72-.23,17.56.04,4.38-1.27,11.57,2.27,14.94.93.88,2.41-.7,1.72-1.69Z"/>
          <path class="cls-1" d="m60.79,35.05c-7.01-.72-14.59-.43-21.56.57-.13.02-.27.27-.08.3,6.88,1.04,14.43.96,21.34.27.51-.05,1.01-1.06.3-1.13Z"/>
        </g>
      </g>
    </g>
  </g>
</svg>