<?xml version="1.0" encoding="UTF-8"?>
<svg xmlns="http://www.w3.org/2000/svg" viewBox="0 0 51.45 107.97">
  <defs>
    <style>
      .cls-1 {
        fill: #fff;
      }

      .cls-2 {
        mix-blend-mode: multiply;
      }

      .cls-2, .cls-3 {
        fill: #2e469a;
      }

      .cls-4 {
        fill: none;
        isolation: isolate;
      }

      .cls-3 {
        stroke: #221f1f;
        stroke-linecap: round;
        stroke-linejoin: round;
        stroke-width: 1.35px;
      }
    </style>
  </defs>
  <g class="cls-4">
    <g id="Layer_2" data-name="Layer 2">
      <g id="Layer_1-2" data-name="Layer 1">
        <g>
          <path class="cls-3" d="m43.45,85.7h-2.59s-.36-63.61-.36-63.61l3.06-.02c2.37-.01,4.2-1.07,5.44-3.15,1.19-2,1.79-4.58,1.77-7.67-.02-3.03-.65-5.56-1.88-7.53-1.27-2.03-3.1-3.06-5.44-3.04L7.91.87c-2.34.01-4.17,1.07-5.42,3.13-1.22,2-1.83,4.54-1.82,7.53.02,3.09.65,5.67,1.88,7.66,1.27,2.06,3.12,3.09,5.48,3.08h2.56s.36,63.61.36,63.61l-3.03.02c-2.34.01-4.17,1.07-5.42,3.13-1.22,2.01-1.83,4.54-1.82,7.53.02,3.09.65,5.67,1.88,7.66,1.27,2.06,3.12,3.09,5.48,3.08l35.54-.2c2.37-.01,4.2-1.07,5.44-3.15,1.19-2,1.79-4.58,1.77-7.67-.02-3.03-.65-5.56-1.88-7.53-1.27-2.03-3.1-3.05-5.44-3.04Z"/>
          <path class="cls-2" d="m43.45,85.7h-2.59s-.36-63.61-.36-63.61l3.06-.02c2.37-.01,4.2-1.07,5.44-3.15,1.19-2,1.79-4.58,1.77-7.67-.02-3.03-.65-5.56-1.88-7.53-1.27-2.03-3.1-3.06-5.44-3.04h-1.77c2.79,1.59,4.53,4.19,4.01,8.65-.83,7.07-6.87,9.78-13.32,10.26.24,3.06-.08,6.22-.04,9.26.08,6.46.35,12.93.38,19.39.06,13.42.76,26.82.81,40.24,0,.03-.02.05-.02.08,4.99.52,10.67,2.08,10.13,7.43-.84,8.27-11.93,8.58-18.29,8.53-7.17-.07-15.4.87-22.49-.43-.14-.03-.27-.07-.42-.1.04.08.07.17.12.24,1.27,2.06,3.12,3.09,5.48,3.08l35.54-.2c2.37-.01,4.2-1.07,5.44-3.15,1.19-2,1.79-4.58,1.77-7.67-.02-3.03-.65-5.56-1.88-7.53-1.27-2.03-3.1-3.05-5.44-3.04Z"/>
          <path class="cls-1" d="m12.5,15.84c-1.71-1.63-4.1-2.06-4.56-4.73-.26-1.49.35-4.79,1.64-5.6.15-.09.37-.5.08-.59-2.15-.67-3.31,3.88-3.68,5.2-.99,3.57,1.8,6.9,5.27,7.59.84.16,2-1.14,1.24-1.86Z"/>
          <path class="cls-1" d="m5.62,100.24c.14.1.3.12.46.11.38-.32.63-.81.64-1.56.01-1.31-.11-2.64.1-3.94.22-1.32.68-2.61,1.81-3.43,1.04-.75,2.27-1.21,3.27-1.99,0-.05.03-.11.01-.15-2.4.51-4.6,1.65-6.17,3.25-.19.33-.37.65-.52.97-.84,1.78-1.52,5.46.39,6.74Z"/>
          <path class="cls-1" d="m15.85,22.84c.07-.5-.6-.34-.73-.01-.92,2.44-.93,4.92-.86,7.49.14,5.1-.14,10.2-.15,15.3-.03,11.53.05,23.14.35,34.65.02.75,1.21.29,1.24-.3.41-9.56.29-19.16.34-28.73.02-4.82.26-9.66.24-14.48-.02-4.52-1.02-9.44-.42-13.91Z"/>
        </g>
      </g>
    </g>
  </g>
</svg>