<?xml version="1.0" encoding="UTF-8"?>
<svg xmlns="http://www.w3.org/2000/svg" viewBox="0 0 92.49 107.28">
  <defs>
    <style>
      .cls-1 {
        fill: #fff;
      }

      .cls-2 {
        fill: #7a8f44;
        mix-blend-mode: multiply;
      }

      .cls-3 {
        fill: none;
        isolation: isolate;
      }

      .cls-4 {
        fill: #006336;
        stroke: #221f1f;
        stroke-linecap: round;
        stroke-linejoin: round;
        stroke-width: 1.35px;
      }
    </style>
  </defs>
  <g class="cls-3">
    <g id="Layer_2" data-name="Layer 2">
      <g id="Layer_1-2" data-name="Layer 1">
        <g>
          <path class="cls-4" d="m89.93,3.72c-1.27-2.03-3.1-3.06-5.44-3.05l-35.54.2c-2.34.01-4.17,1.07-5.42,3.13-1.22,2-1.83,4.54-1.82,7.53.02,3.1.65,5.67,1.88,7.67,1.27,2.05,3.12,3.09,5.48,3.08l2.98-.02.26,46.94c.07,13.26-6.03,15-11.36,15.03-2.96.02-5.26-.48-6.66-1.44-1.5-1.03-2.52-2.19-3.13-3.54-.8-1.79-1.62-4.27-2.45-7.37-1.02-3.77-2.51-6.54-4.56-8.48-2.23-2.1-5.36-3.15-9.31-3.13-3.93.02-7.26,1.11-9.88,3.22-1.97,1.59-4.31,4.57-4.28,9.72.02,3.2.61,6.58,1.76,10.04,1.14,3.43,2.64,6.52,4.49,9.2,3.53,5.06,8.23,8.75,13.97,10.99,5.48,2.14,12.33,3.21,20.34,3.16,8.93-.05,16.65-1.68,22.97-4.84,6.54-3.27,11.31-7.93,14.17-13.83,1.67-3.42,2.76-6.86,3.22-10.23.44-3.18.65-7.03.63-11.44l-.25-44.17h2.64c2.37-.03,4.2-1.09,5.44-3.17,1.19-2,1.79-4.59,1.77-7.67-.02-3.03-.65-5.56-1.89-7.53Z"/>
          <path class="cls-2" d="m89.93,3.72c-1.21-1.94-2.94-2.93-5.12-3.01.07.07.15.11.21.18,2.8,2.96,3.26,10.52,1.84,14.27-1.59,4.2-5.73,3.04-10.31,4.19.73,8.35.62,20.21.53,28.6-.12,10.38.09,17.79-1.26,28.09-2.06,15.71-13.22,24.16-28.33,26.99-14.49,2.71-29.8-.2-39.01-12.67-5.8-7.85-7.74-17.02-5.03-25.42-1.49,1.75-2.81,4.4-2.79,8.27.02,3.2.61,6.58,1.76,10.04,1.14,3.43,2.64,6.52,4.49,9.2,3.53,5.06,8.23,8.75,13.97,10.99,5.48,2.14,12.33,3.21,20.34,3.16,8.93-.05,16.65-1.68,22.97-4.84,6.54-3.27,11.31-7.93,14.17-13.83,1.67-3.42,2.76-6.86,3.22-10.23.44-3.18.65-7.03.63-11.44l-.25-44.17h2.64c2.37-.03,4.2-1.09,5.44-3.17,1.19-2,1.79-4.59,1.77-7.67-.02-3.03-.65-5.56-1.89-7.53Z"/>
          <path class="cls-1" d="m50.2,16.51c-2.08-1.59-3.1-3.98-2.84-6.59.28-2.78,2.54-3.98,4.21-5.76-.04-.02-.07-.05-.15-.03-4.12.72-6.09,5.79-5.83,9.51.14,2.01,1.84,3.53,3.52,4.33,2,.95,4,.39,6.02.84.73.16,1.24-.12,1.58-.55-2.33.14-4.67-.34-6.51-1.75Z"/>
          <path class="cls-1" d="m16.35,63.87c-3.44-.98-7.21.32-9.22,3.17-.31.45.23.69.57.41,2.79-2.27,5.87-2.04,8.92-.52,2.55,1.27,2.98,4.53,4.74,6.51.48.54,1.21-.27,1.2-.77-.07-4.25-2.01-7.6-6.21-8.8Z"/>
          <path class="cls-1" d="m24.97,77.5c-.3-.46-.6-.91-.9-1.36-.22-.33-.62-.1-.75.18-.4.82-.53,1.68.11,2.41.61.69,2.03-.5,1.54-1.22Z"/>
          <path class="cls-1" d="m57.41,31.14c0-.41-.62-.14-.65.16-.67,7.96-.12,15.96-.38,23.94-.3,9.32,1.65,21.8-5.41,29.01-.52.53-.04,1.44.64.94,6.83-5.08,6.07-12.75,6.02-20.38-.1-16.24-.1-22.86-.23-33.66Z"/>
        </g>
      </g>
    </g>
  </g>
</svg>