<?xml version="1.0" encoding="UTF-8"?>
<svg xmlns="http://www.w3.org/2000/svg" viewBox="0 0 94.77 106.35">
  <defs>
    <style>
      .cls-1 {
        mix-blend-mode: multiply;
      }

      .cls-1, .cls-2 {
        fill: #00b7ec;
      }

      .cls-3 {
        fill: #fff;
      }

      .cls-4 {
        fill: none;
        isolation: isolate;
      }

      .cls-2 {
        stroke: #221f1f;
        stroke-linecap: round;
        stroke-linejoin: round;
        stroke-width: 1.35px;
      }
    </style>
  </defs>
  <g class="cls-4">
    <g id="Layer_2" data-name="Layer 2">
      <g id="Layer_1-2" data-name="Layer 1">
        <g>
          <g>
            <path class="cls-2" d="m76.18,102.38c7.23,1.02,16.5-2.16,17.75-10.91,1.13-7.95-3.59-13.65-9.68-17.55-2.31-1.48-4.66-2.92-6.99-4.39-2.26-1.42-4.52-2.85-6.75-4.32-5.65-3.72-11.31-7.44-16.96-11.16-.2-.13-3.26-2.39-3.43-2.26l36.22-28.15c4.05-3.47,6.09-7.21,6.07-11.14-.02-3.41-1.47-6.41-4.2-8.68-2.53-2.11-5.78-3.16-9.64-3.14-2.98.02-5.48.66-7.42,1.9-1.59,1.02-3.44,2.52-5.66,4.59L29.15,41.2l-.14-25.07c-.03-4.94-1.43-8.77-4.2-11.37-2.66-2.5-6.08-3.75-10.17-3.73-4.17.02-7.58,1.35-10.13,3.95C1.94,7.63.64,11.43.67,16.29l.39,70.05c.02,3.16.11,5.52.27,7.22.21,2.12.79,4.03,1.81,5.82,1.27,1.99,3.05,3.57,5.31,4.7,2.16,1.08,4.43,1.62,6.78,1.6,4.04-.02,7.42-1.31,10.07-3.83,2.76-2.63,4.15-6.49,4.12-11.49l-.1-17.74.81.43c3.01,2.27,14.62,9.84,21.81,15.44,4.61,3.6,9.18,6.98,13.96,10.12,3.29,1.81,6.7,3.27,10.28,3.77Z"/>
            <path class="cls-1" d="m29.16,71.4c-.48-.39-.98-.77-1.5-1.11-1.31-.86-2.62-1.66-3.83-2.61l.04,2.64c.05,1.4.12,2.88.14,4.28.08,6.55,1.15,14.26-.79,20.61-1.85,6.03-6.55,9.8-11.53,10.05,1.16.28,2.35.43,3.55.42,4.04-.02,7.42-1.31,10.07-3.83,2.76-2.63,4.15-6.49,4.12-11.49l-.1-17.74.3.16c-.16-.45-.32-.92-.47-1.38Z"/>
            <path class="cls-1" d="m13.51,3.98c.73.17,1.48.38,2.26.67,2.18.82,3.68,2.65,4.68,4.76.84,1.18,1.55,2.49,2.07,3.89,2.41,6.56,1.39,15.07,1.62,21.94.1,3.08-.78,11.64,3.89,6.64.39-.41.75-.84,1.12-1.26l-.14-24.5c-.03-4.94-1.43-8.77-4.2-11.37-2.66-2.5-6.08-3.75-10.17-3.73-3.64.02-6.65,1.09-9.07,3.07,2.67-1.09,5.41-1.03,7.94-.13Z"/>
            <path class="cls-1" d="m84.25,73.91c-2.31-1.48-4.66-2.92-6.99-4.39-2.26-1.42-4.52-2.85-6.75-4.32-5.65-3.72-11.31-7.44-16.96-11.16-.2-.13-3.26-2.39-3.43-2.26l36.22-28.15c4.05-3.47,6.09-7.21,6.07-11.14-.02-3.41-1.47-6.41-4.2-8.68-2.53-2.11-5.78-3.16-9.64-3.14-2.24.01-4.21.38-5.87,1.09,6.82-1.61,13.34-.91,13.37,6.87.05,9.98-10.46,16.67-17.16,22.5-8.2,7.13-16.51,14.14-24.7,21.28,3.97,2.78,8.32,4.89,12.31,7.7,5.22,3.69,10.57,7.17,15.82,10.81,6.14,4.26,14.35,9.73,14.96,18.01.54,7.33-4.81,13.08-12.41,12.23-3.04-.34-5.88-1.21-8.62-2.36,3.18,1.71,6.46,3.09,9.9,3.58,7.23,1.02,16.5-2.16,17.75-10.91,1.13-7.95-3.59-13.65-9.68-17.55Z"/>
            <path class="cls-3" d="m10.97,5.71C2.81,10.92,3.86,21.55,4.34,30.08c.71,12.6-.02,25.26.74,37.85.1,1.71,2.7.62,2.78-.67.54-9.24-.21-18.68-.46-27.94-.28-10.2-2.77-24.78,4.08-33.1.3-.37-.14-.74-.5-.51Z"/>
            <path class="cls-3" d="m7.69,77.77c-.03-.97.06-1.99-.33-2.89-.43-1-1.83-.21-2.08.5-.43,1.26-.35,2.71-.24,4.14,0,.8.04,1.6.15,2.35.1.71.82.95,1.44.73.72-.26,1.13-.92,1.13-1.67,0-1.06-.02-2.11-.06-3.17Z"/>
            <path class="cls-3" d="m76.18,6.01c-4.58-.39-7.8,3.21-10.86,6.23-6.13,6.07-12.02,12.35-18.52,18.03-1.27,1.11.2,2.59,1.46,1.49,9.48-8.3,17.34-18.6,27.92-25.41.11-.07.21-.33,0-.35Z"/>
          </g>
          <path class="cls-3" d="m56.22,84.15c-6.11-5.46-13.62-10.3-20.89-14.08-.21-.11-.46.2-.32.39,2.11,2.74,5.47,4.4,8.32,6.28,4.09,2.7,8.15,5.56,12.41,7.99.28.16.74-.34.47-.57Z"/>
        </g>
      </g>
    </g>
  </g>
</svg>