<?xml version="1.0" encoding="UTF-8"?>
<svg xmlns="http://www.w3.org/2000/svg" viewBox="0 0 80.81 104.37">
  <defs>
    <style>
      .cls-1 {
        fill: #fff;
      }

      .cls-2 {
        stroke: #221f1f;
        stroke-linecap: round;
        stroke-linejoin: round;
        stroke-width: 1.35px;
      }

      .cls-2, .cls-3 {
        fill: #8f61a8;
      }

      .cls-3 {
        mix-blend-mode: multiply;
      }

      .cls-4 {
        fill: none;
        isolation: isolate;
      }
    </style>
  </defs>
  <g class="cls-4">
    <g id="Layer_2" data-name="Layer 2">
      <g id="Layer_1-2" data-name="Layer 1">
        <g>
          <path class="cls-2" d="m23.74,4.4c-2.54-2.5-5.81-3.75-9.71-3.73-3.89.02-7.11,1.34-9.58,3.92C1.92,7.23.65,11.05.67,15.93l.41,72.55c.03,5.2,1.43,9.13,4.15,11.66,2.61,2.42,6.47,3.59,11.79,3.56l49.61-.28c4.12-.02,7.26-.98,9.61-2.91,2.57-2.14,3.92-5.09,3.9-8.55-.02-3.39-1.4-6.33-4-8.5-2.36-1.97-5.6-2.96-9.64-2.94l-38.38.22-.37-64.96c-.03-4.94-1.38-8.77-4.02-11.37Z"/>
          <path class="cls-3" d="m20.2,10.52c2,4.96,1.56,10.38,1.71,15.65.19,7.03.37,14.06.5,21.09.24,13.12.37,26.25.4,39.37,1.17-1.23,2.2-2.83,3.33-3.81.84-.73,1.71-1.44,2.62-2.09h-.63s-.37-64.96-.37-64.96c-.03-4.94-1.38-8.77-4.02-11.37-2.54-2.5-5.81-3.75-9.71-3.73-3.35.02-6.17,1.06-8.47,2.98,5.68-1.43,12.34,1.15,14.65,6.87Z"/>
          <path class="cls-3" d="m76.14,83.46c-1.88-1.57-4.36-2.49-7.33-2.8,2.52,2.35,4.13,5.63,3.62,9.01-1.61,10.7-14.66,10.46-23.12,10.86-7.72.37-15.44.27-23.16.27-5.58,0-11.62.25-17.1-1.08-2.59-.63-4.61-1.65-6.22-2.99.64,1.3,1.4,2.48,2.4,3.41,2.61,2.42,6.47,3.59,11.79,3.56l49.61-.28c4.12-.02,7.26-.98,9.61-2.91,2.57-2.14,3.92-5.09,3.9-8.55-.02-3.39-1.4-6.33-4-8.5Z"/>
          <path class="cls-1" d="m8.15,92.57c-2.06-6.03-1.05-12.79-1.37-19.08-.37-7.22-.4-14.49-.4-21.72,0-13.03-1.05-26.96,1-39.84.04-.27-.32-.18-.39,0-4.59,11.84-3.02,26.01-3.02,38.48,0,7.97,0,15.99.41,23.95.31,5.97-1.36,14.07,1.84,19.42.67,1.13,2.29-.17,1.93-1.22Z"/>
        </g>
      </g>
    </g>
  </g>
</svg>