<?xml version="1.0" encoding="UTF-8"?>
<svg xmlns="http://www.w3.org/2000/svg" viewBox="0 0 128.76 103.03">
  <defs>
    <style>
      .cls-1 {
        fill: #fff;
      }

      .cls-2 {
        stroke: #221f1f;
        stroke-linecap: round;
        stroke-linejoin: round;
        stroke-width: 1.35px;
      }

      .cls-2, .cls-3 {
        fill: #009cd8;
      }

      .cls-4 {
        fill: none;
        isolation: isolate;
      }

      .cls-3 {
        mix-blend-mode: multiply;
      }
    </style>
  </defs>
  <g class="cls-4">
    <g id="Layer_2" data-name="Layer 2">
      <g id="Layer_1-2" data-name="Layer 1">
        <g>
          <path class="cls-2" d="m123.74,98.14c2.91-2.47,4.38-6.02,4.35-10.55l-.41-73.19c-.04-6.72-3.44-9.81-6.3-11.23-3.41-1.68-7.89-2.52-13.33-2.49l-7.75.04c-5.14.03-8.87.42-11.41,1.19-3.06.94-5.37,2.65-6.86,5.1-1.14,1.87-2.36,4.71-3.71,8.68l-13.92,40.03-14.36-39.86c-1.41-3.97-2.66-6.8-3.81-8.64-1.49-2.4-3.89-4.14-6.92-5.03-2.55-.75-6.28-1.09-11.42-1.07l-7.75.05c-5.44.03-9.91.92-13.3,2.64C4.01,5.25.64,8.38.67,15.1l.41,73.19c.03,4.59,1.55,8.15,4.55,10.57,2.89,2.34,6.58,3.51,10.96,3.49,4.51-.02,8.24-1.26,11.08-3.68,2.91-2.47,4.38-6.02,4.35-10.56l-.22-39.65,12.21,35.71c.69,1.94,1.36,3.81,2.02,5.61.77,2.1,1.85,4.05,3.18,5.78,1.49,1.94,3.57,3.54,6.18,4.74,2.59,1.2,5.71,1.8,9.27,1.78,4.74-.03,8.6-1.03,11.47-2.99,2.75-1.87,4.69-4.03,5.76-6.42.86-1.92,1.92-4.78,3.23-8.76l11.8-35.81.22,39.64c.02,4.54,1.55,8.09,4.53,10.52,2.89,2.38,6.56,3.57,10.9,3.54,4.57-.03,8.33-1.27,11.16-3.68Z"/>
          <path class="cls-3" d="m32.02,48.48c-.99-5.12-2.19-10.18-4.57-14.88-.46,14.44.69,28.91-.04,43.35-.51,10.07-1.74,19.98-13.06,22.67-4.25,1.01-7.95-.63-11.08-3.35.65.97,1.42,1.85,2.35,2.6,2.89,2.34,6.58,3.51,10.96,3.49,4.51-.02,8.24-1.26,11.08-3.68,2.91-2.47,4.38-6.02,4.35-10.56l-.22-39.65.31.91c-.03-.31-.06-.61-.09-.91Z"/>
          <path class="cls-3" d="m96.93,48.25c1.4-5.41,2.73-10.84,2.7-16.44-2.11,3.84-4.26,10.88-5.85,14.77-5.16,12.57-8.82,25.76-14.09,38.24-3.44,8.16-11.57,17.67-21.58,13.55-5.44-2.23-9.02-6.24-11.5-11.51-2.04-4.35-4.19-8.71-6.17-13.13l3.58,10.46c.69,1.94,1.36,3.81,2.02,5.61.77,2.1,1.85,4.05,3.18,5.78,1.49,1.94,3.57,3.54,6.18,4.74,2.59,1.2,5.71,1.8,9.27,1.78,4.74-.03,8.6-1.03,11.47-2.99,2.75-1.87,4.69-4.03,5.76-6.42.86-1.92,1.92-4.78,3.23-8.76l11.8-35.81v.13Z"/>
          <path class="cls-3" d="m127.68,14.39c-.04-6.72-3.44-9.81-6.3-11.23-1.53-.75-3.3-1.31-5.25-1.72,1.68,1.24,3.02,2.69,4.27,4.38,3.37,4.55,2.82,12.33,2.79,17.62-.09,16.43.08,32.85-.03,49.28-.05,7.81-.66,19.38-8.99,23.21-6.91,3.18-12.61,1.32-16.5-4.02.68,2.59,2,4.73,4,6.36,2.89,2.38,6.56,3.57,10.9,3.54,4.57-.03,8.33-1.27,11.16-3.68,2.91-2.47,4.38-6.02,4.35-10.55l-.41-73.19Z"/>
          <path class="cls-1" d="m14.43,5.16C6.29,6.03,3.61,15.14,3.55,22.02c-.12,12.73.5,25.43.8,38.15.04,1.56,2.59.62,2.61-.63.09-8.12-.43-16.24-.51-24.36-.05-5.15.03-10.3.15-15.44.14-6.16,3.48-10.28,8.02-13.95.24-.2.19-.66-.18-.62Z"/>
          <path class="cls-1" d="m94.41,5.12c-10.49,1.8-13.56,14.42-16.6,22.98-4.37,12.27-8.36,24.79-11.07,37.57-.6-1.01-1.31-2-1.74-2.82-1.34-2.55-2.81-5.02-4.04-7.63-.09-.2-.26-.2-.41-.14,2.23,5.36,4.5,10.69,7.14,15.86.14-.16.26-.34.3-.55,2.39-11.43,5.56-23.01,9.46-34.03,3.62-10.24,6.72-25.62,17-31.01.09-.05.12-.25-.03-.22Z"/>
          <path class="cls-1" d="m6.27,63.97c-.02-.06-.02-.11-.04-.17-.32-.98-1.74-.01-1.8.66-.03.34-.03.68-.04,1.02-.02.27-.04.54-.03.81-.01.4-.04.8-.05,1.19-.03,1.56,1.88.87,2.12-.24.1-.46.15-.89.18-1.36,0,.01.02-.48,0-.71.22-.46.18-.97-.33-1.2Z"/>
        </g>
      </g>
    </g>
  </g>
</svg>