<?xml version="1.0" encoding="UTF-8"?>
<svg xmlns="http://www.w3.org/2000/svg" viewBox="0 0 105.44 105.75">
  <defs>
    <style>
      .cls-1 {
        fill: #fff;
      }

      .cls-2 {
        stroke: #221f1f;
        stroke-linecap: round;
        stroke-linejoin: round;
        stroke-width: 1.35px;
      }

      .cls-2, .cls-3 {
        fill: #7b61a9;
      }

      .cls-4 {
        fill: none;
        isolation: isolate;
      }

      .cls-3 {
        mix-blend-mode: multiply;
      }
    </style>
  </defs>
  <g class="cls-4">
    <g id="Layer_2" data-name="Layer 2">
      <g id="Layer_1-2" data-name="Layer 1">
        <g>
          <path class="cls-2" d="m26.12,101.31c2.8-2.55,4.21-6.17,4.19-10.76l-.25-44.38,37.39,46.11c1.28,1.51,2.56,2.97,3.84,4.42,1.44,1.61,3.02,3.05,4.7,4.25,1.81,1.3,3.78,2.26,5.88,2.86,2.02.58,4.28.86,6.73.85,10.49-.06,16.23-5.74,16.17-16l-.41-73.63c-.03-4.61-1.4-8.21-4.1-10.69-2.65-2.46-6.19-3.69-10.52-3.67-4.23.02-7.69,1.3-10.3,3.8-2.62,2.51-3.94,6.12-3.92,10.73l.25,45.32L37.37,13.77c-1.27-1.62-2.5-3.17-3.7-4.66-1.34-1.68-2.68-3.08-4-4.16-1.45-1.19-3.14-2.15-5.03-2.83-1.92-.7-4.17-1.05-6.71-1.03-3.28.02-6.38.8-9.22,2.31-2.96,1.58-5.13,3.69-6.5,6.37-1.06,2.25-1.57,5.1-1.55,8.73l.4,72.22c.03,4.53,1.43,8.11,4.18,10.64,2.71,2.49,6.25,3.74,10.52,3.72,4.14-.02,7.62-1.29,10.35-3.76Z"/>
          <path class="cls-3" d="m30.26,46.43c-1.15-2.93-2.38-5.92-4.04-8.59-3.16-5.08-3.12-.27-2.7,3.31,1.48,12.45,1.45,25.22,1.32,37.75-.08,8.56,0,20.34-8.19,25.45-.46.29-.94.47-1.42.68.18,0,.35.04.53.04,4.14-.02,7.62-1.29,10.35-3.76,2.8-2.55,4.21-6.17,4.19-10.76l-.25-44.38.21.26Z"/>
          <path class="cls-3" d="m35.05,19.43c10.83,13.51,21.85,26.9,33.27,39.91,2.2,2.51,3.98,5.38,6.25,7.81,4.46,4.77,2.99-2.76,2.25-5.4-.31-1.1-.67-2.17-1.06-3.23v1.99S37.37,13.77,37.37,13.77c-1.27-1.62-2.5-3.17-3.7-4.66-1.34-1.68-2.68-3.08-4-4.16-1.45-1.19-3.14-2.15-5.03-2.83-1.92-.7-4.17-1.05-6.71-1.03-3.25.02-6.31.78-9.12,2.27,12.2-1.35,19.27,7.4,26.23,16.08Z"/>
          <path class="cls-3" d="m104.35,15.04c-.03-4.61-1.4-8.21-4.1-10.69-2.65-2.46-6.19-3.69-10.52-3.67-4.23.02-7.69,1.3-10.3,3.8-.82.79-1.47,1.72-2.03,2.72,2.49-2.32,5.54-3.91,9.21-3.03,6.31,1.52,9.7,6.11,9.92,12.62.35,10.2-.52,20.56-.81,30.76-.29,9.95-.41,19.81-.22,29.76.14,7.58-.16,15.1-5.1,21.24-2.87,3.57-6.33,4.93-9.82,4.84.42.16.85.31,1.29.43,2.02.58,4.28.86,6.73.85,10.49-.06,16.23-5.74,16.17-16l-.41-73.63Z"/>
          <path class="cls-1" d="m12.79,6.72c-6.91,1.72-7.14,9.17-7.15,15.11,0,12.56-.35,22.05.23,37.96.03.91,1.43.33,1.47-.35.55-9.26.38-18.63.86-27.93.38-7.33-2.34-19.59,4.72-24.3.26-.17.22-.58-.14-.49Z"/>
          <path class="cls-1" d="m84.26,6.84c-7.09,1.64-5.07,15.03-5.1,19.99-.08,13.25.46,26.34,1.46,39.53.05.73,1.15.26,1.19-.29.6-8.68-.02-17.35-.28-26.03-.16-5.26.11-10.59.26-15.85.13-4.79-1.47-13.38,2.64-16.79.19-.16.18-.63-.16-.56Z"/>
          <path class="cls-1" d="m50.82,65.96c-3.23-5.22-7.67-9.72-11.35-14.63-.14-.19-.51.12-.39.31,3.2,5.12,6.52,10.82,11.19,14.75.24.2.73-.16.55-.44Z"/>
          <path class="cls-1" d="m7.68,65.04c-.05-.63-.57-.71-1.05-.52-.18,0-.35.11-.44.26-.24.2-.43.45-.45.72-.08.93-.04,1.88-.02,2.81.02,1.14,1.8.52,1.95-.47h.02c.02-.93.06-1.88-.02-2.8Z"/>
        </g>
      </g>
    </g>
  </g>
</svg>