<?xml version="1.0" encoding="UTF-8"?>
<svg xmlns="http://www.w3.org/2000/svg" viewBox="0 0 118.32 106">
  <defs>
    <style>
      .cls-1 {
        stroke: #221f1f;
        stroke-linecap: round;
        stroke-linejoin: round;
        stroke-width: 1.35px;
      }

      .cls-1, .cls-2 {
        fill: #49b96c;
      }

      .cls-3 {
        fill: #fff;
      }

      .cls-2 {
        mix-blend-mode: multiply;
      }

      .cls-4 {
        fill: none;
        isolation: isolate;
      }
    </style>
  </defs>
  <g class="cls-4">
    <g id="Layer_2" data-name="Layer 2">
      <g id="Layer_1-2" data-name="Layer 1">
        <g>
          <path class="cls-1" d="m59.53,105.32c9.16-.05,17.44-1.33,24.6-3.8,7.27-2.51,13.5-6.18,18.51-10.91,5.04-4.75,8.86-10.42,11.35-16.87,2.47-6.36,3.69-13.49,3.65-21.2-.06-10.46-2.44-19.72-7.07-27.52-4.68-7.88-11.6-14.01-20.59-18.22C81.19,2.67,70.59.61,58.49.68c-8.9.05-16.99,1.3-24.05,3.7-7.16,2.44-13.33,6-18.34,10.59-5.04,4.61-8.93,10.26-11.56,16.8-2.6,6.47-3.9,13.64-3.86,21.32.04,7.48,1.36,14.55,3.92,21.02,2.59,6.55,6.47,12.23,11.5,16.88,5.02,4.63,11.31,8.24,18.7,10.73,7.28,2.45,15.6,3.67,24.73,3.62Zm-1.42-63.09c5.62-.03,10.64.74,14.92,2.27,4.21,1.52,7.37,3.71,9.66,6.71,2.33,3.05,3.52,6.77,3.54,11.03.03,4.62-1.22,8.52-3.7,11.62-2.47,3.07-5.69,5.29-9.84,6.76-4.24,1.5-8.97,2.28-14.06,2.31-3.99.02-7.69-.39-11-1.23-3.24-.82-6.15-2.08-8.66-3.76-2.48-1.66-4.45-3.81-5.84-6.38-1.43-2.64-2.17-5.67-2.19-9.01-.02-3.3.68-6.3,2.08-8.91,1.36-2.56,3.24-4.68,5.57-6.29,2.34-1.62,5.18-2.89,8.45-3.75,3.34-.89,7.06-1.35,11.06-1.37Z"/>
          <path class="cls-2" d="m60.38,38.21c-7.1.36-14.87,1.87-20.91,5.81-2.48,1.62-5.09,3.49-6.66,6.08-1.65,2.72-2.5,5.81-1.49,8.6.34-1.8.89-3.49,1.72-5.04,1.36-2.56,3.24-4.68,5.57-6.29,2.34-1.62,5.18-2.89,8.45-3.75,3.34-.89,7.06-1.35,11.06-1.37,5.62-.03,10.64.74,14.92,2.27,4.21,1.52,7.37,3.71,9.66,6.71,2.33,3.05,3.52,6.77,3.54,11.03.03,4.62-1.22,8.52-3.7,11.62-2.47,3.07-5.69,5.29-9.84,6.76-4.24,1.5-8.97,2.28-14.06,2.31-3.81.02-7.35-.37-10.54-1.13,7.43,4.12,16.4,5.64,24.66,3.86,13.82-2.99,23.82-15.23,18.93-29.73-4.18-12.37-18.9-18.35-31.29-17.74Z"/>
          <path class="cls-2" d="m110.57,25.02c-4.68-7.88-11.6-14.01-20.59-18.22-3.74-1.75-7.81-3.11-12.18-4.11,7.28,3.68,13.81,8.77,19.38,15.12,9.12,10.42,14.08,22.69,13.5,36.68-.46,11.3-4.04,22.74-11.79,31.22-16.79,18.36-44.26,19.64-66.42,11.05-10.69-4.14-19.73-10.56-26.1-18.79,2.47,4.92,5.71,9.3,9.72,12.99,5.02,4.63,11.31,8.24,18.7,10.73,7.28,2.45,15.6,3.67,24.73,3.62,9.16-.05,17.44-1.33,24.6-3.8,7.27-2.51,13.5-6.18,18.51-10.91,5.04-4.75,8.86-10.42,11.35-16.87,2.47-6.36,3.69-13.49,3.65-21.2-.06-10.46-2.44-19.72-7.07-27.52Z"/>
          <path class="cls-3" d="m47.76,5.79C22.16,8.8-.61,36.86,8.69,62.92c.48,1.34,2.53-.08,2.36-1.17-1.94-12.8-.43-24.54,6.58-35.66,6.64-10.53,17.9-17.83,30.08-19.99.17-.03.27-.34.04-.32Z"/>
          <path class="cls-3" d="m15.54,75.28c-.36-1.22-.97-2.37-1.5-3.52-.37-.79-1-1.83-1.84-2.22,0,0-.01,0-.01,0-.11-.05-.2-.12-.32-.15-.26-.05-.54.14-.68.34-.03.05-.04.1-.07.16-.29.27-.5.64-.5,1.02,0,.29.07.56.16.83.07.45.19.9.37,1.38.53,1.45,1.16,2.78,2.19,3.93.91,1.18,2.51-.71,2.21-1.75Z"/>
        </g>
      </g>
    </g>
  </g>
</svg>