<?xml version="1.0" encoding="UTF-8"?>
<svg xmlns="http://www.w3.org/2000/svg" viewBox="0 0 94.1 104.57">
  <defs>
    <style>
      .cls-1 {
        fill: #fff;
      }

      .cls-2 {
        stroke: #221f1f;
        stroke-linecap: round;
        stroke-linejoin: round;
        stroke-width: 1.35px;
      }

      .cls-2, .cls-3 {
        fill: #f15837;
      }

      .cls-4 {
        fill: none;
        isolation: isolate;
      }

      .cls-3 {
        mix-blend-mode: multiply;
      }
    </style>
  </defs>
  <g class="cls-4">
    <g id="Layer_2" data-name="Layer 2">
      <g id="Layer_1-2" data-name="Layer 1">
        <g>
          <g>
            <path class="cls-2" d="m90.4,18.61c-2-4.1-4.95-7.6-8.76-10.41-3.75-2.75-8.21-4.73-13.23-5.87-4.98-1.17-11.76-1.71-20.72-1.66l-29.12.16c-5.88.03-10.18,1.19-13.14,3.54C2.25,6.91.65,10.9.67,16.25l.41,72.62c.03,4.79,1.49,8.56,4.34,11.19,2.78,2.57,6.39,3.86,10.74,3.83,4.18-.02,7.72-1.36,10.52-3.97,2.89-2.69,4.34-6.51,4.31-11.36l-.13-23.06,17.18-.09c14.61-.08,25.86-2.86,33.44-8.27,7.98-5.68,12-14.04,11.94-24.84-.03-5.02-1.05-9.63-3.03-13.69Zm-30.61,17.99c.01,1.7-.55,3-1.7,3.98-1.24,1.05-3.17,1.84-5.73,2.35-2.92.58-6.67.89-11.17.91l-10.44.06-.08-14.19,10.44-.06c10.79-.06,14.57,1.29,15.8,2.05,1.91,1.25,2.86,2.85,2.87,4.9Z"/>
            <path class="cls-3" d="m50.61,28.13c-6.22-.2-12.93-.61-18.96,1.28.11.1.24.19.36.29l9.1-.05c10.79-.06,14.57,1.29,15.8,2.05,1.91,1.25,2.86,2.85,2.87,4.9.01,1.7-.55,3-1.7,3.98-1.24,1.05-3.17,1.84-5.73,2.35-2.92.58-6.67.89-11.17.91l-10.43.06c-.95.7-1.92,1.36-2.93,2.02,4.92.84,10.66.62,15.33.62,5.85,0,14.35.31,19.09-3.8,8.83-7.65-.36-14.24-11.63-14.6Z"/>
            <path class="cls-3" d="m90.4,18.61c-2-4.1-4.95-7.6-8.76-10.41-1.73-1.27-3.62-2.36-5.64-3.29,9.92,9.08,15.81,22.05,11.3,35.74-3.83,11.64-17.14,14.91-27.53,16.76-5.37.96-12.29,1.73-17.75,1.8-5.09.07-10.82.18-15.91-.47.09,8.53.34,20.96-.02,27.6-.3,5.62-3.24,10.58-8.48,12.77-6.65,2.79-12.74-2.42-16.39-8.59.33,3.98,1.7,7.21,4.2,9.52,2.78,2.57,6.39,3.86,10.74,3.83,4.18-.02,7.72-1.36,10.52-3.97,2.89-2.69,4.34-6.51,4.31-11.36l-.13-23.06,17.18-.09c14.61-.08,25.86-2.86,33.44-8.27,7.98-5.68,12-14.04,11.94-24.84-.03-5.02-1.05-9.63-3.03-13.69Z"/>
            <path class="cls-1" d="m11.29,5.57c-9.05,3.87-6.33,19.28-6.36,26.66-.07,14.88-.93,30.05.19,44.9.11,1.52,2.5.59,2.51-.6.11-11.19.04-22.42-.21-33.61-.14-5.97.12-11.99.2-17.97.08-5.56-1.58-15.12,3.89-18.62.37-.24.32-.99-.22-.76Z"/>
            <path class="cls-1" d="m7.23,84.03s0,0,0-.01c0-.02,0-.04,0-.06,0-.06,0-.12,0-.18-.01-.81,0-1.63-.07-2.44-.05-.69-.53-.85-1.04-.72-.64.07-1.34.58-1.4,1.31-.07.9-.06,1.81-.07,2.72,0,.03.01.04.01.07,0,.09-.02.16-.02.25,0,.22.09.37.21.5,0,0,0,.02,0,.03.17,1.28,1.92.55,2.14-.47.14-.2.24-.42.24-.68,0-.11,0-.21,0-.31Z"/>
          </g>
          <path class="cls-1" d="m78.31,13.02C70.1,2.7,55.25,3.25,43.25,4.01c-.16,0-.29.29-.09.33,12.1,2.74,24.83-.51,34.17,9.64.48.52,1.41-.41.98-.96Z"/>
        </g>
      </g>
    </g>
  </g>
</svg>