<?xml version="1.0" encoding="UTF-8"?>
<svg xmlns="http://www.w3.org/2000/svg" viewBox="0 0 124.7 112.76">
  <defs>
    <style>
      .cls-1 {
        fill: #fff;
      }

      .cls-2 {
        mix-blend-mode: multiply;
      }

      .cls-2, .cls-3 {
        fill: #ca4794;
      }

      .cls-4 {
        fill: none;
        isolation: isolate;
      }

      .cls-3 {
        stroke: #221f1f;
        stroke-linecap: round;
        stroke-linejoin: round;
        stroke-width: 1.35px;
      }
    </style>
  </defs>
  <g class="cls-4">
    <g id="Layer_2" data-name="Layer 2">
      <g id="Layer_1-2" data-name="Layer 1">
        <g>
          <path class="cls-3" d="m34.92,101.76c7.25,2.41,15.53,3.6,24.6,3.55,10.38-.06,19.41-1.57,26.88-4.49,3.38,2,6.6,3.81,9.59,5.4,3.45,1.84,6.54,3.27,9.17,4.26,2.92,1.09,5.41,1.62,7.6,1.61,3.06-.02,5.71-1.04,7.88-3.05,2.26-2.09,3.4-4.38,3.39-6.8-.02-3.79-1.78-6.03-3.26-7.24-1.56-1.27-4.3-2.76-8.63-4.69-2.22-.99-4.37-2.01-6.41-3.05,7.99-9.05,11.99-20.7,11.91-34.73-.06-10.45-2.44-19.71-7.07-27.52-4.68-7.88-11.6-14.01-20.58-18.22C81.19,2.67,70.59.61,58.48.68c-8.91.05-17,1.3-24.05,3.7-7.15,2.44-13.32,6-18.33,10.59-5.04,4.61-8.93,10.26-11.57,16.8-2.6,6.46-3.9,13.64-3.85,21.31.04,7.52,1.36,14.6,3.92,21.03,2.6,6.51,6.49,12.2,11.57,16.9,5.07,4.7,11.38,8.32,18.75,10.77ZM58.66,27.17c5.35-.03,10.13,1.03,14.22,3.15,4.01,2.09,7.02,5.1,9.21,9.22,2.23,4.19,3.37,9.28,3.41,15.12.02,4.7-.59,8.85-1.84,12.34-.91,2.57-2.22,4.9-3.93,6.96-9.71-5.53-16.46-8.11-21.14-8.08-2.18.01-4.18.72-5.95,2.11-2.54,1.99-3.06,4.28-3.06,5.85.01,2.57,1.26,4.73,3.48,6.07,1.27.77,3.36,1.77,6.36,3.02h-.17c-7.7.04-13.89-2.28-18.91-7.11-4.99-4.8-7.45-11.63-7.5-20.86-.02-4.52.64-8.62,1.96-12.21,1.29-3.5,3.07-6.39,5.29-8.61,2.22-2.22,4.92-3.94,8.04-5.12,3.18-1.21,6.72-1.83,10.53-1.85Z"/>
          <path class="cls-2" d="m69.98,24.63c-8.57-2.35-20.11-1.37-26.89,5.09-.83.79-2.36,2.85-3.72,5.25.24-.27.47-.57.73-.82,2.22-2.22,4.92-3.94,8.04-5.12,3.18-1.21,6.72-1.83,10.53-1.85,5.35-.03,10.13,1.03,14.22,3.15,4.01,2.09,7.02,5.1,9.21,9.22,2.23,4.19,3.37,9.28,3.41,15.12.02,4.7-.59,8.85-1.84,12.34-.91,2.57-2.22,4.9-3.93,6.96-9.71-5.53-16.46-8.11-21.14-8.08-1.78,0-3.44.51-4.95,1.44,2.64.32,5.37,1.13,7.1,1.71,3.21,1.07,6.7,2.19,9.59,4,2.36,1.48,6.96,5.51,9.91,4.91,3.67-.74,5.77-6.73,6.82-9.86,5.16-15.41,1.05-38.49-17.08-43.45Z"/>
          <path class="cls-2" d="m120.77,95.01c-1.56-1.27-4.3-2.76-8.63-4.69-2.22-.99-4.37-2.01-6.41-3.05,7.99-9.05,11.99-20.7,11.91-34.73-.06-10.45-2.44-19.71-7.07-27.52-4.68-7.88-11.6-14.01-20.58-18.22C81.19,2.67,70.59.61,58.48.68c-3.24.02-6.33.25-9.33.58,9.55-.73,19.18.29,28.08,3.46,19.48,6.92,32.38,24.02,32.08,45.07-.16,10.82-3.01,22.14-9.66,30.86-1.14,1.49-2.33,2.95-3.42,4.47-.04.01-.07.03-.11.04-.42.62-.83,1.24-1.27,1.84,1.17.52,2.36,1.03,3.54,1.54,2.72,1.18,5.43,2.37,8.08,3.68,4.55,2.24,13.74,7.06,16.36,12.53.27-.14.53-.13.74-.01.28-.81.47-1.64.47-2.48-.02-3.79-1.78-6.03-3.26-7.24Z"/>
          <path class="cls-1" d="m31.46,11.93c.14-.1.14-.43-.09-.32-13.42,6.34-20.99,17.59-23.38,32.08-2.7,16.32,1.08,33.63,14.01,44.55,1.41,1.19,3.94-1.33,2.55-2.5-11.47-9.65-14.85-23.38-14.07-37.94.85-15.62,8.73-26.83,20.98-35.86Z"/>
          <path class="cls-1" d="m30.06,90.47c-.67-.46-1.35-.91-2.03-1.36-.07-.06-.1-.12-.2-.18-.47-.31-1.28.02-1.6.4-.32.36-.48.66-.58,1.13-.1.45.14.91.54,1.12.28.15.56.3.84.45.45.36,1,.63,1.49.79,1.3.43,2.87-1.41,1.55-2.34Z"/>
          <path class="cls-1" d="m62.94,79.76c-.67-.79-1.55-1.28-2.39-1.87-1.19-.82-2.32-1.71-3.5-2.54-1.03-.73-1.85-1.58-2.3-2.78-.27-.72,0-1.56-.54-2.14-.17-.19-.48-.13-.67-.01-2.15,1.31-1.41,4.31-.2,6,.92,1.28,2.52,1.93,3.87,2.59,1.56.77,3.16,1.75,4.89,1.99.6.08,1.29-.72.84-1.25Z"/>
          <path class="cls-1" d="m103.01,104.45c-1.63-1.78-4.05-3.24-6.28-4.12-2.08-.82-3.88-2.14-6.08-2.74-.24-.07-.48.29-.32.47,1.39,1.64,3.35,3,5.33,3.88,2.33,1.03,4.45,2.56,7.01,3.01.24.04.52-.3.34-.51Z"/>
        </g>
      </g>
    </g>
  </g>
</svg>