<?xml version="1.0" encoding="UTF-8"?>
<svg xmlns="http://www.w3.org/2000/svg" viewBox="0 0 102.24 104.61">
  <defs>
    <style>
      .cls-1 {
        fill: #fff;
      }

      .cls-2 {
        fill: #78bcbb;
        mix-blend-mode: multiply;
      }

      .cls-3 {
        fill: none;
        isolation: isolate;
      }

      .cls-4 {
        fill: #37b1ba;
        stroke: #221f1f;
        stroke-linecap: round;
        stroke-linejoin: round;
        stroke-width: 1.35px;
      }
    </style>
  </defs>
  <g class="cls-3">
    <g id="Layer_2" data-name="Layer 2">
      <g id="Layer_1-2" data-name="Layer 1">
        <g>
          <path class="cls-4" d="m31,88.61l-.15-26.66,4.34-.03c3.61-.02,6.59.35,8.86,1.11,2.14.71,4.34,2.12,6.53,4.18,2.39,2.24,5.19,5.63,8.36,10.1l9.17,12.67c2.23,3.08,3.95,5.36,5.26,6.96,1.54,1.87,3.38,3.43,5.48,4.63,2.28,1.32,5.06,1.98,8.25,1.96,2.62-.01,5.01-.48,7.08-1.39,2.19-.96,3.96-2.32,5.26-4.03,1.43-1.87,2.15-3.85,2.14-5.92,0-1.86-.86-4.31-2.84-8.19-1.7-3.32-4.08-7.09-7.09-11.19-3.03-4.11-6.49-8.03-10.31-11.64-1.52-1.44-3.07-2.75-4.66-3.92,6.01-1.93,10.83-4.52,14.39-7.74,5.47-4.92,8.22-11.51,8.17-19.58-.02-3.93-.86-7.7-2.49-11.23-1.64-3.52-4.04-6.63-7.14-9.26-3.04-2.58-6.57-4.57-10.41-5.9-3.19-1.2-6.79-2-10.73-2.38-3.74-.35-8.26-.52-13.43-.49l-36.91.21c-5.82.03-10.05,1.24-12.94,3.69C2.16,7.14.65,11.08.67,16.29l.41,72.49c.03,4.8,1.41,8.57,4.11,11.22,2.7,2.64,6.39,3.96,10.98,3.94,4.26-.02,7.82-1.31,10.57-3.82,2.86-2.61,4.29-6.48,4.26-11.51Zm-.27-47.56l-.07-12.7,14.87-.08c8.26-.05,11.32.45,12.42.75,1.86.51,3.25,1.24,4.25,2.22.92.91,1.37,1.95,1.38,3.16,0,1.6-.5,2.77-1.57,3.6-1.24.97-3.19,1.69-5.78,2.15-2.97.51-6.72.79-11.15.81l-14.35.08Z"/>
          <path class="cls-2" d="m49.55,65.39c-6.91-6.99-16.11-8.94-25.61-8.33-.44,9.06-.2,18.12-.69,27.17-.27,5-1.21,11.7-6.22,14.37-5.59,2.98-11.28.63-14.98-3.7.69,1.99,1.72,3.71,3.13,5.1,2.7,2.64,6.39,3.96,10.98,3.94,4.26-.02,7.82-1.31,10.57-3.82,2.86-2.61,4.29-6.48,4.26-11.51l-.15-26.66,4.34-.03c3.61-.02,6.59.35,8.86,1.11,2.14.71,4.34,2.12,6.53,4.18,1.21,1.14,2.53,2.57,3.94,4.28-1.51-2.16-3.12-4.24-4.97-6.11Z"/>
          <path class="cls-2" d="m98.72,84.01c-1.7-3.32-4.08-7.09-7.09-11.19-3.03-4.11-6.49-8.03-10.31-11.64-1.52-1.44-3.07-2.75-4.66-3.92,6.01-1.93,10.83-4.52,14.39-7.74,5.47-4.92,8.22-11.51,8.17-19.58-.02-3.93-.86-7.7-2.49-11.23-1.64-3.52-4.04-6.63-7.14-9.26-3.04-2.58-6.57-4.57-10.41-5.9-3.19-1.2-6.79-2-10.73-2.38-2.25-.21-4.8-.35-7.58-.42,1.08.25,2.17.48,3.22.75,10.31,2.68,19.36,9.82,23.06,20.03,6.29,17.35-6.67,28.4-21.75,32.63,6.66,6.8,13.22,13.58,18.94,21.29,3.54,4.77,9.36,11.95,6.64,18.4-2.36,5.61-8.61,7.41-14.26,6.26.68.52,1.36,1.05,2.12,1.48,2.28,1.32,5.06,1.98,8.25,1.96,2.62-.01,5.01-.48,7.08-1.39,2.19-.96,3.96-2.32,5.26-4.03,1.43-1.87,2.15-3.85,2.14-5.92,0-1.86-.86-4.31-2.84-8.19Z"/>
          <path class="cls-2" d="m62.98,40.8c4.89-1.81,8.15-8.87,2.61-12.3-6.04-3.74-13.74-2.71-20.64-2.72-5.47,0-11.35-.45-16.68,1.08,1,.54,2.04.99,3.04,1.49l14.22-.08c8.26-.05,11.32.45,12.42.75,1.86.51,3.25,1.24,4.25,2.22.92.91,1.37,1.95,1.38,3.16,0,1.6-.5,2.77-1.57,3.6-1.24.97-3.19,1.69-5.78,2.15-2.97.51-6.72.79-11.15.81l-12.56.07c5.79.91,11.6,1.18,17.5,1.17,4.29,0,8.86.11,12.96-1.41Z"/>
          <path class="cls-1" d="m6.56,83.47c.11-2.83.18-5.65.22-8.47.08-6.05.09-12.09.08-18.13-.01-9.13-.39-18.27-.2-27.4.16-8.15-.6-17.91,4.9-24.55-2.69.86-5.58,4.4-5.99,7.18-1.17,7.98-.39,16.4-.55,24.43-.16,7.83-.14,15.66.02,23.49.15,7.49-.62,15.46.63,22.85.09.57.48.7.9.6Z"/>
          <path class="cls-1" d="m77.25,92.92c-4.64-6.83-10.44-13.09-15.72-19.46-5.47-6.59-10.03-12.07-17.53-16.12-.04-.02-.09.04-.06.07,2,2.46,4.98,4.14,7.28,6.36,2.86,2.76,5.45,5.87,7.98,8.93,5.75,6.95,11.1,14.24,16.88,21.15.45.54,1.55-.38,1.18-.94Z"/>
        </g>
      </g>
    </g>
  </g>
</svg>