<?xml version="1.0" encoding="UTF-8"?>
<svg xmlns="http://www.w3.org/2000/svg" viewBox="0 0 97.65 105.99">
  <defs>
    <style>
      .cls-1 {
        fill: #fff;
      }

      .cls-2 {
        fill: none;
        isolation: isolate;
      }

      .cls-3 {
        mix-blend-mode: multiply;
      }

      .cls-3, .cls-4 {
        fill: #cf1a71;
      }

      .cls-4 {
        stroke: #221f1f;
        stroke-linecap: round;
        stroke-linejoin: round;
        stroke-width: 1.35px;
      }
    </style>
  </defs>
  <g class="cls-2">
    <g id="Layer_2" data-name="Layer 2">
      <g id="Layer_1-2" data-name="Layer 1">
        <g>
          <path class="cls-4" d="m93.29,57.63c-2.34-3.75-5.6-6.88-9.68-9.28-3.73-2.19-7.78-3.84-11.9-5.14-7.66-2.42-15.07-5.38-22.82-7.57-3.74-1.06-12.93-5.04-7.66-10.14,3.61-3.5,10.19-1.89,14.17.05,4.8,2.35,7.11,7.18,11.21,10.35,5.95,4.59,15.6,5.35,21.24-.09,2.63-2.53,3.95-5.48,3.93-8.77-.02-3.12-.97-6.3-2.84-9.46-1.79-3.02-4.59-5.9-8.32-8.55-3.66-2.59-8.24-4.67-13.64-6.18-5.34-1.49-11.68-2.23-18.85-2.19-8.97.05-16.91,1.25-23.62,3.57-6.96,2.41-12.39,5.94-16.15,10.48-3.88,4.7-5.82,10.13-5.79,16.16.03,6.31,1.97,11.69,5.75,15.99,8.71,9.9,22.09,11.91,34.13,15.27,4.54,1.27,9.5,2.39,13.32,5.32,6.08,4.66,2.52,12.63-3.93,14.62-4.89,1.51-10.01.38-14.26-2.26-5.08-3.16-7.03-9.1-11.47-12.9-5.89-5.03-15.13-6.8-21.37-1.35-2.68,2.34-4.09,5.35-4.07,8.71.03,4.76,1.91,9.62,5.59,14.45,3.53,4.63,8.16,8.37,13.78,11.11,7.68,3.7,17.42,5.55,28.98,5.48,9.62-.06,18.09-1.48,25.19-4.23,7.32-2.84,12.98-6.86,16.83-11.94,6.63-8.72,8.17-22,2.26-31.51Z"/>
          <path class="cls-3" d="m51.84,82.09c-4.89,1.51-10.01.38-14.26-2.26-.69-.43-1.32-.93-1.91-1.45.55.75,1.13,1.47,1.79,2.12,5.05,4.98,16.81,6.9,22.35,1.3,6.23-6.3,2.25-15.36-4.6-19.22-5.72-3.22-11.97-4.55-18.21-6.38-10.55-3.09-22.84-6.74-29.46-16.24-2.05-2.93-3.91-6.31-4.93-9.85,0,.26-.03.52-.03.79.03,6.31,1.97,11.69,5.75,15.99,8.71,9.9,22.09,11.91,34.13,15.27,4.54,1.27,9.5,2.39,13.32,5.32,6.08,4.66,2.52,12.63-3.93,14.62Z"/>
          <path class="cls-3" d="m93.29,57.63c-2.34-3.75-5.6-6.88-9.68-9.28-3.73-2.19-7.78-3.84-11.9-5.14-7.66-2.42-15.07-5.38-22.82-7.57-3.74-1.06-12.93-5.04-7.66-10.14,3.61-3.5,10.19-1.89,14.17.05,4.8,2.35,7.11,7.18,11.21,10.35,5.95,4.59,15.6,5.35,21.24-.09,2.63-2.53,3.95-5.48,3.93-8.77,0-1.29-.21-2.59-.54-3.9-.2,1.33-.55,2.62-1.15,3.82-3.5,7.01-11.63,10.29-18.71,6.26-8.34-4.74-14.41-14.76-24.61-15.63-3.19-.27-7.06-.26-9.79,1.77-3.62,2.69-6.73,8.14-3.3,12.33,2.98,3.64,7.31,5.78,11.64,7.44,17.18,6.59,45.39,10.85,46.09,34.62.39,13.3-7.27,21.98-17.46,27.41.09-.03.18-.06.27-.09,7.32-2.84,12.98-6.86,16.83-11.94,6.63-8.72,8.17-22,2.26-31.51Z"/>
          <path class="cls-1" d="m30.71,5.69c-8.94,2.3-16.49,6.9-21.09,15.11-3.78,6.74-3.05,16.95,3.63,21.55.63.43,1.38-.66.99-1.2C3,25.34,16.42,12.3,30.74,5.91c.13-.06.14-.26-.03-.22Z"/>
          <path class="cls-1" d="m54.24,100.46c-10.94.63-20.71-.76-30.63-5.6-9.36-4.56-24.88-19.25-12.04-28.71.2-.14.2-.54-.12-.42-12.46,4.46-6.4,19.1,1.76,24.87,11.62,8.22,26.6,14.53,41.03,10.61.38-.1.51-.78,0-.76Z"/>
          <path class="cls-1" d="m17.75,45.46s-.37-.32-.54-.45c0,0,0-.02,0-.03-.02-.12-.06-.22-.13-.32-.33-.56-1.19-.1-1.22.45,0,.11.03.2.06.3,0,0-.01,0-.02,0,0,.01.02.02.02.03.15.45.62.75,1.01,1.01,0-.01.02-.03.02-.04.49.23,1.19-.49.78-.94Z"/>
        </g>
      </g>
    </g>
  </g>
</svg>