<?xml version="1.0" encoding="UTF-8"?>
<svg xmlns="http://www.w3.org/2000/svg" viewBox="0 0 98.55 99.8">
  <defs>
    <style>
      .cls-1 {
        fill: #fff;
      }

      .cls-2 {
        fill: none;
        isolation: isolate;
      }

      .cls-3 {
        stroke: #221f1f;
        stroke-linecap: round;
        stroke-linejoin: round;
        stroke-width: 1.35px;
      }

      .cls-3, .cls-4 {
        fill: #f99f32;
      }

      .cls-4 {
        mix-blend-mode: multiply;
      }
    </style>
  </defs>
  <g class="cls-2">
    <g id="Layer_2" data-name="Layer 2">
      <g id="Layer_1-2" data-name="Layer 1">
        <g>
          <path class="cls-3" d="m97.88,11.58c-.02-3.33-1.44-6.15-4.11-8.17-2.47-1.86-5.87-2.76-10.4-2.73L14.92,1.06c-4.24.02-7.63.94-10.08,2.73C2.09,5.81.65,8.69.67,12.12c.02,3.32,1.43,6.14,4.08,8.13,2.43,1.84,5.8,2.73,10.28,2.7l20.07-.11.35,61.82c.03,4.71,1.44,8.36,4.19,10.85,2.66,2.42,6.07,3.63,10.13,3.6,4.01-.02,7.36-1.26,9.97-3.69,2.7-2.5,4.06-6.18,4.03-10.93l-.35-61.82,20.07-.11c4.47-.03,7.83-.94,10.29-2.79,2.7-2.03,4.11-4.87,4.09-8.21Z"/>
          <path class="cls-4" d="m35.11,23.42c1.02-1.25,2.09-2.52,3.2-3.93-9.92-.79-30.46,4.45-34.86-7.15-.98-2.59-.89-5.11.04-7.36-1.86,1.9-2.83,4.33-2.82,7.14.02,3.32,1.43,6.14,4.08,8.13,2.43,1.84,5.8,2.73,10.28,2.7l20.07-.11v.57Z"/>
          <path class="cls-4" d="m93.76,3.7c-.15-.12-.34-.2-.5-.3.24.33.5.65.69,1.02,1.69,3.38,1.72,7.58-.91,10.57-3.61,4.12-8.88,4.89-14.15,4.83-6.85-.08-13.7.05-20.55.1.06,4.18,0,9.33,0,13.5l.82,20.45c0,10.15.07,14.29.24,24.44.12,7.02-.07,14.71-5.43,19.91-.37.35-.76.65-1.16.91,2.68-.49,5.01-1.62,6.92-3.4,2.7-2.5,4.06-6.18,4.03-10.93l-.35-61.82,20.07-.11c4.47-.03,7.83-.94,10.29-2.79,2.7-2.03,4.11-4.87,4.09-8.21-.02-3.33-1.44-6.15-4.11-8.17Z"/>
          <path class="cls-1" d="m41.28,52.17c.09-5.13.1-10.26.22-15.39.09-3.75.32-7.21-1.19-10.71-.1-.23-.42-.01-.44.16-1.01,9.52-.7,19.08-.52,28.64.18,9.98-2.02,21.67,1.2,31.25.23.68,1.16-.08,1.13-.56-.54-11.08-.6-22.28-.4-33.37Z"/>
          <path class="cls-1" d="m42.58,90.35c-.2-.25-.38-.54-.32-.84.13-.69-.77-.53-1.02-.16-.59.86-.35,1.66,0,2.57.29.75,1.26.23,1.58-.18.05-.07.1-.14.15-.21.44-.59.1-1.08-.39-1.17Z"/>
          <path class="cls-1" d="m89.54,5.43c-2.61-2.04-6.11-1.88-9.31-1.96-4.72-.12-9.45-.27-14.18-.25-5.64.02-11.28-.21-16.91-.18-6.19.04-12.48,1.22-18.66,1.03-.07,0-.14.11-.05.13,8.26,2.09,18.43.03,26.86.39,4.82.21,9.65.05,14.47.26,4.32.19,12.7-.83,16.33,2,.83.65,2.26-.79,1.45-1.42Z"/>
        </g>
      </g>
    </g>
  </g>
</svg>