<?xml version="1.0" encoding="UTF-8"?>
<svg xmlns="http://www.w3.org/2000/svg" viewBox="0 0 103.05 106.19">
  <defs>
    <style>
      .cls-1 {
        fill: #fff;
      }

      .cls-2 {
        mix-blend-mode: multiply;
      }

      .cls-2, .cls-3 {
        fill: #00a0de;
      }

      .cls-4 {
        fill: none;
        isolation: isolate;
      }

      .cls-3 {
        stroke: #221f1f;
        stroke-linecap: round;
        stroke-linejoin: round;
        stroke-width: 1.35px;
      }
    </style>
  </defs>
  <g class="cls-4">
    <g id="Layer_2" data-name="Layer 2">
      <g id="Layer_1-2" data-name="Layer 1">
        <g>
          <path class="cls-3" d="m102.12,15.77c-.03-4.94-1.52-8.77-4.43-11.37-2.8-2.49-6.41-3.75-10.73-3.72-4.34.02-7.92,1.33-10.62,3.89-2.77,2.63-4.16,6.45-4.14,11.37.05,8.22.44,16.44.7,24.66.24,7.69,1.01,15.86-1.02,23.36-.91,3.36-2.26,7.61-4.82,10.11-3.5,3.41-9.12,3.11-13.64,3.44-11.98.88-19.86-3.61-21.71-15.13-.69-4.28-.59-11.42-.6-15.75,0-8.7.39-18.97-.51-27.64v-2.81c-.04-3.85-.97-6.99-2.74-9.44-.45-.84-.97-1.47-1.58-1.85-2.76-2.55-6.41-3.83-10.85-3.81-4.3.03-7.86,1.35-10.58,3.92C2.05,7.64.65,11.46.67,16.34l.25,45.3c.04,7.5,1.08,14.08,3.07,19.54,2.07,5.69,5.37,10.44,9.8,14.1,4.35,3.58,9.96,6.24,16.69,7.9,6.49,1.59,14.28,2.37,23.13,2.32,7.51-.04,14.2-.86,19.88-2.42,5.84-1.62,11.03-4.2,15.46-7.68,5.24-4.17,8.86-9.12,10.77-14.7,1.8-5.3,2.69-11.91,2.65-19.64l-.25-45.3Z"/>
          <path class="cls-2" d="m12.88,1.32c14.71,1.68,11.22,20.5,11.21,30.6,0,11.69-2.11,24.87,2.51,35.97,2.72,6.54,7.82,11.02,15.02,11.88,5.46.65,11.71.27,16.39-2.54-1.57.12-3.13.17-4.59.27-11.98.88-19.86-3.61-21.71-15.13-.69-4.28-.59-11.42-.6-15.75,0-8.7.39-18.97-.51-27.64v-2.81c-.04-3.85-.97-6.99-2.74-9.44-.45-.84-.97-1.47-1.58-1.85-2.76-2.55-6.41-3.83-10.85-3.81-.98,0-1.91.1-2.81.24.09,0,.17,0,.25,0Z"/>
          <path class="cls-2" d="m102.12,15.77c-.03-4.94-1.52-8.77-4.43-11.37-2.8-2.49-6.41-3.75-10.73-3.72-1.07,0-2.08.09-3.05.25,1.77.39,3.59,1.08,5.43,2.13,8.75,4.95,5.89,19.66,5.77,27.67-.13,8.01-.58,16.03-.57,24.04,0,6.9.74,14.08-.57,20.9-4.83,25.14-33.35,31.48-55.36,28.76-9.83-1.22-18.65-4.54-25.64-9.92.29.25.54.55.83.79,4.35,3.58,9.96,6.24,16.69,7.9,6.49,1.59,14.28,2.37,23.13,2.32,7.51-.04,14.2-.86,19.88-2.42,5.84-1.62,11.03-4.2,15.46-7.68,5.24-4.17,8.86-9.12,10.77-14.7,1.8-5.3,2.69-11.91,2.65-19.64l-.25-45.3Z"/>
          <path class="cls-1" d="m14.82,86.77c-.88-1.93-2.21-3.48-3.23-5.33-1.91-3.44-2.55-7.69-3.09-11.53-.97-6.82-.95-13.79-.98-20.66-.03-7.4-.01-14.8.19-22.2.18-6.64-.28-13.22,3.07-19.22.13-.23-.07-.53-.33-.33-3.98,3.14-5.02,7.9-5.37,12.76-.55,7.68-.53,15.49-.45,23.19.1,9.2-.05,18.36,1.01,27.51.67,5.74,2.2,14.21,7.84,17.13.71.36,1.65-.61,1.33-1.31Z"/>
          <path class="cls-1" d="m18.28,91.37c-.44-.68-.92-.36-1.46-.88-.33-.32-1.02.15-.9.58.2.73.64,1.35,1.43,1.42.48.04,1.27-.58.93-1.11Z"/>
          <path class="cls-1" d="m83.44,5.54c-9.09,3.54-7.24,15.26-6.58,22.93.62,7.12.27,14.27.91,21.4.81,8.9-.76,15.44-4.96,23.27-.22.41.24.77.55.4,6.17-7.28,6.04-19.11,6.13-28.14.05-5.94-.2-11.89-.17-17.83.03-7.32-1.43-15.64,4.53-21.16.39-.36.19-1.11-.41-.87Z"/>
        </g>
      </g>
    </g>
  </g>
</svg>