<?xml version="1.0" encoding="UTF-8"?>
<svg xmlns="http://www.w3.org/2000/svg" viewBox="0 0 106.78 106.21">
  <defs>
    <style>
      .cls-1 {
        fill: #fff;
      }

      .cls-2 {
        stroke: #221f1f;
        stroke-linecap: round;
        stroke-linejoin: round;
        stroke-width: 1.35px;
      }

      .cls-2, .cls-3 {
        fill: #c7252c;
      }

      .cls-4 {
        fill: none;
        isolation: isolate;
      }

      .cls-3 {
        mix-blend-mode: multiply;
      }
    </style>
  </defs>
  <g class="cls-4">
    <g id="Layer_2" data-name="Layer 2">
      <g id="Layer_1-2" data-name="Layer 1">
        <g>
          <path class="cls-2" d="m98.71,2.22c-2.16-1.04-4.51-1.57-6.98-1.55-3.38.02-6.17.78-8.3,2.26-2.02,1.4-3.51,3.05-4.44,4.91-.72,1.44-3.95,8.15-5.3,11.6l-19.45,41.51L31.82,15.86c-1.86-4.75-3.68-8.18-5.55-10.48-2.33-2.86-6.05-4.3-11.05-4.27-4.03.02-7.47,1.24-10.21,3.63C2.12,7.26.66,10.2.67,13.47c0,1.19.22,2.53.64,4.07.39,1.44.88,2.79,1.44,4.01.47,1.04.94,2.09,1.42,3.24l26.98,60.82c.99,2.38,2,4.67,3,6.81,1.09,2.33,2.39,4.46,3.88,6.32,1.65,2.07,3.82,3.74,6.43,4.97,2.6,1.22,5.73,1.83,9.32,1.81,3.6-.02,6.74-.68,9.32-1.95,2.59-1.27,4.7-2.95,6.31-4.99,1.44-1.83,2.71-3.97,3.78-6.35.98-2.17,1.95-4.46,2.89-6.78l26.82-61.79c.45-1.09.89-2.16,1.33-3.19.52-1.2.95-2.45,1.3-3.69.38-1.4.57-2.76.57-4.03-.01-2.12-.72-4.18-2.1-6.14-1.31-1.84-3.08-3.32-5.29-4.39Z"/>
          <path class="cls-3" d="m1.97,8.46c6.54-6.17,16.9-2.98,22.18,3.6,7.94,9.88,12.82,23.22,17.91,34.73,1.61,3.64,3.11,7.33,4.81,10.93.52,1.09,5.02,8.84,4.92,9.01,1.3-1.93,1.82-4.19,2.08-6.53L31.82,15.86c-1.86-4.75-3.68-8.18-5.55-10.48-2.33-2.86-6.05-4.3-11.05-4.27-4.03.02-7.47,1.24-10.21,3.63-1.34,1.17-2.36,2.43-3.08,3.76.01,0,.02-.02.03-.04Z"/>
          <path class="cls-3" d="m104,6.61c-1.31-1.84-3.08-3.32-5.29-4.39-2.16-1.04-4.51-1.57-6.98-1.55-3.38.02-6.17.78-8.3,2.26-.36.25-.69.53-1.02.79,3.64-1.09,7.32-.44,10.59,3.35,5,5.8,2.46,14.05-.38,20.19-4.88,10.58-9.45,21.3-13.92,32.07-3.94,9.49-7.32,19.51-12.01,28.66-2.65,5.19-6.55,11.75-12.79,13.09-6.44,1.39-12.6-1.11-17.89-5.25.63,1.02,1.31,2,2.03,2.91,1.65,2.07,3.82,3.74,6.43,4.97,2.6,1.22,5.73,1.83,9.32,1.81,3.6-.02,6.74-.68,9.32-1.95,2.59-1.27,4.7-2.95,6.31-4.99,1.44-1.83,2.71-3.97,3.78-6.35.98-2.17,1.95-4.46,2.89-6.78l26.82-61.79c.45-1.09.89-2.16,1.33-3.19.52-1.2.95-2.45,1.3-3.69.38-1.4.57-2.76.57-4.03-.01-2.12-.72-4.18-2.1-6.14Z"/>
          <path class="cls-1" d="m38.42,86.29c-4.93-12.67-11.68-24.76-17.26-37.18-2.75-6.14-5.36-12.34-8.37-18.36-3.1-6.19-7.08-13.1-6.85-20.19.02-.55-.67-.41-.82,0-1.84,4.84-.01,9.01,1.99,13.54,2.99,6.73,6.12,13.4,9.13,20.13,3.09,6.94,6.24,13.85,9.51,20.71,3.53,7.38,6.49,15.6,11.03,22.41.61.91,2-.13,1.65-1.04Z"/>
          <path class="cls-1" d="m83.64,8.64c-4.76,3.21-6.09,9.98-8.54,14.86-4.42,8.82-8.21,18.03-12.82,26.74-.5.94.57,1.26,1.14.55,1.77-2.2,2.66-4.99,3.93-7.51,1.93-3.85,4.04-7.58,5.9-11.48,1.81-3.81,3.66-7.59,5.47-11.39,1.75-3.68,2.42-8.32,5.12-11.48.14-.16.03-.44-.2-.29Z"/>
          <path class="cls-1" d="m61.73,53.55c-.16-.25-.55-.05-.57.21-.04.7-.83,1.26-1.11,1.88-.27.57.39.91.84.61.74-.49,1.36-1.87.84-2.7Z"/>
        </g>
      </g>
    </g>
  </g>
</svg>