<?xml version="1.0" encoding="UTF-8"?>
<svg xmlns="http://www.w3.org/2000/svg" viewBox="0 0 149.88 106.52">
  <defs>
    <style>
      .cls-1 {
        fill: #fff;
      }

      .cls-2 {
        fill: none;
        isolation: isolate;
      }

      .cls-3 {
        stroke: #221f1f;
        stroke-linecap: round;
        stroke-linejoin: round;
        stroke-width: 1.35px;
      }

      .cls-3, .cls-4 {
        fill: #8dc640;
      }

      .cls-4 {
        mix-blend-mode: multiply;
      }
    </style>
  </defs>
  <g class="cls-2">
    <g id="Layer_2" data-name="Layer 2">
      <g id="Layer_1-2" data-name="Layer 1">
        <g>
          <path class="cls-3" d="m144.7,3.88c-2.72-2.15-6.02-3.23-9.8-3.21-3.81.02-6.85.97-9.04,2.8-2.02,1.68-3.48,3.65-4.33,5.87-.69,1.8-1.39,4.15-2.11,7.14l-11.27,36-13.05-32.52c-1.44-4.38-2.58-7.47-3.47-9.46-1.08-2.4-2.96-4.59-5.59-6.52-2.75-2.01-6.47-3.01-11.06-2.99-4.49.03-8.18,1.01-10.97,2.94-2.71,1.88-4.7,4.17-5.93,6.81-1.04,2.24-2.15,5.34-3.4,9.45l-12.46,32.58-11.73-35.76c-1.2-4.65-2.59-8.16-4.27-10.75-2.15-3.31-5.98-4.97-11.39-4.94-3.85.02-7.16,1.16-9.84,3.38C2.15,7.09.65,10.2.67,13.71c.01,2.31.63,5.41,1.88,9.43l19,63.33c.58,1.91,1.24,3.98,1.97,6.22.84,2.54,1.94,4.77,3.27,6.65,1.49,2.1,3.44,3.74,5.8,4.87,2.3,1.1,5.17,1.65,8.51,1.63,4.21-.02,7.71-1.01,10.39-2.94,2.6-1.86,4.47-4.04,5.57-6.51.89-2,2.03-5.13,3.49-9.62l14.63-45.93,14.97,45.79c1.57,4.6,2.76,7.76,3.62,9.66,1.09,2.4,2.98,4.55,5.63,6.37,2.71,1.87,6.21,2.8,10.4,2.78,4.45-.03,8.03-1.05,10.66-3.03,2.52-1.89,4.34-4.17,5.42-6.77.88-2.14,1.98-5.44,3.25-9.82l18.3-63.54c1.22-4.29,1.78-7.29,1.77-9.44-.02-3.57-1.58-6.68-4.5-8.99Z"/>
          <path class="cls-4" d="m21,11.26c2.78,4.58,4.26,10.21,5.87,15.28,2.02,6.38,4.5,12.6,6.7,18.92,1.09,3.14,2.11,6.3,2.98,9.51.13.48,1.65,5.04,1.74,4.89,1.64-2.34,2.84-4.88,3.78-7.52l-11.58-35.31c-1.2-4.65-2.59-8.16-4.27-10.75-2.15-3.31-5.98-4.97-11.39-4.94-1.73,0-3.34.28-4.85.74,4.6.78,8.44,4.96,11.01,9.18Z"/>
          <path class="cls-4" d="m67.81,3.17c8.83-.71,16.62,7.53,19.84,14.87,2.37,5.41,4.22,11.02,6.27,16.55,1.99,5.39,4.62,10.58,6.21,16.1.72,2.5,1.3,5.12,2.36,7.5,1.93,4.36,4.07,1.12,4.89-1.69.47-1.59.8-3.19,1.03-4.8l-.25.8-13.05-32.52c-1.44-4.38-2.58-7.47-3.47-9.46-1.08-2.4-2.96-4.59-5.59-6.52-2.75-2.01-6.47-3.01-11.06-2.99-4.49.03-8.18,1.01-10.97,2.94-.02.01-.04.03-.06.04,1.23-.42,2.51-.72,3.84-.82Z"/>
          <path class="cls-4" d="m75.26,41.08c.03-1.19.06-2.78.09-4.42-.13-.45-.27-.88-.42-1.26-.42.03-.81.13-1.17.28-1.47,4.11-2.88,7.22-4.04,10.6-1.92,5.56-4.12,11.02-6.31,16.48-2.46,6.13-5.07,12.21-7.29,18.44-1.46,4.09-2.83,8.42-5.15,12.12-4.01,6.4-10.55,11.8-18.61,9.5-1.7-.48-3.14-1.2-4.42-2.06,1.3,1.44,2.86,2.6,4.66,3.46,2.3,1.1,5.17,1.65,8.51,1.63,4.21-.02,7.71-1.01,10.39-2.94,2.6-1.86,4.47-4.04,5.57-6.51.89-2,2.03-5.13,3.49-9.62l14.63-45.93.07.22Z"/>
          <path class="cls-4" d="m144.7,3.88c-2.72-2.15-6.02-3.23-9.8-3.21-2.98.02-5.49.62-7.49,1.76,3.32-.24,6.73.83,9.79,3.76,5.1,4.88,3.54,12.37,1.89,18.32-2.68,9.64-5.24,19.31-7.86,28.96-2.52,9.24-5,18.52-8.06,27.59-2.42,7.19-5.17,15.24-11.27,20.14-5.72,4.59-10.92,3.09-15.02-.63.76.73,1.57,1.44,2.52,2.1,2.71,1.87,6.21,2.8,10.4,2.78,4.45-.03,8.03-1.05,10.66-3.03,2.52-1.89,4.34-4.17,5.42-6.77.88-2.14,1.98-5.44,3.25-9.82l18.3-63.54c1.22-4.29,1.78-7.29,1.77-9.44-.02-3.57-1.58-6.68-4.5-8.99Z"/>
          <path class="cls-1" d="m31.72,91.14c-6.34-12.11-9.53-25.43-13.42-38.47-2.18-7.3-4.61-14.54-6.58-21.91-1.83-6.9-5.92-14.28-4.28-21.52.07-.3-.36-.25-.47-.07-3.12,5.21-1.06,10.69.38,16.19,1.93,7.39,4.55,14.58,6.77,21.89,2.51,8.31,4.88,16.68,7.3,25.02,1.91,6.58,3.6,15.22,8.67,20.15.7.68,2.05-.46,1.62-1.28Z"/>
          <path class="cls-1" d="m68.12,7.01c-7.07,2.66-9.31,11.89-10.29,18.59-.14.96,1.09.57,1.35.02,1.64-3.4,2.54-7.09,3.75-10.65,1.12-3.28,3.42-5.03,5.44-7.59.15-.19-.02-.46-.25-.37Z"/>
          <path class="cls-1" d="m91.42,70.02c-3.03-8.93-5.09-18.19-9.64-26.5-.26-.48-.9.08-.79.5,2.63,9.17,5.07,18.39,8.26,27.38,2.85,8.04,4.45,18.68,10.46,25.03.5.52,1.4-.33,1.15-.91-3.66-8.36-6.5-16.83-9.43-25.49Z"/>
          <path class="cls-1" d="m127.67,8.97c-3.06,1.01-3.68,4.6-4.47,7.35-1.68,5.8-4.16,11.25-4.89,17.33-.16,1.29,1.56.89,1.89.02,1.55-4.04,2.27-8.35,3.68-12.45,1.3-3.79,1.88-8.49,4.08-11.83.16-.24,0-.52-.29-.42Z"/>
        </g>
      </g>
    </g>
  </g>
</svg>