<?xml version="1.0" encoding="UTF-8"?>
<svg xmlns="http://www.w3.org/2000/svg" viewBox="0 0 104.07 103.36">
  <defs>
    <style>
      .cls-1 {
        fill: #fff;
      }

      .cls-2 {
        stroke: #221f1f;
        stroke-linecap: round;
        stroke-linejoin: round;
        stroke-width: 1.35px;
      }

      .cls-2, .cls-3 {
        fill: #f15837;
      }

      .cls-4 {
        fill: none;
        isolation: isolate;
      }

      .cls-3 {
        mix-blend-mode: multiply;
      }
    </style>
  </defs>
  <g class="cls-4">
    <g id="Layer_2" data-name="Layer 2">
      <g id="Layer_1-2" data-name="Layer 1">
        <g>
          <path class="cls-2" d="m95.97,77.24l-23.75-27.58,21.62-24.92c4.84-5.57,7.08-9.89,7.06-13.57-.01-2.09-.78-5.11-4.41-7.69-2.64-1.88-5.97-2.82-9.9-2.8-2.15.02-4.11.32-5.8.91-1.74.6-3.34,1.51-4.74,2.71-1.19,1.01-2.39,2.25-3.65,3.77l-19.98,23.46-15.09-18.41c-3.53-4.32-6.29-7.25-8.41-8.96-2.62-2.08-6.15-3.12-10.49-3.1-3.78.02-7.07.98-9.79,2.85-3.8,2.62-4.58,5.55-4.57,7.54.01,2.27.71,4.61,2.07,6.93,1.17,2.02,2.86,4.35,5.19,7.14l20.85,24.27-24.75,27.87c-4.57,5.17-6.78,9.59-6.76,13.54.03,4.66,2.43,7.32,4.45,8.73,2.64,1.84,5.91,2.76,9.71,2.75,2.34-.01,4.45-.32,6.29-.93,1.83-.61,3.46-1.45,4.86-2.52,1.22-.94,2.28-1.93,3.18-2.95.74-.85,1.99-2.34,3.72-4.42l19.2-22.59,18.22,21.63c2.73,3.14,4.58,5.25,5.59,6.34,1.32,1.44,3.04,2.65,5.1,3.59,2.13.96,4.67,1.44,7.56,1.42,2.69-.01,5.16-.49,7.34-1.42,2.31-.98,4.15-2.36,5.45-4.08,1.38-1.8,2.07-3.82,2.06-6.01-.01-2.12-.71-4.33-2.06-6.56-1.15-1.9-2.92-4.19-5.37-6.96Z"/>
          <path class="cls-3" d="m101.33,84.2c-1.15-1.9-2.92-4.19-5.37-6.96l-23.75-27.58,21.62-24.92c4.84-5.57,7.08-9.89,7.06-13.57-.01-2.09-.78-5.11-4.41-7.69-2.64-1.88-5.97-2.82-9.9-2.8-2.15.02-4.11.32-5.8.91-1.32.45-2.53,1.15-3.67,1.95.56-.12,1.13-.21,1.71-.26,5.64-.47,10.77,1.11,12.65,6.86,2.41,7.35-5.9,14.64-10.08,19.28-5.86,6.52-11.89,12.89-17.98,19.2,7.23,8.18,14.48,16.34,21.39,24.78,4.63,5.65,11.6,12.65,8.34,20.56-2.01,4.88-9.41,6.29-14.1,5.85.61.37,1.24.72,1.93,1.04,2.13.96,4.67,1.44,7.56,1.42,2.69-.01,5.16-.49,7.34-1.42,2.31-.98,4.15-2.36,5.45-4.08,1.38-1.8,2.07-3.82,2.06-6.01-.01-2.12-.71-4.33-2.06-6.56Z"/>
          <path class="cls-3" d="m52.69,70.02c.19-1.57.16-3.14-.21-4.38-1.08-3.63-4.05.3-4.96,1.41-2.17,2.65-5.25,5.42-7.25,8.2-5.79,8.01-12.08,15.18-19.89,22.07-3.38,2.98-9.6,5.58-13.84,3.44,2.36,1.27,5.13,1.94,8.28,1.92,2.34-.01,4.45-.32,6.29-.93,1.83-.61,3.46-1.45,4.86-2.52,1.22-.94,2.28-1.93,3.18-2.95.74-.85,1.99-2.34,3.72-4.42l19.2-22.59.62.74Z"/>
          <path class="cls-2" d="m3.55,97.82c-2.74-4.79-2.33-9.43-.64-13.98-1.5,2.65-2.25,5.09-2.24,7.36.03,4.66,2.43,7.32,4.45,8.73.24.17.51.29.76.44-.87-.58-1.67-1.4-2.32-2.55Z"/>
          <path class="cls-3" d="m13.35,2.02c7.83,1.8,12.59,7.92,17.38,13.96,3.87,4.89,7.56,9.98,11.8,14.57,2.43,2.63,4.94,7.8,8.48,2.88.44-.62.96-1.3,1.41-1.9l-15.09-18.41c-3.53-4.32-6.29-7.25-8.41-8.96-2.62-2.08-6.15-3.12-10.49-3.1-2.05.01-3.94.32-5.69.88.21.04.4.04.61.08Z"/>
          <path class="cls-1" d="m34.92,44.41c-4.33-5.58-9.32-10.64-13.74-16.16-4.6-5.76-12.64-12.71-11.61-20.57.04-.29-.37-.21-.44,0-1.97,6.45,1.85,10.06,5.69,14.85,6.26,7.82,12.27,15.5,19.19,22.78.46.48,1.31-.38.91-.89Z"/>
          <path class="cls-1" d="m28.48,59.63c-5.36,5.4-10.17,11.25-15.39,16.79-3.63,3.84-8.14,8.72-8.09,14.28,0,.9,1.41.32,1.47-.35.59-6.75,7.3-12.54,11.48-17.39,3.68-4.27,7.51-8.56,10.79-13.14.14-.19-.11-.34-.26-.19Z"/>
          <path class="cls-1" d="m76.5,8.61c-3.06,1.95-5.26,4.93-7.48,7.74-3.31,4.18-6.84,8.19-10.11,12.4-.38.48.27.8.65.47,2.96-2.58,5.41-5.75,7.81-8.84,3.04-3.91,6.13-7.69,9.32-11.48.14-.16.03-.41-.19-.27Z"/>
          <path class="cls-1" d="m66.82,80.38c-2.07-2.4-4.02-4.93-6.19-7.24-.15-.16-.42.12-.3.29,3.12,4.17,6.06,8.41,9.3,12.5.24.31.81-.15.72-.46-.52-1.97-2.24-3.59-3.54-5.1Z"/>
        </g>
      </g>
    </g>
  </g>
</svg>