<?xml version="1.0" encoding="UTF-8"?>
<svg xmlns="http://www.w3.org/2000/svg" viewBox="0 0 99.66 106.2">
  <defs>
    <style>
      .cls-1 {
        fill: #fff;
      }

      .cls-2 {
        stroke: #221f1f;
        stroke-linecap: round;
        stroke-linejoin: round;
        stroke-width: 1.35px;
      }

      .cls-2, .cls-3 {
        fill: #6f51a1;
      }

      .cls-4 {
        fill: none;
        isolation: isolate;
      }

      .cls-3 {
        mix-blend-mode: multiply;
      }
    </style>
  </defs>
  <g class="cls-4">
    <g id="Layer_2" data-name="Layer 2">
      <g id="Layer_1-2" data-name="Layer 1">
        <g>
          <path class="cls-2" d="m98.99,11.99c-.01-2.19-.76-5.39-4.24-8.2-2.58-2.08-5.76-3.13-9.45-3.11-2.32.01-4.38.41-6.1,1.17-1.68.74-3.21,1.82-4.57,3.19-1.15,1.17-2.24,2.46-3.22,3.83l-21.59,26.24L31.97,13.52c-3.4-4.62-5.93-7.67-7.75-9.33-2.3-2.09-5.51-3.14-9.53-3.12-3.77.02-7.02,1.1-9.66,3.21C1.4,7.16.66,10.5.67,12.8c.01,1.98.66,4.08,1.97,6.42,1.08,1.94,2.84,4.53,5.42,7.95l26.81,34.54.16,28.66c.03,4.98,1.5,8.82,4.37,11.41,2.78,2.51,6.36,3.77,10.63,3.75,4.22-.02,7.78-1.33,10.58-3.88,2.9-2.65,4.36-6.5,4.34-11.45l-.16-28.65,27.07-35.33c2.46-3.14,4.17-5.56,5.23-7.41,1.27-2.23,1.91-4.53,1.9-6.83Z"/>
          <path class="cls-3" d="m13.2,4.11c4.16.99,7.42,4.33,10.02,7.53,4.44,5.45,8.8,10.97,13.4,16.3,2.13,2.46,4.47,4.82,6.49,7.36,1.83,2.3,5.01,6.22,6.77,1.27.28-.78.5-1.58.71-2.37l-.75.92L31.97,13.52c-3.4-4.62-5.93-7.67-7.75-9.33-2.3-2.09-5.51-3.14-9.53-3.12-3.22.02-6.04.86-8.45,2.4,2.28-.18,4.73.1,6.96.63Z"/>
          <path class="cls-3" d="m94.75,3.78c-2.58-2.08-5.76-3.13-9.45-3.11-2.32.01-4.38.41-6.1,1.17-1.24.55-2.37,1.34-3.44,2.24,4.13-1.38,8.43-1.25,11.22,1.93,4,4.56,2.9,10.44.17,15.36-4.49,8.1-10.72,15.62-16.31,22.98-3.19,4.2-6.61,8.33-9.5,12.75-3.14,4.8-2.46,8.9-2.54,14.41-.06,4.67-.28,9.33-.34,14-.04,3.58.1,8.05-1.81,11.28-3.53,5.98-9.1,7.72-14.71,6.77,2.32,1.3,5.02,1.98,8.1,1.96,4.22-.02,7.78-1.33,10.58-3.88,2.9-2.65,4.36-6.5,4.34-11.45l-.16-28.65,27.07-35.33c2.46-3.14,4.17-5.56,5.23-7.41,1.27-2.23,1.91-4.53,1.9-6.83-.01-2.19-.76-5.39-4.24-8.2Z"/>
          <path class="cls-1" d="m28.85,43.75c-3.1-4.55-6.82-8.71-10.2-13.05-4.65-5.97-12.59-13.42-12.03-21.48.02-.32-.36-.2-.45,0-2.58,5.38.87,9.86,4.02,14.16,5.37,7.33,11.17,14.79,17.54,21.28.46.47,1.48-.35,1.12-.89Z"/>
          <path class="cls-1" d="m42.85,95.92c-3.75-3.56-2.87-11.06-2.88-15.84-.01-4.71.04-9.56-.75-14.21-.08-.47-.7-.1-.69.25.15,6.05-.35,12.18-.36,18.26-.01,4.15-.5,10.3,3.14,13.06.86.65,2.37-.73,1.55-1.51Z"/>
          <path class="cls-1" d="m77.74,7.6c-3.31,1.53-5.64,4.8-7.74,7.66-2.77,3.77-6.33,7.13-8.43,11.34-.32.64.54.84.93.46,5.83-5.76,9.67-13.27,15.43-19.07.16-.16.09-.52-.18-.39Z"/>
        </g>
      </g>
    </g>
  </g>
</svg>