<?xml version="1.0" encoding="UTF-8"?>
<svg xmlns="http://www.w3.org/2000/svg" viewBox="0 0 106.25 103.71">
  <defs>
    <style>
      .cls-1 {
        fill: #fff;
      }

      .cls-2 {
        fill: #93aad8;
        mix-blend-mode: multiply;
      }

      .cls-3 {
        fill: #0086b6;
        stroke: #221f1f;
        stroke-linecap: round;
        stroke-linejoin: round;
        stroke-width: 1.35px;
      }

      .cls-4 {
        fill: none;
        isolation: isolate;
      }
    </style>
  </defs>
  <g class="cls-4">
    <g id="Layer_2" data-name="Layer 2">
      <g id="Layer_1-2" data-name="Layer 1">
        <g>
          <path class="cls-3" d="m104.33,97c1.87-3.47,1.56-7.79-.43-11.12-2.49-4.15-7.51-4.91-12.01-4.89l-50.63.28,47.4-48.27c4.33-4.34,7.15-7.43,8.63-9.44,1.83-2.49,2.75-5.72,2.73-9.61-.03-4.99-2.15-13.36-16.07-13.28l-63.74.36c-4.32.02-7.6.95-10.02,2.85-2.63,2.05-4.01,4.89-3.99,8.21.02,3.27,1.45,6.03,4.15,7.99,2.42,1.76,5.69,2.61,9.99,2.59l40.81-.23L9.99,74.8c-.92.92-1.99,1.99-3.21,3.24-1.29,1.31-2.3,2.39-3.02,3.24-.9,1.06-1.64,2.21-2.18,3.43-.61,1.37-.91,2.88-.91,4.47.03,4.27,1.84,7.86,5.24,10.39,3.18,2.36,7.55,3.49,13.35,3.46,0,0,72.61-.41,72.75-.41,4.06-.02,8.77-.99,11.44-4.31.33-.41.62-.86.88-1.32Z"/>
          <path class="cls-2" d="m53.8,32.22c3.63-3.01,8.04-5.88,10.82-9.75,3.9-5.42-9.93-4.07-12.58-3.82-12.36,1.17-26.09,2.33-38.27-.44-2.99-.68-6.54-3.25-7.53-6.45,0,.11-.03.22-.03.33.02,3.27,1.45,6.03,4.15,7.99,2.42,1.76,5.69,2.61,9.99,2.59l40.81-.23-18.8,19.24c3.81-3.15,7.64-6.29,11.44-9.46Z"/>
          <path class="cls-2" d="m103.9,85.88c-2.49-4.15-7.51-4.91-12.01-4.89l-50.63.28,47.4-48.27c4.33-4.34,7.15-7.43,8.63-9.44,1.83-2.49,2.75-5.72,2.73-9.61-.03-4.54-1.81-11.84-12.59-13.08,1.58,1.31,2.93,2.98,3.98,5.18,3.81,8-2.29,16.54-7.18,22.37-8.49,10.11-18.53,18.75-27.39,28.53-4.51,4.99-8.97,10.04-13.36,15.13-4.06,4.72-8.86,9.39-12.47,14.56,6.81.14,13.8-.22,20.61-.22,8.32,0,16.65-.1,24.97-.08,7.04,0,19.8-1.77,25.38,4.22,6.15,6.6-8.49,11.42-12.25,11.99-.22.03-.44.06-.66.09,1.85-.01,2.94-.01,2.95-.01,4.06-.02,8.77-.99,11.44-4.31.33-.41.62-.86.88-1.32,1.87-3.47,1.56-7.79-.43-11.12Z"/>
          <path class="cls-1" d="m61.61,3.94c-10.02-1.25-20.42-.63-30.48-.22-7.78.31-15.27-.56-20.01,6.57-.24.36.17.54.45.32,6.6-5.4,15.51-4.39,23.63-4.95,8.73-.61,17.59-.19,26.27-1.21.22-.02.45-.46.13-.5Z"/>
          <path class="cls-1" d="m46.76,41.28c-5.53,4.82-10.15,10.68-15.25,15.95-5.49,5.67-11.26,11.06-16.6,16.89-4.97,5.42-17.39,18.09-4.54,22.63,1.1.39,2.99-1.24,1.86-2.25-2.56-2.26-5.47-3.54-4.13-7.77.95-3,3.43-5.94,5.56-8.15,3.89-4.05,7.47-8.44,11.33-12.54,7.56-8.02,15.43-15.71,22.04-24.57.15-.2-.1-.32-.26-.19Z"/>
          <path class="cls-1" d="m19.2,96.65c-.6-.07-1.21-.13-1.81-.19-.59-.06-1.21.07-1.8-.01-.65-.09-1.31.64-1.06,1.27.6,1.51,2.6,1.51,3.99,1.51,1.23,0,2.25-2.4.68-2.58Z"/>
        </g>
      </g>
    </g>
  </g>
</svg>